NotoSerifKhmer-Bold.ufo
<glyph name="uni1781" format="2">
  <advance width="712"/>
  <unicode hex="1781"/>
  <note>
uni1781
</note>
  <anchor x="356" y="760" name="abvm"/>
  <anchor x="357" y="0" name="blwm"/>
  <outline>
    <contour>
      <point x="82" y="531" type="line"/>
      <point x="262" y="531" type="line"/>
      <point x="262" y="534" type="line" smooth="yes"/>
      <point x="262" y="562"/>
      <point x="296" y="580"/>
      <point x="357" y="580" type="curve" smooth="yes"/>
      <point x="423" y="580"/>
      <point x="452" y="557"/>
      <point x="452" y="500" type="curve" smooth="yes"/>
      <point x="452" y="463" type="line" smooth="yes"/>
      <point x="452" y="415"/>
      <point x="422" y="381"/>
      <point x="357" y="348" type="curve" smooth="yes"/>
      <point x="82" y="207" type="line"/>
      <point x="82" y="146" type="line" smooth="yes"/>
      <point x="82" y="61"/>
      <point x="189" y="0"/>
      <point x="357" y="0" type="curve" smooth="yes"/>
      <point x="523" y="0"/>
      <point x="632" y="60"/>
      <point x="632" y="146" type="curve" smooth="yes"/>
      <point x="632" y="322" type="line"/>
      <point x="452" y="227" type="line"/>
      <point x="452" y="182" type="line" smooth="yes"/>
      <point x="452" y="128"/>
      <point x="425" y="102"/>
      <point x="357" y="102" type="curve" smooth="yes"/>
      <point x="292" y="102"/>
      <point x="262" y="125"/>
      <point x="262" y="182" type="curve" smooth="yes"/>
      <point x="262" y="190" type="line"/>
      <point x="403" y="263" type="line" smooth="yes"/>
      <point x="556" y="342"/>
      <point x="632" y="420"/>
      <point x="632" y="463" type="curve" smooth="yes"/>
      <point x="632" y="536" type="line" smooth="yes"/>
      <point x="632" y="621"/>
      <point x="526" y="682"/>
      <point x="356" y="682" type="curve" smooth="yes"/>
      <point x="191" y="682"/>
      <point x="82" y="623"/>
      <point x="82" y="536" type="curve" smooth="yes"/>
    </contour>
    <contour>
      <point x="262" y="533" type="line"/>
      <point x="82" y="533" type="line"/>
      <point x="82" y="427" type="line" smooth="yes"/>
      <point x="82" y="384"/>
      <point x="126" y="355"/>
      <point x="223" y="355" type="curve" smooth="yes"/>
      <point x="312" y="355"/>
      <point x="367" y="381"/>
      <point x="367" y="451" type="curve" smooth="yes"/>
      <point x="367" y="489"/>
      <point x="350" y="529"/>
      <point x="262" y="529" type="curve"/>
    </contour>
    <contour>
      <point x="262" y="471" type="line"/>
      <point x="278" y="471"/>
      <point x="288" y="466"/>
      <point x="288" y="446" type="curve" smooth="yes"/>
      <point x="288" y="429"/>
      <point x="280" y="421"/>
      <point x="262" y="421" type="curve"/>
    </contour>
  </outline>
</glyph>
<glyph name="uni1782" format="2">
  <advance width="696"/>
  <unicode hex="1782"/>
  <note>
uni1782
</note>
  <anchor x="350" y="760" name="abvm"/>
  <anchor x="350" y="728" name="abvm_high"/>
  <anchor x="350" y="0" name="blwm"/>
  <outline>
    <contour>
      <point x="263" y="281" type="line"/>
      <point x="263" y="336"/>
      <point x="291" y="357"/>
      <point x="350" y="357" type="curve" smooth="yes"/>
      <point x="406" y="357"/>
      <point x="437" y="339"/>
      <point x="437" y="281" type="curve" smooth="yes"/>
      <point x="437" y="0" type="line"/>
      <point x="617" y="0" type="line"/>
      <point x="617" y="336" type="line" smooth="yes"/>
      <point x="617" y="398"/>
      <point x="492" y="459"/>
      <point x="350" y="459" type="curve" smooth="yes"/>
      <point x="211" y="459"/>
      <point x="83" y="400"/>
      <point x="83" y="336" type="curve" smooth="yes"/>
      <point x="83" y="0" type="line"/>
      <point x="263" y="0" type="line"/>
      <point x="263" y="51" type="line"/>
      <point x="283" y="81" type="line" smooth="yes"/>
      <point x="302" y="108"/>
      <point x="315" y="126"/>
      <point x="330" y="126" type="curve" smooth="yes"/>
      <point x="339" y="126"/>
      <point x="350" y="120"/>
      <point x="363" y="120" type="curve" smooth="yes"/>
      <point x="390" y="120"/>
      <point x="413" y="148"/>
      <point x="413" y="185" type="curve" smooth="yes"/>
      <point x="413" y="224"/>
      <point x="386" y="249"/>
      <point x="347" y="249" type="curve" smooth="yes"/>
      <point x="307" y="249"/>
      <point x="278" y="223"/>
      <point x="263" y="207" type="curve"/>
    </contour>
    <contour>
      <point x="203" y="484" type="line"/>
      <point x="170" y="513"/>
      <point x="152" y="528"/>
      <point x="152" y="538" type="curve" smooth="yes"/>
      <point x="152" y="543"/>
      <point x="156" y="548"/>
      <point x="160" y="552" type="curve" smooth="yes"/>
      <point x="164" y="556"/>
      <point x="168" y="558"/>
      <point x="173" y="558" type="curve" smooth="yes"/>
      <point x="177" y="558"/>
      <point x="182" y="554"/>
      <point x="195" y="543" type="curve" smooth="yes"/>
      <point x="231" y="510"/>
      <point x="265" y="493"/>
      <point x="307" y="493" type="curve" smooth="yes"/>
      <point x="341" y="493"/>
      <point x="373" y="505"/>
      <point x="406" y="524" type="curve" smooth="yes"/>
      <point x="427" y="536"/>
      <point x="439" y="547"/>
      <point x="448" y="547" type="curve" smooth="yes"/>
      <point x="470" y="547"/>
      <point x="499" y="491"/>
      <point x="557" y="491" type="curve" smooth="yes"/>
      <point x="596" y="491"/>
      <point x="649" y="517"/>
      <point x="666" y="586" type="curve"/>
      <point x="632" y="582"/>
      <point x="608" y="585"/>
      <point x="574" y="616" type="curve" smooth="yes"/>
      <point x="542" y="646" type="line" smooth="yes"/>
      <point x="509" y="677"/>
      <point x="493" y="685"/>
      <point x="481" y="685" type="curve" smooth="yes"/>
      <point x="466" y="685"/>
      <point x="439" y="663"/>
      <point x="401" y="632" type="curve" smooth="yes"/>
      <point x="365" y="602"/>
      <point x="353" y="592"/>
      <point x="341" y="592" type="curve" smooth="yes"/>
      <point x="331" y="592"/>
      <point x="321" y="601"/>
      <point x="277" y="640" type="curve" smooth="yes"/>
      <point x="239" y="674"/>
      <point x="220" y="686"/>
      <point x="204" y="686" type="curve" smooth="yes"/>
      <point x="187" y="686"/>
      <point x="155" y="672"/>
      <point x="103" y="631" type="curve" smooth="yes"/>
      <point x="35" y="577"/>
      <point x="30" y="542"/>
      <point x="30" y="521" type="curve" smooth="yes"/>
      <point x="30" y="478"/>
      <point x="56" y="449"/>
      <point x="96" y="419" type="curve"/>
    </contour>
  </outline>
</glyph>
<glyph name="uni1783" format="2">
  <advance width="1095"/>
  <unicode hex="1783"/>
  <note>
uni1783
</note>
  <anchor x="745" y="760" name="abvm"/>
  <anchor x="746" y="0" name="blwm"/>
  <outline>
    <contour>
      <point x="995" y="389" type="line"/>
      <point x="815" y="389" type="line"/>
      <point x="815" y="178" type="line" smooth="yes"/>
      <point x="815" y="141"/>
      <point x="801" y="102"/>
      <point x="732" y="102" type="curve" smooth="yes"/>
      <point x="663" y="102"/>
      <point x="648" y="141"/>
      <point x="648" y="178" type="curve" smooth="yes"/>
      <point x="648" y="389" type="line"/>
      <point x="468" y="389" type="line"/>
      <point x="468" y="178" type="line" smooth="yes"/>
      <point x="468" y="141"/>
      <point x="453" y="102"/>
      <point x="384" y="102" type="curve" smooth="yes"/>
      <point x="315" y="102"/>
      <point x="300" y="141"/>
      <point x="300" y="178" type="curve" smooth="yes"/>
      <point x="300" y="389" type="line"/>
      <point x="120" y="389" type="line"/>
      <point x="120" y="162" type="line" smooth="yes"/>
      <point x="120" y="78"/>
      <point x="194" y="0"/>
      <point x="364" y="0" type="curve" smooth="yes"/>
      <point x="440" y="0"/>
      <point x="500" y="16"/>
      <point x="558" y="62" type="curve"/>
      <point x="615" y="18"/>
      <point x="667" y="0"/>
      <point x="747" y="0" type="curve" smooth="yes"/>
      <point x="921" y="0"/>
      <point x="995" y="78"/>
      <point x="995" y="162" type="curve" smooth="yes"/>
    </contour>
    <contour>
      <point x="648" y="330" type="line"/>
      <point x="648" y="449" type="line"/>
      <point x="522" y="514" type="line"/>
      <point x="536" y="535" type="line"/>
      <point x="591" y="510"/>
      <point x="610" y="505"/>
      <point x="625" y="505" type="curve" smooth="yes"/>
      <point x="680" y="505"/>
      <point x="708" y="568"/>
      <point x="708" y="612" type="curve"/>
      <point x="655" y="612"/>
      <point x="603" y="643"/>
      <point x="522" y="680" type="curve"/>
      <point x="430" y="572"/>
      <point x="394" y="525"/>
      <point x="394" y="492" type="curve" smooth="yes"/>
      <point x="394" y="473"/>
      <point x="406" y="449"/>
      <point x="468" y="412" type="curve"/>
      <point x="468" y="330" type="line"/>
    </contour>
    <contour>
      <point x="300" y="340" type="line"/>
      <point x="300" y="576" type="line" smooth="yes"/>
      <point x="300" y="652"/>
      <point x="259" y="677"/>
      <point x="177" y="677" type="curve" smooth="yes"/>
      <point x="32" y="677"/>
      <point x="-20" y="601"/>
      <point x="-20" y="527" type="curve" smooth="yes"/>
      <point x="-20" y="463"/>
      <point x="21" y="411"/>
      <point x="120" y="404" type="curve"/>
      <point x="120" y="340" type="line"/>
    </contour>
    <contour>
      <point x="116" y="492" type="line"/>
      <point x="88" y="492"/>
      <point x="77" y="516"/>
      <point x="77" y="537" type="curve" smooth="yes"/>
      <point x="77" y="555"/>
      <point x="85" y="578"/>
      <point x="116" y="588" type="curve"/>
    </contour>
    <contour>
      <point x="995" y="330" type="line"/>
      <point x="995" y="449" type="line"/>
      <point x="869" y="514" type="line"/>
      <point x="883" y="535" type="line"/>
      <point x="938" y="510"/>
      <point x="957" y="505"/>
      <point x="972" y="505" type="curve" smooth="yes"/>
      <point x="1027" y="505"/>
      <point x="1055" y="568"/>
      <point x="1055" y="612" type="curve"/>
      <point x="1002" y="612"/>
      <point x="950" y="643"/>
      <point x="869" y="680" type="curve"/>
      <point x="777" y="572"/>
      <point x="741" y="525"/>
      <point x="741" y="492" type="curve" smooth="yes"/>
      <point x="741" y="473"/>
      <point x="753" y="449"/>
      <point x="815" y="412" type="curve"/>
      <point x="815" y="330" type="line"/>
    </contour>
  </outline>
</glyph>
<glyph name="uni1784" format="2">
  <advance width="796"/>
  <unicode hex="1784"/>
  <note>
uni1784
</note>
  <anchor x="416" y="840" name="abvm"/>
  <anchor x="448" y="0" name="blwm"/>
  <outline>
    <contour>
      <point x="164" y="0" type="line"/>
      <point x="336" y="0" type="line"/>
      <point x="439" y="55" type="line"/>
      <point x="542" y="0" type="line"/>
      <point x="716" y="0" type="line"/>
      <point x="716" y="335" type="line" smooth="yes"/>
      <point x="716" y="458"/>
      <point x="643" y="490"/>
      <point x="556" y="533" type="curve" smooth="yes"/>
      <point x="508" y="557"/>
      <point x="490" y="567"/>
      <point x="490" y="586" type="curve" smooth="yes"/>
      <point x="490" y="600"/>
      <point x="500" y="610"/>
      <point x="514" y="610" type="curve" smooth="yes"/>
      <point x="532" y="610"/>
      <point x="539" y="595"/>
      <point x="539" y="584" type="curve" smooth="yes"/>
      <point x="539" y="556"/>
      <point x="492" y="536"/>
      <point x="473" y="530" type="curve" smooth="yes"/>
      <point x="446" y="521"/>
      <point x="405" y="516"/>
      <point x="383" y="516" type="curve" smooth="yes"/>
      <point x="347" y="516"/>
      <point x="307" y="530"/>
      <point x="307" y="582" type="curve" smooth="yes"/>
      <point x="307" y="633"/>
      <point x="342" y="649"/>
      <point x="342" y="713" type="curve" smooth="yes"/>
      <point x="342" y="773"/>
      <point x="309" y="809"/>
      <point x="248" y="809" type="curve" smooth="yes"/>
      <point x="175" y="809"/>
      <point x="138" y="762"/>
      <point x="138" y="713" type="curve"/>
      <point x="172" y="713"/>
      <point x="187" y="693"/>
      <point x="187" y="653" type="curve" smooth="yes"/>
      <point x="187" y="620"/>
      <point x="177" y="587"/>
      <point x="177" y="555" type="curve" smooth="yes"/>
      <point x="177" y="483"/>
      <point x="229" y="422"/>
      <point x="360" y="422" type="curve" smooth="yes"/>
      <point x="439" y="422"/>
      <point x="528" y="451"/>
      <point x="572" y="477" type="curve" smooth="yes"/>
      <point x="629" y="512"/>
      <point x="649" y="562"/>
      <point x="649" y="600" type="curve" smooth="yes"/>
      <point x="649" y="658"/>
      <point x="601" y="714"/>
      <point x="517" y="714" type="curve" smooth="yes"/>
      <point x="422" y="714"/>
      <point x="385" y="648"/>
      <point x="385" y="600" type="curve" smooth="yes"/>
      <point x="385" y="549"/>
      <point x="426" y="509"/>
      <point x="448" y="494" type="curve" smooth="yes"/>
      <point x="483" y="470"/>
      <point x="536" y="457"/>
      <point x="536" y="400" type="curve" smooth="yes"/>
      <point x="536" y="117" type="line"/>
      <point x="439" y="169" type="line"/>
      <point x="344" y="117" type="line"/>
      <point x="344" y="128" type="line"/>
      <point x="164" y="128" type="line"/>
    </contour>
    <contour>
      <point x="344" y="103" type="line"/>
      <point x="344" y="306" type="line" smooth="yes"/>
      <point x="344" y="370"/>
      <point x="312" y="399"/>
      <point x="229" y="399" type="curve" smooth="yes"/>
      <point x="106" y="399"/>
      <point x="40" y="332"/>
      <point x="40" y="252" type="curve" smooth="yes"/>
      <point x="40" y="142"/>
      <point x="156" y="134"/>
      <point x="164" y="134" type="curve"/>
      <point x="164" y="103" type="line"/>
    </contour>
    <contour>
      <point x="164" y="224" type="line"/>
      <point x="145" y="225"/>
      <point x="131" y="239"/>
      <point x="131" y="262" type="curve" smooth="yes"/>
      <point x="131" y="284"/>
      <point x="144" y="302"/>
      <point x="164" y="312" type="curve"/>
    </contour>
  </outline>
</glyph>
<glyph name="uni1785" format="2">
  <advance width="708"/>
  <unicode hex="1785"/>
  <note>
uni1785
</note>
  <anchor x="345" y="760" name="abvm"/>
  <anchor x="345" y="0" name="blwm"/>
  <outline>
    <contour>
      <point x="612" y="185" type="line"/>
      <point x="432" y="185" type="line"/>
      <point x="432" y="166" type="line" smooth="yes"/>
      <point x="432" y="122"/>
      <point x="405" y="102"/>
      <point x="345" y="102" type="curve" smooth="yes"/>
      <point x="288" y="102"/>
      <point x="260" y="120"/>
      <point x="260" y="166" type="curve" smooth="yes"/>
      <point x="260" y="410" type="line"/>
      <point x="80" y="410" type="line"/>
      <point x="80" y="146" type="line" smooth="yes"/>
      <point x="80" y="61"/>
      <point x="184" y="0"/>
      <point x="345" y="0" type="curve" smooth="yes"/>
      <point x="503" y="0"/>
      <point x="612" y="60"/>
      <point x="612" y="146" type="curve" smooth="yes"/>
    </contour>
    <contour>
      <point x="612" y="168" type="line"/>
      <point x="612" y="371" type="line" smooth="yes"/>
      <point x="612" y="435"/>
      <point x="580" y="464"/>
      <point x="497" y="464" type="curve" smooth="yes"/>
      <point x="374" y="464"/>
      <point x="308" y="397"/>
      <point x="308" y="317" type="curve" smooth="yes"/>
      <point x="308" y="207"/>
      <point x="424" y="199"/>
      <point x="432" y="199" type="curve"/>
      <point x="432" y="168" type="line"/>
    </contour>
    <contour>
      <point x="432" y="289" type="line"/>
      <point x="413" y="290"/>
      <point x="399" y="304"/>
      <point x="399" y="327" type="curve" smooth="yes"/>
      <point x="399" y="349"/>
      <point x="412" y="367"/>
      <point x="432" y="377" type="curve"/>
    </contour>
    <contour>
      <point x="80" y="333" type="line"/>
      <point x="260" y="333" type="line"/>
      <point x="260" y="471" type="line"/>
      <point x="219" y="498"/>
      <point x="155" y="533"/>
      <point x="155" y="555" type="curve" smooth="yes"/>
      <point x="155" y="559"/>
      <point x="159" y="565"/>
      <point x="163" y="568" type="curve" smooth="yes"/>
      <point x="167" y="571"/>
      <point x="171" y="574"/>
      <point x="176" y="574" type="curve" smooth="yes"/>
      <point x="180" y="574"/>
      <point x="185" y="570"/>
      <point x="198" y="559" type="curve" smooth="yes"/>
      <point x="235" y="527"/>
      <point x="268" y="509"/>
      <point x="310" y="509" type="curve" smooth="yes"/>
      <point x="344" y="509"/>
      <point x="377" y="520"/>
      <point x="409" y="540" type="curve" smooth="yes"/>
      <point x="430" y="553"/>
      <point x="446" y="563"/>
      <point x="451" y="563" type="curve" smooth="yes"/>
      <point x="473" y="563"/>
      <point x="502" y="507"/>
      <point x="560" y="507" type="curve" smooth="yes"/>
      <point x="599" y="507"/>
      <point x="652" y="533"/>
      <point x="669" y="602" type="curve"/>
      <point x="625" y="593"/>
      <point x="611" y="601"/>
      <point x="577" y="632" type="curve" smooth="yes"/>
      <point x="545" y="662" type="line" smooth="yes"/>
      <point x="512" y="693"/>
      <point x="496" y="701"/>
      <point x="484" y="701" type="curve" smooth="yes"/>
      <point x="469" y="701"/>
      <point x="442" y="679"/>
      <point x="404" y="648" type="curve" smooth="yes"/>
      <point x="368" y="618"/>
      <point x="356" y="608"/>
      <point x="344" y="608" type="curve" smooth="yes"/>
      <point x="334" y="608"/>
      <point x="324" y="617"/>
      <point x="280" y="656" type="curve" smooth="yes"/>
      <point x="242" y="690"/>
      <point x="223" y="702"/>
      <point x="207" y="702" type="curve" smooth="yes"/>
      <point x="190" y="702"/>
      <point x="158" y="688"/>
      <point x="106" y="647" type="curve" smooth="yes"/>
      <point x="38" y="593"/>
      <point x="33" y="558"/>
      <point x="33" y="537" type="curve" smooth="yes"/>
      <point x="33" y="501"/>
      <point x="51" y="475"/>
      <point x="80" y="450" type="curve"/>
    </contour>
  </outline>
</glyph>
<glyph name="uni1786" format="2">
  <advance width="752"/>
  <unicode hex="1786"/>
  <note>
uni1786
</note>
  <anchor x="404" y="760" name="abvm"/>
  <anchor x="404" y="0" name="blwm"/>
  <outline>
    <contour>
      <point x="303" y="381" type="line"/>
      <point x="123" y="381" type="line"/>
      <point x="123" y="256" type="line"/>
      <point x="32" y="249"/>
      <point x="10" y="188"/>
      <point x="10" y="144" type="curve" smooth="yes"/>
      <point x="10" y="94"/>
      <point x="39" y="31"/>
      <point x="123" y="0" type="curve"/>
      <point x="303" y="0" type="line"/>
      <point x="303" y="140" type="line"/>
      <point x="325" y="126"/>
      <point x="331" y="104"/>
      <point x="345" y="79" type="curve" smooth="yes"/>
      <point x="375" y="26"/>
      <point x="421" y="0"/>
      <point x="496" y="0" type="curve" smooth="yes"/>
      <point x="626" y="0"/>
      <point x="675" y="75"/>
      <point x="675" y="132" type="curve" smooth="yes"/>
      <point x="675" y="186" type="line"/>
      <point x="495" y="186" type="line"/>
      <point x="495" y="138" type="line" smooth="yes"/>
      <point x="495" y="101"/>
      <point x="485" y="92"/>
      <point x="472" y="92" type="curve" smooth="yes"/>
      <point x="450" y="92"/>
      <point x="445" y="117"/>
      <point x="433" y="143" type="curve" smooth="yes"/>
      <point x="411" y="191"/>
      <point x="363" y="248"/>
      <point x="303" y="256" type="curve"/>
    </contour>
    <contour>
      <point x="123" y="85" type="line"/>
      <point x="106" y="101"/>
      <point x="100" y="111"/>
      <point x="100" y="125" type="curve" smooth="yes"/>
      <point x="100" y="139"/>
      <point x="106" y="151"/>
      <point x="123" y="152" type="curve"/>
    </contour>
    <contour>
      <point x="675" y="170" type="line"/>
      <point x="675" y="373" type="line" smooth="yes"/>
      <point x="675" y="437"/>
      <point x="643" y="466"/>
      <point x="560" y="466" type="curve" smooth="yes"/>
      <point x="437" y="466"/>
      <point x="371" y="399"/>
      <point x="371" y="319" type="curve" smooth="yes"/>
      <point x="371" y="209"/>
      <point x="487" y="201"/>
      <point x="495" y="201" type="curve"/>
      <point x="495" y="170" type="line"/>
    </contour>
    <contour>
      <point x="495" y="291" type="line"/>
      <point x="476" y="292"/>
      <point x="462" y="306"/>
      <point x="462" y="329" type="curve" smooth="yes"/>
      <point x="462" y="351"/>
      <point x="475" y="369"/>
      <point x="495" y="379" type="curve"/>
    </contour>
    <contour>
      <point x="123" y="333" type="line"/>
      <point x="303" y="333" type="line"/>
      <point x="303" y="471" type="line"/>
      <point x="262" y="498"/>
      <point x="198" y="533"/>
      <point x="198" y="555" type="curve" smooth="yes"/>
      <point x="198" y="559"/>
      <point x="202" y="565"/>
      <point x="206" y="568" type="curve" smooth="yes"/>
      <point x="210" y="571"/>
      <point x="214" y="574"/>
      <point x="219" y="574" type="curve" smooth="yes"/>
      <point x="223" y="574"/>
      <point x="228" y="570"/>
      <point x="241" y="559" type="curve" smooth="yes"/>
      <point x="278" y="527"/>
      <point x="311" y="509"/>
      <point x="353" y="509" type="curve" smooth="yes"/>
      <point x="387" y="509"/>
      <point x="420" y="520"/>
      <point x="452" y="540" type="curve" smooth="yes"/>
      <point x="473" y="553"/>
      <point x="489" y="563"/>
      <point x="494" y="563" type="curve" smooth="yes"/>
      <point x="516" y="563"/>
      <point x="545" y="507"/>
      <point x="603" y="507" type="curve" smooth="yes"/>
      <point x="642" y="507"/>
      <point x="695" y="533"/>
      <point x="712" y="602" type="curve"/>
      <point x="668" y="593"/>
      <point x="654" y="601"/>
      <point x="620" y="632" type="curve" smooth="yes"/>
      <point x="588" y="662" type="line" smooth="yes"/>
      <point x="555" y="693"/>
      <point x="539" y="701"/>
      <point x="527" y="701" type="curve" smooth="yes"/>
      <point x="512" y="701"/>
      <point x="485" y="679"/>
      <point x="447" y="648" type="curve" smooth="yes"/>
      <point x="411" y="618"/>
      <point x="399" y="608"/>
      <point x="387" y="608" type="curve" smooth="yes"/>
      <point x="377" y="608"/>
      <point x="367" y="617"/>
      <point x="323" y="656" type="curve" smooth="yes"/>
      <point x="285" y="690"/>
      <point x="266" y="702"/>
      <point x="250" y="702" type="curve" smooth="yes"/>
      <point x="233" y="702"/>
      <point x="201" y="688"/>
      <point x="149" y="647" type="curve" smooth="yes"/>
      <point x="81" y="593"/>
      <point x="76" y="558"/>
      <point x="76" y="537" type="curve" smooth="yes"/>
      <point x="76" y="501"/>
      <point x="94" y="475"/>
      <point x="123" y="450" type="curve"/>
    </contour>
  </outline>
</glyph>
<glyph name="uni1787" format="2">
  <advance width="718"/>
  <unicode hex="1787"/>
  <note>
uni1787
</note>
  <anchor x="360" y="860" name="abvm"/>
  <anchor x="361" y="830" name="abvm_high"/>
  <anchor x="364" y="0" name="blwm"/>
  <outline>
    <contour>
      <point x="269" y="336" type="line"/>
      <point x="89" y="336" type="line"/>
      <point x="89" y="0" type="line"/>
      <point x="262" y="0" type="line"/>
      <point x="364" y="61" type="line"/>
      <point x="466" y="0" type="line"/>
      <point x="639" y="0" type="line"/>
      <point x="639" y="428" type="line"/>
      <point x="459" y="428" type="line"/>
      <point x="459" y="127" type="line"/>
      <point x="364" y="189" type="line"/>
      <point x="269" y="127" type="line"/>
    </contour>
    <contour>
      <point x="269" y="284" type="line"/>
      <point x="269" y="444" type="line"/>
      <point x="197" y="487"/>
      <point x="163" y="507"/>
      <point x="163" y="524" type="curve" smooth="yes"/>
      <point x="163" y="529"/>
      <point x="166" y="535"/>
      <point x="171" y="540" type="curve" smooth="yes"/>
      <point x="176" y="545"/>
      <point x="182" y="548"/>
      <point x="188" y="548" type="curve" smooth="yes"/>
      <point x="193" y="548"/>
      <point x="213" y="537"/>
      <point x="233" y="526" type="curve" smooth="yes"/>
      <point x="280" y="500"/>
      <point x="349" y="473"/>
      <point x="421" y="473" type="curve" smooth="yes"/>
      <point x="554" y="473"/>
      <point x="643" y="560"/>
      <point x="643" y="660" type="curve" smooth="yes"/>
      <point x="643" y="755"/>
      <point x="567" y="813"/>
      <point x="498" y="813" type="curve" smooth="yes"/>
      <point x="440" y="813"/>
      <point x="407" y="771"/>
      <point x="417" y="702" type="curve"/>
      <point x="462" y="702"/>
      <point x="514" y="690"/>
      <point x="514" y="648" type="curve" smooth="yes"/>
      <point x="514" y="617"/>
      <point x="485" y="593"/>
      <point x="430" y="593" type="curve" smooth="yes"/>
      <point x="395" y="593"/>
      <point x="360" y="603"/>
      <point x="321" y="623" type="curve" smooth="yes"/>
      <point x="261" y="654"/>
      <point x="240" y="684"/>
      <point x="211" y="684" type="curve" smooth="yes"/>
      <point x="190" y="684"/>
      <point x="166" y="668"/>
      <point x="119" y="623" type="curve" smooth="yes"/>
      <point x="76" y="582"/>
      <point x="40" y="542"/>
      <point x="40" y="507" type="curve" smooth="yes"/>
      <point x="40" y="488"/>
      <point x="50" y="458"/>
      <point x="89" y="428" type="curve"/>
      <point x="89" y="284" type="line"/>
    </contour>
  </outline>
</glyph>
<glyph name="uni1788" format="2">
  <advance width="1441"/>
  <unicode hex="1788"/>
  <note>
uni1788
</note>
  <anchor x="1081" y="760" name="abvm"/>
  <anchor x="1082" y="0" name="blwm"/>
  <outline>
    <contour>
      <point x="94" y="295" type="line"/>
      <point x="274" y="295" type="line"/>
      <point x="274" y="463" type="line"/>
      <point x="186" y="510" type="line"/>
      <point x="228" y="551"/>
      <point x="269" y="580"/>
      <point x="332" y="580" type="curve" smooth="yes"/>
      <point x="382" y="580"/>
      <point x="413" y="562"/>
      <point x="434" y="541" type="curve" smooth="yes"/>
      <point x="458" y="516"/>
      <point x="466" y="488"/>
      <point x="466" y="463" type="curve" smooth="yes"/>
      <point x="466" y="146" type="line" smooth="yes"/>
      <point x="466" y="82"/>
      <point x="541" y="0"/>
      <point x="729" y="0" type="curve" smooth="yes"/>
      <point x="806" y="0"/>
      <point x="845" y="16"/>
      <point x="903" y="52" type="curve"/>
      <point x="947" y="18"/>
      <point x="1010" y="0"/>
      <point x="1077" y="0" type="curve" smooth="yes"/>
      <point x="1264" y="0"/>
      <point x="1341" y="82"/>
      <point x="1341" y="146" type="curve" smooth="yes"/>
      <point x="1341" y="420" type="line"/>
      <point x="1161" y="420" type="line"/>
      <point x="1161" y="176" type="line" smooth="yes"/>
      <point x="1161" y="139"/>
      <point x="1145" y="102"/>
      <point x="1077" y="102" type="curve" smooth="yes"/>
      <point x="1008" y="102"/>
      <point x="992" y="139"/>
      <point x="992" y="176" type="curve" smooth="yes"/>
      <point x="992" y="378" type="line"/>
      <point x="812" y="378" type="line"/>
      <point x="812" y="176" type="line" smooth="yes"/>
      <point x="812" y="139"/>
      <point x="798" y="102"/>
      <point x="729" y="102" type="curve" smooth="yes"/>
      <point x="660" y="102"/>
      <point x="646" y="139"/>
      <point x="646" y="176" type="curve" smooth="yes"/>
      <point x="646" y="463" type="line" smooth="yes"/>
      <point x="646" y="505"/>
      <point x="602" y="569"/>
      <point x="555" y="610" type="curve" smooth="yes"/>
      <point x="501" y="658"/>
      <point x="434" y="682"/>
      <point x="351" y="682" type="curve" smooth="yes"/>
      <point x="265" y="682"/>
      <point x="192" y="653"/>
      <point x="126" y="603" type="curve" smooth="yes"/>
      <point x="69" y="560"/>
      <point x="40" y="525"/>
      <point x="40" y="493" type="curve" smooth="yes"/>
      <point x="40" y="468"/>
      <point x="58" y="449"/>
      <point x="94" y="422" type="curve"/>
    </contour>
    <contour>
      <point x="992" y="330" type="line"/>
      <point x="992" y="449" type="line"/>
      <point x="866" y="514" type="line"/>
      <point x="880" y="535" type="line"/>
      <point x="935" y="510"/>
      <point x="954" y="505"/>
      <point x="969" y="505" type="curve" smooth="yes"/>
      <point x="1024" y="505"/>
      <point x="1052" y="568"/>
      <point x="1052" y="612" type="curve"/>
      <point x="999" y="612"/>
      <point x="947" y="643"/>
      <point x="866" y="680" type="curve"/>
      <point x="774" y="572"/>
      <point x="738" y="525"/>
      <point x="738" y="492" type="curve" smooth="yes"/>
      <point x="738" y="473"/>
      <point x="750" y="449"/>
      <point x="812" y="412" type="curve"/>
      <point x="812" y="330" type="line"/>
    </contour>
    <contour>
      <point x="94" y="317" type="line"/>
      <point x="94" y="0" type="line"/>
      <point x="274" y="0" type="line"/>
      <point x="356" y="46"/>
      <point x="408" y="95"/>
      <point x="408" y="167" type="curve" smooth="yes"/>
      <point x="408" y="235"/>
      <point x="363" y="281"/>
      <point x="274" y="275" type="curve"/>
      <point x="274" y="317" type="line"/>
    </contour>
    <contour>
      <point x="274" y="186" type="line"/>
      <point x="292" y="185"/>
      <point x="308" y="179"/>
      <point x="308" y="154" type="curve" smooth="yes"/>
      <point x="308" y="138"/>
      <point x="301" y="118"/>
      <point x="274" y="102" type="curve"/>
    </contour>
    <contour>
      <point x="1341" y="330" type="line"/>
      <point x="1341" y="449" type="line"/>
      <point x="1215" y="514" type="line"/>
      <point x="1229" y="535" type="line"/>
      <point x="1284" y="510"/>
      <point x="1303" y="505"/>
      <point x="1318" y="505" type="curve" smooth="yes"/>
      <point x="1373" y="505"/>
      <point x="1401" y="568"/>
      <point x="1401" y="612" type="curve"/>
      <point x="1348" y="612"/>
      <point x="1296" y="643"/>
      <point x="1215" y="680" type="curve"/>
      <point x="1123" y="572"/>
      <point x="1087" y="525"/>
      <point x="1087" y="492" type="curve" smooth="yes"/>
      <point x="1087" y="473"/>
      <point x="1099" y="449"/>
      <point x="1161" y="412" type="curve"/>
      <point x="1161" y="330" type="line"/>
    </contour>
  </outline>
</glyph>
<glyph name="uni1789" format="2">
  <advance width="1095"/>
  <unicode hex="1789"/>
  <note>
uni1789
</note>
  <anchor x="744" y="760" name="abvm"/>
  <anchor x="752" y="-302" name="blwm"/>
  <anchor x="577" y="0" name="blwm_self"/>
  <outline>
    <contour>
      <point x="792" y="-144" type="curve"/>
      <point x="825" y="-144"/>
      <point x="832" y="-162"/>
      <point x="832" y="-174" type="curve" smooth="yes"/>
      <point x="832" y="-196"/>
      <point x="809" y="-216"/>
      <point x="768" y="-216" type="curve" smooth="yes"/>
      <point x="728" y="-216"/>
      <point x="693" y="-198"/>
      <point x="607" y="-135" type="curve" smooth="yes"/>
      <point x="520" y="-72"/>
      <point x="434" y="-49"/>
      <point x="330" y="-49" type="curve" smooth="yes"/>
      <point x="222" y="-49"/>
      <point x="142" y="-78"/>
      <point x="100" y="-166" type="curve"/>
      <point x="120" y="-166" type="line"/>
      <point x="166" y="-135"/>
      <point x="226" y="-122"/>
      <point x="289" y="-122" type="curve" smooth="yes"/>
      <point x="394" y="-122"/>
      <point x="463" y="-158"/>
      <point x="541" y="-214" type="curve" smooth="yes"/>
      <point x="620" y="-271"/>
      <point x="699" y="-302"/>
      <point x="794" y="-302" type="curve" smooth="yes"/>
      <point x="958" y="-302"/>
      <point x="1005" y="-222"/>
      <point x="1005" y="-157" type="curve" smooth="yes"/>
      <point x="1005" y="-92"/>
      <point x="957" y="-62"/>
      <point x="899" y="-62" type="curve" smooth="yes"/>
      <point x="835" y="-62"/>
      <point x="792" y="-98"/>
    </contour>
    <contour>
      <point x="487" y="512" type="curve"/>
      <point x="487" y="0" type="line"/>
      <point x="667" y="0" type="line"/>
      <point x="667" y="491" type="line" smooth="yes"/>
      <point x="667" y="541"/>
      <point x="683" y="580"/>
      <point x="750" y="580" type="curve" smooth="yes"/>
      <point x="817" y="580"/>
      <point x="833" y="541"/>
      <point x="833" y="491" type="curve" smooth="yes"/>
      <point x="833" y="0" type="line"/>
      <point x="1013" y="0" type="line"/>
      <point x="1013" y="512" type="line" smooth="yes"/>
      <point x="1013" y="590"/>
      <point x="950" y="682"/>
      <point x="750" y="682" type="curve" smooth="yes"/>
      <point x="550" y="682"/>
      <point x="487" y="590"/>
    </contour>
    <contour>
      <point x="95" y="309" type="line"/>
      <point x="275" y="309" type="line"/>
      <point x="275" y="444" type="line"/>
      <point x="193" y="507"/>
      <point x="179" y="521"/>
      <point x="179" y="533" type="curve" smooth="yes"/>
      <point x="179" y="538"/>
      <point x="181" y="541"/>
      <point x="184" y="544" type="curve" smooth="yes"/>
      <point x="187" y="547"/>
      <point x="191" y="549"/>
      <point x="195" y="549" type="curve" smooth="yes"/>
      <point x="218" y="549"/>
      <point x="267" y="479"/>
      <point x="321" y="479" type="curve" smooth="yes"/>
      <point x="368" y="479"/>
      <point x="418" y="533"/>
      <point x="450" y="533" type="curve" smooth="yes"/>
      <point x="465" y="533"/>
      <point x="487" y="521"/>
      <point x="487" y="464" type="curve" smooth="yes"/>
      <point x="487" y="0" type="line"/>
      <point x="667" y="0" type="line"/>
      <point x="667" y="521" type="line" smooth="yes"/>
      <point x="667" y="602"/>
      <point x="607" y="682"/>
      <point x="534" y="682" type="curve" smooth="yes"/>
      <point x="501" y="682"/>
      <point x="457" y="664"/>
      <point x="424" y="643" type="curve" smooth="yes"/>
      <point x="398" y="627"/>
      <point x="370" y="604"/>
      <point x="356" y="604" type="curve" smooth="yes"/>
      <point x="343" y="604"/>
      <point x="317" y="626"/>
      <point x="292" y="647" type="curve" smooth="yes"/>
      <point x="275" y="661"/>
      <point x="250" y="682"/>
      <point x="221" y="682" type="curve" smooth="yes"/>
      <point x="194" y="682"/>
      <point x="163" y="665"/>
      <point x="122" y="630" type="curve" smooth="yes"/>
      <point x="81" y="595"/>
      <point x="46" y="554"/>
      <point x="46" y="528" type="curve" smooth="yes"/>
      <point x="46" y="510"/>
      <point x="62" y="484"/>
      <point x="95" y="450" type="curve"/>
    </contour>
    <contour>
      <point x="95" y="317" type="line"/>
      <point x="95" y="0" type="line"/>
      <point x="275" y="0" type="line"/>
      <point x="357" y="46"/>
      <point x="409" y="95"/>
      <point x="409" y="167" type="curve" smooth="yes"/>
      <point x="409" y="235"/>
      <point x="364" y="281"/>
      <point x="275" y="275" type="curve"/>
      <point x="275" y="317" type="line"/>
    </contour>
    <contour>
      <point x="275" y="186" type="line"/>
      <point x="293" y="185"/>
      <point x="309" y="179"/>
      <point x="309" y="154" type="curve" smooth="yes"/>
      <point x="309" y="138"/>
      <point x="302" y="118"/>
      <point x="275" y="102" type="curve"/>
    </contour>
  </outline>
</glyph>
<glyph name="uni178A" format="2">
  <advance width="737"/>
  <unicode hex="178A"/>
  <note>
uni178A
</note>
  <anchor x="355" y="840" name="abvm"/>
  <anchor x="355" y="805" name="abvm_high"/>
  <anchor x="355" y="0" name="blwm"/>
  <outline>
    <contour>
      <point x="92" y="451" type="line"/>
      <point x="92" y="0" type="line"/>
      <point x="265" y="0" type="line"/>
      <point x="367" y="56" type="line"/>
      <point x="469" y="0" type="line"/>
      <point x="642" y="0" type="line"/>
      <point x="642" y="416" type="line"/>
      <point x="462" y="416" type="line"/>
      <point x="462" y="117" type="line"/>
      <point x="367" y="169" type="line"/>
      <point x="272" y="117" type="line"/>
      <point x="272" y="400" type="line"/>
    </contour>
    <contour>
      <point x="250" y="616" type="curve" smooth="yes"/>
      <point x="250" y="592"/>
      <point x="231" y="574"/>
      <point x="218" y="567" type="curve"/>
      <point x="300" y="511" type="line"/>
      <point x="333" y="539"/>
      <point x="358" y="578"/>
      <point x="358" y="623" type="curve" smooth="yes"/>
      <point x="358" y="676"/>
      <point x="323" y="731"/>
      <point x="232" y="731" type="curve" smooth="yes"/>
      <point x="151" y="731"/>
      <point x="92" y="682"/>
      <point x="92" y="604" type="curve" smooth="yes"/>
      <point x="92" y="505"/>
      <point x="188" y="444"/>
      <point x="342" y="444" type="curve" smooth="yes"/>
      <point x="510" y="444"/>
      <point x="642" y="538"/>
      <point x="642" y="675" type="curve" smooth="yes"/>
      <point x="642" y="747"/>
      <point x="600" y="808"/>
      <point x="522" y="808" type="curve" smooth="yes"/>
      <point x="438" y="808"/>
      <point x="421" y="737"/>
      <point x="421" y="690" type="curve"/>
      <point x="469" y="690"/>
      <point x="478" y="659"/>
      <point x="478" y="639" type="curve" smooth="yes"/>
      <point x="478" y="603"/>
      <point x="449" y="546"/>
      <point x="342" y="546" type="curve" smooth="yes"/>
      <point x="254" y="546"/>
      <point x="208" y="583"/>
      <point x="208" y="616" type="curve" smooth="yes"/>
      <point x="208" y="630"/>
      <point x="216" y="642"/>
      <point x="230" y="642" type="curve" smooth="yes"/>
      <point x="243" y="642"/>
      <point x="250" y="631"/>
    </contour>
  </outline>
</glyph>
<glyph name="uni178C" format="2">
  <advance width="718"/>
  <unicode hex="178C"/>
  <note>
uni178C
</note>
  <anchor x="358" y="760" name="abvm"/>
  <anchor x="366" y="-49" name="blwm"/>
  <outline>
    <contour>
      <point x="84" y="531" type="line"/>
      <point x="264" y="531" type="line"/>
      <point x="264" y="539" type="line" smooth="yes"/>
      <point x="264" y="554"/>
      <point x="277" y="563"/>
      <point x="291" y="563" type="curve" smooth="yes"/>
      <point x="306" y="563"/>
      <point x="327" y="552"/>
      <point x="361" y="529" type="curve"/>
      <point x="395" y="552"/>
      <point x="416" y="563"/>
      <point x="430" y="563" type="curve" smooth="yes"/>
      <point x="450" y="563"/>
      <point x="458" y="543"/>
      <point x="458" y="511" type="curve" smooth="yes"/>
      <point x="458" y="463" type="line" smooth="yes"/>
      <point x="458" y="415"/>
      <point x="426" y="372"/>
      <point x="361" y="338" type="curve" smooth="yes"/>
      <point x="84" y="196" type="line"/>
      <point x="84" y="122" type="line" smooth="yes"/>
      <point x="84" y="36"/>
      <point x="150" y="0"/>
      <point x="232" y="0" type="curve" smooth="yes"/>
      <point x="294" y="0"/>
      <point x="329" y="23"/>
      <point x="375" y="53" type="curve" smooth="yes"/>
      <point x="425" y="86"/>
      <point x="446" y="93"/>
      <point x="458" y="94" type="curve"/>
      <point x="458" y="90" type="line" smooth="yes"/>
      <point x="458" y="55"/>
      <point x="446" y="41"/>
      <point x="425" y="30" type="curve"/>
      <point x="425" y="-2"/>
      <point x="458" y="-39"/>
      <point x="527" y="-39" type="curve" smooth="yes"/>
      <point x="602" y="-39"/>
      <point x="638" y="6"/>
      <point x="638" y="54" type="curve" smooth="yes"/>
      <point x="638" y="279" type="line"/>
      <point x="458" y="235" type="line"/>
      <point x="458" y="209" type="line"/>
      <point x="423" y="204"/>
      <point x="397" y="191"/>
      <point x="363" y="162" type="curve" smooth="yes"/>
      <point x="323" y="128"/>
      <point x="303" y="113"/>
      <point x="286" y="113" type="curve" smooth="yes"/>
      <point x="276" y="113"/>
      <point x="264" y="118"/>
      <point x="264" y="148" type="curve" smooth="yes"/>
      <point x="264" y="164" type="line"/>
      <point x="407" y="240" type="line" smooth="yes"/>
      <point x="562" y="322"/>
      <point x="638" y="423"/>
      <point x="638" y="463" type="curve" smooth="yes"/>
      <point x="638" y="536" type="line" smooth="yes"/>
      <point x="638" y="616"/>
      <point x="549" y="682"/>
      <point x="475" y="682" type="curve" smooth="yes"/>
      <point x="433" y="682"/>
      <point x="403" y="660"/>
      <point x="361" y="635" type="curve"/>
      <point x="320" y="660"/>
      <point x="290" y="682"/>
      <point x="255" y="682" type="curve" smooth="yes"/>
      <point x="195" y="682"/>
      <point x="84" y="616"/>
      <point x="84" y="536" type="curve" smooth="yes"/>
    </contour>
    <contour>
      <point x="264" y="533" type="line"/>
      <point x="84" y="533" type="line"/>
      <point x="84" y="427" type="line" smooth="yes"/>
      <point x="84" y="384"/>
      <point x="128" y="355"/>
      <point x="225" y="355" type="curve" smooth="yes"/>
      <point x="314" y="355"/>
      <point x="369" y="381"/>
      <point x="369" y="451" type="curve" smooth="yes"/>
      <point x="369" y="489"/>
      <point x="352" y="529"/>
      <point x="264" y="529" type="curve"/>
    </contour>
    <contour>
      <point x="264" y="471" type="line"/>
      <point x="280" y="471"/>
      <point x="290" y="466"/>
      <point x="290" y="446" type="curve" smooth="yes"/>
      <point x="290" y="429"/>
      <point x="282" y="421"/>
      <point x="264" y="421" type="curve"/>
    </contour>
  </outline>
</glyph>
<glyph name="uni178D" format="2">
  <advance width="1163"/>
  <unicode hex="178D"/>
  <note>
uni178D
</note>
  <anchor x="694" y="760" name="abvm"/>
  <anchor x="541" y="0" name="blwm"/>
  <outline>
    <contour>
      <point x="89" y="298" type="line"/>
      <point x="269" y="298" type="line"/>
      <point x="269" y="435" type="line"/>
      <point x="196" y="492"/>
      <point x="167" y="514"/>
      <point x="167" y="529" type="curve" smooth="yes"/>
      <point x="167" y="532"/>
      <point x="167" y="536"/>
      <point x="172" y="542" type="curve" smooth="yes"/>
      <point x="176" y="547"/>
      <point x="181" y="550"/>
      <point x="186" y="550" type="curve" smooth="yes"/>
      <point x="206" y="550"/>
      <point x="263" y="489"/>
      <point x="324" y="489" type="curve" smooth="yes"/>
      <point x="376" y="489"/>
      <point x="447" y="531"/>
      <point x="481" y="531" type="curve" smooth="yes"/>
      <point x="508" y="531"/>
      <point x="537" y="505"/>
      <point x="537" y="481" type="curve" smooth="yes"/>
      <point x="537" y="275" type="line"/>
      <point x="472" y="272"/>
      <point x="432" y="229"/>
      <point x="432" y="166" type="curve" smooth="yes"/>
      <point x="432" y="111"/>
      <point x="463" y="55"/>
      <point x="537" y="0" type="curve"/>
      <point x="717" y="0" type="line"/>
      <point x="717" y="165" type="line"/>
      <point x="734" y="138"/>
      <point x="741" y="114"/>
      <point x="765" y="80" type="curve" smooth="yes"/>
      <point x="799" y="30"/>
      <point x="841" y="0"/>
      <point x="910" y="0" type="curve" smooth="yes"/>
      <point x="989" y="0"/>
      <point x="1073" y="41"/>
      <point x="1073" y="147" type="curve" smooth="yes"/>
      <point x="1073" y="407" type="line"/>
      <point x="893" y="407" type="line"/>
      <point x="893" y="169" type="line" smooth="yes"/>
      <point x="893" y="143"/>
      <point x="885" y="118"/>
      <point x="865" y="118" type="curve" smooth="yes"/>
      <point x="843" y="118"/>
      <point x="828" y="148"/>
      <point x="812" y="181" type="curve" smooth="yes"/>
      <point x="790" y="226"/>
      <point x="771" y="264"/>
      <point x="717" y="275" type="curve"/>
      <point x="717" y="521" type="line" smooth="yes"/>
      <point x="717" y="578"/>
      <point x="682" y="617"/>
      <point x="644" y="646" type="curve" smooth="yes"/>
      <point x="611" y="671"/>
      <point x="584" y="682"/>
      <point x="567" y="682" type="curve" smooth="yes"/>
      <point x="540" y="682"/>
      <point x="509" y="658"/>
      <point x="477" y="639" type="curve" smooth="yes"/>
      <point x="438" y="616"/>
      <point x="402" y="602"/>
      <point x="377" y="602" type="curve" smooth="yes"/>
      <point x="352" y="602"/>
      <point x="329" y="620"/>
      <point x="300" y="643" type="curve" smooth="yes"/>
      <point x="275" y="663"/>
      <point x="250" y="682"/>
      <point x="224" y="682" type="curve" smooth="yes"/>
      <point x="194" y="682"/>
      <point x="157" y="658"/>
      <point x="118" y="626" type="curve" smooth="yes"/>
      <point x="77" y="593"/>
      <point x="40" y="554"/>
      <point x="40" y="529" type="curve" smooth="yes"/>
      <point x="40" y="513"/>
      <point x="56" y="483"/>
      <point x="89" y="449" type="curve"/>
    </contour>
    <contour>
      <point x="537" y="110" type="line"/>
      <point x="515" y="125"/>
      <point x="506" y="139"/>
      <point x="506" y="155" type="curve" smooth="yes"/>
      <point x="506" y="168"/>
      <point x="512" y="186"/>
      <point x="537" y="186" type="curve"/>
    </contour>
    <contour>
      <point x="89" y="317" type="line"/>
      <point x="89" y="0" type="line"/>
      <point x="269" y="0" type="line"/>
      <point x="351" y="46"/>
      <point x="403" y="95"/>
      <point x="403" y="167" type="curve" smooth="yes"/>
      <point x="403" y="235"/>
      <point x="358" y="281"/>
      <point x="269" y="275" type="curve"/>
      <point x="269" y="317" type="line"/>
    </contour>
    <contour>
      <point x="269" y="186" type="line"/>
      <point x="287" y="185"/>
      <point x="303" y="179"/>
      <point x="303" y="154" type="curve" smooth="yes"/>
      <point x="303" y="138"/>
      <point x="296" y="118"/>
      <point x="269" y="102" type="curve"/>
    </contour>
    <contour>
      <point x="1073" y="330" type="line"/>
      <point x="1073" y="449" type="line"/>
      <point x="947" y="514" type="line"/>
      <point x="961" y="535" type="line"/>
      <point x="1016" y="510"/>
      <point x="1035" y="505"/>
      <point x="1050" y="505" type="curve" smooth="yes"/>
      <point x="1105" y="505"/>
      <point x="1133" y="568"/>
      <point x="1133" y="612" type="curve"/>
      <point x="1080" y="612"/>
      <point x="1028" y="643"/>
      <point x="947" y="680" type="curve"/>
      <point x="855" y="572"/>
      <point x="819" y="525"/>
      <point x="819" y="492" type="curve" smooth="yes"/>
      <point x="819" y="473"/>
      <point x="831" y="449"/>
      <point x="893" y="412" type="curve"/>
      <point x="893" y="330" type="line"/>
    </contour>
  </outline>
</glyph>
<glyph name="uni178E" format="2">
  <advance width="1382"/>
  <unicode hex="178E"/>
  <note>
uni178E
</note>
  <anchor x="693" y="760" name="abvm"/>
  <anchor x="693" y="0" name="blwm"/>
  <outline>
    <contour>
      <point x="84" y="307" type="line"/>
      <point x="264" y="307" type="line"/>
      <point x="264" y="462" type="line"/>
      <point x="184" y="504" type="line"/>
      <point x="207" y="542"/>
      <point x="253" y="580"/>
      <point x="318" y="580" type="curve" smooth="yes"/>
      <point x="393" y="580"/>
      <point x="429" y="528"/>
      <point x="429" y="473" type="curve" smooth="yes"/>
      <point x="429" y="0" type="line"/>
      <point x="602" y="0" type="line"/>
      <point x="693" y="53" type="line"/>
      <point x="785" y="0" type="line"/>
      <point x="958" y="0" type="line"/>
      <point x="958" y="462" type="line"/>
      <point x="878" y="504" type="line"/>
      <point x="901" y="542"/>
      <point x="947" y="580"/>
      <point x="1012" y="580" type="curve" smooth="yes"/>
      <point x="1087" y="580"/>
      <point x="1122" y="528"/>
      <point x="1122" y="473" type="curve" smooth="yes"/>
      <point x="1122" y="0" type="line"/>
      <point x="1302" y="0" type="line"/>
      <point x="1302" y="442" type="line" smooth="yes"/>
      <point x="1302" y="509"/>
      <point x="1268" y="580"/>
      <point x="1203" y="627" type="curve" smooth="yes"/>
      <point x="1145" y="670"/>
      <point x="1081" y="682"/>
      <point x="1021" y="682" type="curve" smooth="yes"/>
      <point x="959" y="682"/>
      <point x="910" y="668"/>
      <point x="838" y="623" type="curve" smooth="yes"/>
      <point x="762" y="576"/>
      <point x="724" y="525"/>
      <point x="724" y="491" type="curve" smooth="yes"/>
      <point x="724" y="468"/>
      <point x="742" y="449"/>
      <point x="778" y="422" type="curve"/>
      <point x="778" y="127" type="line"/>
      <point x="693" y="180" type="line"/>
      <point x="609" y="127" type="line"/>
      <point x="609" y="442" type="line" smooth="yes"/>
      <point x="609" y="509"/>
      <point x="574" y="580"/>
      <point x="509" y="627" type="curve" smooth="yes"/>
      <point x="451" y="670"/>
      <point x="386" y="682"/>
      <point x="328" y="682" type="curve" smooth="yes"/>
      <point x="264" y="682"/>
      <point x="216" y="668"/>
      <point x="144" y="623" type="curve" smooth="yes"/>
      <point x="68" y="576"/>
      <point x="30" y="525"/>
      <point x="30" y="491" type="curve" smooth="yes"/>
      <point x="30" y="468"/>
      <point x="48" y="449"/>
      <point x="84" y="422" type="curve"/>
    </contour>
    <contour>
      <point x="84" y="317" type="line"/>
      <point x="84" y="0" type="line"/>
      <point x="264" y="0" type="line"/>
      <point x="346" y="46"/>
      <point x="398" y="95"/>
      <point x="398" y="167" type="curve" smooth="yes"/>
      <point x="398" y="235"/>
      <point x="353" y="281"/>
      <point x="264" y="275" type="curve"/>
      <point x="264" y="317" type="line"/>
    </contour>
    <contour>
      <point x="264" y="186" type="line"/>
      <point x="282" y="185"/>
      <point x="298" y="179"/>
      <point x="298" y="154" type="curve" smooth="yes"/>
      <point x="298" y="138"/>
      <point x="291" y="118"/>
      <point x="264" y="102" type="curve"/>
    </contour>
  </outline>
</glyph>
<glyph name="uni178F" format="2">
  <advance width="696"/>
  <unicode hex="178F"/>
  <note>
uni178F
</note>
  <anchor x="367" y="760" name="abvm"/>
  <anchor x="367" y="728" name="abvm_high"/>
  <anchor x="367" y="0" name="blwm"/>
  <outline>
    <contour>
      <point x="83" y="264" type="line"/>
      <point x="263" y="264" type="line"/>
      <point x="263" y="281" type="line" smooth="yes"/>
      <point x="263" y="336"/>
      <point x="290" y="357"/>
      <point x="351" y="357" type="curve" smooth="yes"/>
      <point x="406" y="357"/>
      <point x="438" y="338"/>
      <point x="438" y="281" type="curve" smooth="yes"/>
      <point x="438" y="0" type="line"/>
      <point x="618" y="0" type="line"/>
      <point x="618" y="336" type="line" smooth="yes"/>
      <point x="618" y="400"/>
      <point x="491" y="459"/>
      <point x="349" y="459" type="curve" smooth="yes"/>
      <point x="211" y="459"/>
      <point x="83" y="401"/>
      <point x="83" y="336" type="curve" smooth="yes"/>
    </contour>
    <contour>
      <point x="83" y="317" type="line"/>
      <point x="83" y="0" type="line"/>
      <point x="263" y="0" type="line"/>
      <point x="345" y="46"/>
      <point x="397" y="95"/>
      <point x="397" y="167" type="curve" smooth="yes"/>
      <point x="397" y="235"/>
      <point x="352" y="281"/>
      <point x="263" y="275" type="curve"/>
      <point x="263" y="317" type="line"/>
    </contour>
    <contour>
      <point x="263" y="186" type="line"/>
      <point x="281" y="185"/>
      <point x="297" y="179"/>
      <point x="297" y="154" type="curve" smooth="yes"/>
      <point x="297" y="138"/>
      <point x="290" y="118"/>
      <point x="263" y="102" type="curve"/>
    </contour>
    <contour>
      <point x="203" y="484" type="line"/>
      <point x="170" y="513"/>
      <point x="152" y="528"/>
      <point x="152" y="538" type="curve" smooth="yes"/>
      <point x="152" y="543"/>
      <point x="156" y="548"/>
      <point x="160" y="552" type="curve" smooth="yes"/>
      <point x="164" y="556"/>
      <point x="168" y="558"/>
      <point x="173" y="558" type="curve" smooth="yes"/>
      <point x="177" y="558"/>
      <point x="182" y="554"/>
      <point x="195" y="543" type="curve" smooth="yes"/>
      <point x="231" y="510"/>
      <point x="265" y="493"/>
      <point x="307" y="493" type="curve" smooth="yes"/>
      <point x="341" y="493"/>
      <point x="373" y="505"/>
      <point x="406" y="524" type="curve" smooth="yes"/>
      <point x="427" y="536"/>
      <point x="439" y="547"/>
      <point x="448" y="547" type="curve" smooth="yes"/>
      <point x="470" y="547"/>
      <point x="499" y="491"/>
      <point x="557" y="491" type="curve" smooth="yes"/>
      <point x="596" y="491"/>
      <point x="649" y="517"/>
      <point x="666" y="586" type="curve"/>
      <point x="632" y="582"/>
      <point x="608" y="585"/>
      <point x="574" y="616" type="curve" smooth="yes"/>
      <point x="542" y="646" type="line" smooth="yes"/>
      <point x="509" y="677"/>
      <point x="493" y="685"/>
      <point x="481" y="685" type="curve" smooth="yes"/>
      <point x="466" y="685"/>
      <point x="439" y="663"/>
      <point x="401" y="632" type="curve" smooth="yes"/>
      <point x="365" y="602"/>
      <point x="353" y="592"/>
      <point x="341" y="592" type="curve" smooth="yes"/>
      <point x="331" y="592"/>
      <point x="321" y="601"/>
      <point x="277" y="640" type="curve" smooth="yes"/>
      <point x="239" y="674"/>
      <point x="220" y="686"/>
      <point x="204" y="686" type="curve" smooth="yes"/>
      <point x="187" y="686"/>
      <point x="155" y="672"/>
      <point x="103" y="631" type="curve" smooth="yes"/>
      <point x="35" y="577"/>
      <point x="30" y="542"/>
      <point x="30" y="521" type="curve" smooth="yes"/>
      <point x="30" y="478"/>
      <point x="56" y="449"/>
      <point x="96" y="419" type="curve"/>
    </contour>
  </outline>
</glyph>
<glyph name="uni1790" format="2">
  <advance width="746"/>
  <unicode hex="1790"/>
  <note>
uni1790
</note>
  <anchor x="370" y="860" name="abvm"/>
  <anchor x="371" y="850" name="abvm_high"/>
  <anchor x="375" y="0" name="blwm"/>
  <outline>
    <contour>
      <point x="279" y="360" type="line"/>
      <point x="99" y="360" type="line"/>
      <point x="99" y="146" type="line" smooth="yes"/>
      <point x="99" y="60"/>
      <point x="209" y="0"/>
      <point x="375" y="0" type="curve" smooth="yes"/>
      <point x="541" y="0"/>
      <point x="651" y="60"/>
      <point x="651" y="146" type="curve" smooth="yes"/>
      <point x="651" y="188" type="line"/>
      <point x="471" y="188" type="line"/>
      <point x="471" y="171" type="line" smooth="yes"/>
      <point x="471" y="131"/>
      <point x="445" y="102"/>
      <point x="375" y="102" type="curve" smooth="yes"/>
      <point x="305" y="102"/>
      <point x="279" y="131"/>
      <point x="279" y="181" type="curve" smooth="yes"/>
    </contour>
    <contour>
      <point x="651" y="145" type="line"/>
      <point x="651" y="348" type="line" smooth="yes"/>
      <point x="651" y="412"/>
      <point x="619" y="441"/>
      <point x="536" y="441" type="curve" smooth="yes"/>
      <point x="413" y="441"/>
      <point x="347" y="374"/>
      <point x="347" y="294" type="curve" smooth="yes"/>
      <point x="347" y="184"/>
      <point x="463" y="176"/>
      <point x="471" y="176" type="curve"/>
      <point x="471" y="145" type="line"/>
    </contour>
    <contour>
      <point x="471" y="266" type="line"/>
      <point x="452" y="267"/>
      <point x="438" y="281"/>
      <point x="438" y="304" type="curve" smooth="yes"/>
      <point x="438" y="326"/>
      <point x="451" y="344"/>
      <point x="471" y="354" type="curve"/>
    </contour>
    <contour>
      <point x="279" y="284" type="line"/>
      <point x="279" y="444" type="line"/>
      <point x="207" y="487"/>
      <point x="173" y="507"/>
      <point x="173" y="524" type="curve" smooth="yes"/>
      <point x="173" y="529"/>
      <point x="176" y="535"/>
      <point x="181" y="540" type="curve" smooth="yes"/>
      <point x="186" y="545"/>
      <point x="192" y="548"/>
      <point x="198" y="548" type="curve" smooth="yes"/>
      <point x="203" y="548"/>
      <point x="223" y="537"/>
      <point x="243" y="526" type="curve" smooth="yes"/>
      <point x="290" y="500"/>
      <point x="359" y="473"/>
      <point x="431" y="473" type="curve" smooth="yes"/>
      <point x="564" y="473"/>
      <point x="653" y="560"/>
      <point x="653" y="660" type="curve" smooth="yes"/>
      <point x="653" y="755"/>
      <point x="577" y="813"/>
      <point x="508" y="813" type="curve" smooth="yes"/>
      <point x="450" y="813"/>
      <point x="417" y="771"/>
      <point x="427" y="702" type="curve"/>
      <point x="472" y="702"/>
      <point x="524" y="690"/>
      <point x="524" y="648" type="curve" smooth="yes"/>
      <point x="524" y="617"/>
      <point x="495" y="593"/>
      <point x="440" y="593" type="curve" smooth="yes"/>
      <point x="405" y="593"/>
      <point x="370" y="603"/>
      <point x="331" y="623" type="curve" smooth="yes"/>
      <point x="271" y="654"/>
      <point x="250" y="684"/>
      <point x="221" y="684" type="curve" smooth="yes"/>
      <point x="200" y="684"/>
      <point x="176" y="668"/>
      <point x="129" y="623" type="curve" smooth="yes"/>
      <point x="86" y="582"/>
      <point x="50" y="542"/>
      <point x="50" y="507" type="curve" smooth="yes"/>
      <point x="50" y="488"/>
      <point x="60" y="458"/>
      <point x="99" y="428" type="curve"/>
      <point x="99" y="284" type="line"/>
    </contour>
  </outline>
</glyph>
<glyph name="uni1792" format="2">
  <advance width="725"/>
  <unicode hex="1792"/>
  <note>
uni1792
</note>
  <anchor x="365" y="760" name="abvm"/>
  <anchor x="365" y="0" name="blwm"/>
  <outline>
    <contour>
      <point x="90" y="313" type="line"/>
      <point x="270" y="313" type="line"/>
      <point x="270" y="451" type="line"/>
      <point x="229" y="478"/>
      <point x="165" y="513"/>
      <point x="165" y="535" type="curve" smooth="yes"/>
      <point x="165" y="539"/>
      <point x="169" y="545"/>
      <point x="173" y="548" type="curve" smooth="yes"/>
      <point x="177" y="551"/>
      <point x="181" y="554"/>
      <point x="186" y="554" type="curve" smooth="yes"/>
      <point x="190" y="554"/>
      <point x="195" y="550"/>
      <point x="208" y="539" type="curve" smooth="yes"/>
      <point x="245" y="507"/>
      <point x="278" y="489"/>
      <point x="320" y="489" type="curve" smooth="yes"/>
      <point x="354" y="489"/>
      <point x="387" y="500"/>
      <point x="419" y="520" type="curve" smooth="yes"/>
      <point x="440" y="533"/>
      <point x="456" y="543"/>
      <point x="461" y="543" type="curve" smooth="yes"/>
      <point x="483" y="543"/>
      <point x="512" y="487"/>
      <point x="570" y="487" type="curve" smooth="yes"/>
      <point x="609" y="487"/>
      <point x="662" y="513"/>
      <point x="679" y="582" type="curve"/>
      <point x="635" y="573"/>
      <point x="621" y="581"/>
      <point x="587" y="612" type="curve" smooth="yes"/>
      <point x="555" y="642" type="line" smooth="yes"/>
      <point x="522" y="673"/>
      <point x="506" y="681"/>
      <point x="494" y="681" type="curve" smooth="yes"/>
      <point x="479" y="681"/>
      <point x="452" y="659"/>
      <point x="414" y="628" type="curve" smooth="yes"/>
      <point x="378" y="598"/>
      <point x="366" y="588"/>
      <point x="354" y="588" type="curve" smooth="yes"/>
      <point x="344" y="588"/>
      <point x="334" y="597"/>
      <point x="290" y="636" type="curve" smooth="yes"/>
      <point x="252" y="670"/>
      <point x="233" y="682"/>
      <point x="217" y="682" type="curve" smooth="yes"/>
      <point x="200" y="682"/>
      <point x="168" y="668"/>
      <point x="116" y="627" type="curve" smooth="yes"/>
      <point x="48" y="573"/>
      <point x="43" y="538"/>
      <point x="43" y="517" type="curve" smooth="yes"/>
      <point x="43" y="481"/>
      <point x="61" y="455"/>
      <point x="90" y="430" type="curve"/>
    </contour>
    <contour>
      <point x="270" y="430" type="line"/>
      <point x="90" y="430" type="line"/>
      <point x="90" y="0" type="line"/>
      <point x="263" y="0" type="line"/>
      <point x="365" y="56" type="line"/>
      <point x="469" y="0" type="line"/>
      <point x="642" y="0" type="line"/>
      <point x="642" y="197" type="line"/>
      <point x="462" y="197" type="line"/>
      <point x="462" y="117" type="line"/>
      <point x="365" y="169" type="line"/>
      <point x="270" y="117" type="line"/>
    </contour>
    <contour>
      <point x="642" y="146" type="line"/>
      <point x="642" y="349" type="line" smooth="yes"/>
      <point x="642" y="413"/>
      <point x="610" y="442"/>
      <point x="527" y="442" type="curve" smooth="yes"/>
      <point x="404" y="442"/>
      <point x="338" y="375"/>
      <point x="338" y="295" type="curve" smooth="yes"/>
      <point x="338" y="185"/>
      <point x="454" y="177"/>
      <point x="462" y="177" type="curve"/>
      <point x="462" y="146" type="line"/>
    </contour>
    <contour>
      <point x="462" y="267" type="line"/>
      <point x="443" y="268"/>
      <point x="429" y="282"/>
      <point x="429" y="305" type="curve" smooth="yes"/>
      <point x="429" y="327"/>
      <point x="442" y="345"/>
      <point x="462" y="355" type="curve"/>
    </contour>
  </outline>
</glyph>
<glyph name="uni1793" format="2">
  <advance width="734"/>
  <unicode hex="1793"/>
  <note>
uni1793
</note>
  <anchor x="367" y="760" name="abvm"/>
  <anchor x="367" y="0" name="blwm"/>
  <outline>
    <contour>
      <point x="464" y="534" type="line"/>
      <point x="644" y="534" type="line"/>
      <point x="644" y="543" type="line" smooth="yes"/>
      <point x="644" y="621"/>
      <point x="547" y="682"/>
      <point x="367" y="682" type="curve" smooth="yes"/>
      <point x="190" y="682"/>
      <point x="90" y="623"/>
      <point x="90" y="526" type="curve" smooth="yes"/>
      <point x="90" y="453" type="line" smooth="yes"/>
      <point x="90" y="401"/>
      <point x="169" y="304"/>
      <point x="295" y="261" type="curve" smooth="yes"/>
      <point x="464" y="204" type="line"/>
      <point x="464" y="155" type="line" smooth="yes"/>
      <point x="464" y="120"/>
      <point x="452" y="107"/>
      <point x="428" y="107" type="curve" smooth="yes"/>
      <point x="413" y="107"/>
      <point x="395" y="117"/>
      <point x="370" y="131" type="curve" smooth="yes"/>
      <point x="333" y="151"/>
      <point x="308" y="158"/>
      <point x="270" y="161" type="curve"/>
      <point x="270" y="225" type="line"/>
      <point x="90" y="269" type="line"/>
      <point x="90" y="0" type="line"/>
      <point x="270" y="0" type="line"/>
      <point x="270" y="59" type="line"/>
      <point x="295" y="57"/>
      <point x="318" y="47"/>
      <point x="351" y="33" type="curve" smooth="yes"/>
      <point x="397" y="13"/>
      <point x="427" y="0"/>
      <point x="475" y="0" type="curve" smooth="yes"/>
      <point x="585" y="0"/>
      <point x="644" y="63"/>
      <point x="644" y="132" type="curve" smooth="yes"/>
      <point x="644" y="261" type="line"/>
      <point x="365" y="356" type="line" smooth="yes"/>
      <point x="302" y="377"/>
      <point x="270" y="407"/>
      <point x="270" y="463" type="curve" smooth="yes"/>
      <point x="270" y="510" type="line" smooth="yes"/>
      <point x="270" y="562"/>
      <point x="283" y="580"/>
      <point x="371" y="580" type="curve" smooth="yes"/>
      <point x="419" y="580"/>
      <point x="464" y="574"/>
      <point x="464" y="546" type="curve" smooth="yes"/>
    </contour>
    <contour>
      <point x="464" y="543" type="line"/>
      <point x="464" y="539" type="line"/>
      <point x="376" y="536"/>
      <point x="359" y="493"/>
      <point x="359" y="457" type="curve" smooth="yes"/>
      <point x="359" y="390"/>
      <point x="414" y="365"/>
      <point x="503" y="365" type="curve" smooth="yes"/>
      <point x="600" y="365"/>
      <point x="644" y="394"/>
      <point x="644" y="437" type="curve" smooth="yes"/>
      <point x="644" y="543" type="line"/>
    </contour>
    <contour>
      <point x="464" y="481" type="curve"/>
      <point x="464" y="431" type="line"/>
      <point x="446" y="431"/>
      <point x="438" y="439"/>
      <point x="438" y="456" type="curve" smooth="yes"/>
      <point x="438" y="474"/>
      <point x="448" y="481"/>
    </contour>
  </outline>
</glyph>
<glyph name="uni1795" format="2">
  <advance width="736"/>
  <unicode hex="1795"/>
  <note>
uni1795
</note>
  <anchor x="360" y="860" name="abvm"/>
  <anchor x="361" y="820" name="abvm_high"/>
  <anchor x="375" y="0" name="blwm"/>
  <outline>
    <contour>
      <point x="269" y="284" type="line"/>
      <point x="269" y="444" type="line"/>
      <point x="197" y="487"/>
      <point x="163" y="507"/>
      <point x="163" y="524" type="curve" smooth="yes"/>
      <point x="163" y="529"/>
      <point x="166" y="535"/>
      <point x="171" y="540" type="curve" smooth="yes"/>
      <point x="176" y="545"/>
      <point x="182" y="548"/>
      <point x="188" y="548" type="curve" smooth="yes"/>
      <point x="193" y="548"/>
      <point x="213" y="537"/>
      <point x="233" y="526" type="curve" smooth="yes"/>
      <point x="280" y="500"/>
      <point x="349" y="473"/>
      <point x="421" y="473" type="curve" smooth="yes"/>
      <point x="554" y="473"/>
      <point x="643" y="560"/>
      <point x="643" y="660" type="curve" smooth="yes"/>
      <point x="643" y="755"/>
      <point x="567" y="813"/>
      <point x="498" y="813" type="curve" smooth="yes"/>
      <point x="440" y="813"/>
      <point x="407" y="771"/>
      <point x="417" y="702" type="curve"/>
      <point x="462" y="702"/>
      <point x="514" y="690"/>
      <point x="514" y="648" type="curve" smooth="yes"/>
      <point x="514" y="617"/>
      <point x="485" y="593"/>
      <point x="430" y="593" type="curve" smooth="yes"/>
      <point x="395" y="593"/>
      <point x="360" y="603"/>
      <point x="321" y="623" type="curve" smooth="yes"/>
      <point x="261" y="654"/>
      <point x="240" y="684"/>
      <point x="211" y="684" type="curve" smooth="yes"/>
      <point x="190" y="684"/>
      <point x="166" y="668"/>
      <point x="119" y="623" type="curve" smooth="yes"/>
      <point x="76" y="582"/>
      <point x="40" y="542"/>
      <point x="40" y="507" type="curve" smooth="yes"/>
      <point x="40" y="488"/>
      <point x="50" y="458"/>
      <point x="89" y="428" type="curve"/>
      <point x="89" y="284" type="line"/>
    </contour>
    <contour>
      <point x="269" y="430" type="line"/>
      <point x="89" y="430" type="line"/>
      <point x="89" y="0" type="line"/>
      <point x="262" y="0" type="line"/>
      <point x="364" y="56" type="line"/>
      <point x="468" y="0" type="line"/>
      <point x="641" y="0" type="line"/>
      <point x="641" y="197" type="line"/>
      <point x="461" y="197" type="line"/>
      <point x="461" y="117" type="line"/>
      <point x="364" y="169" type="line"/>
      <point x="269" y="117" type="line"/>
    </contour>
    <contour>
      <point x="641" y="146" type="line"/>
      <point x="641" y="349" type="line" smooth="yes"/>
      <point x="641" y="413"/>
      <point x="609" y="442"/>
      <point x="526" y="442" type="curve" smooth="yes"/>
      <point x="403" y="442"/>
      <point x="337" y="375"/>
      <point x="337" y="295" type="curve" smooth="yes"/>
      <point x="337" y="185"/>
      <point x="453" y="177"/>
      <point x="461" y="177" type="curve"/>
      <point x="461" y="146" type="line"/>
    </contour>
    <contour>
      <point x="461" y="267" type="line"/>
      <point x="442" y="268"/>
      <point x="428" y="282"/>
      <point x="428" y="305" type="curve" smooth="yes"/>
      <point x="428" y="327"/>
      <point x="441" y="345"/>
      <point x="461" y="355" type="curve"/>
    </contour>
  </outline>
</glyph>
<glyph name="uni1797" format="2">
  <advance width="799"/>
  <unicode hex="1797"/>
  <note>
uni1797
</note>
  <anchor x="437" y="760" name="abvm"/>
  <anchor x="433" y="704" name="abvm_high"/>
  <anchor x="437" y="0" name="blwm"/>
  <outline>
    <contour>
      <point x="173" y="262" type="line"/>
      <point x="353" y="262" type="line"/>
      <point x="353" y="291" type="line" smooth="yes"/>
      <point x="353" y="335"/>
      <point x="382" y="357"/>
      <point x="440" y="357" type="curve" smooth="yes"/>
      <point x="495" y="357"/>
      <point x="527" y="338"/>
      <point x="527" y="291" type="curve" smooth="yes"/>
      <point x="527" y="0" type="line"/>
      <point x="707" y="0" type="line"/>
      <point x="707" y="336" type="line" smooth="yes"/>
      <point x="707" y="400"/>
      <point x="580" y="459"/>
      <point x="440" y="459" type="curve" smooth="yes"/>
      <point x="304" y="459"/>
      <point x="173" y="401"/>
      <point x="173" y="336" type="curve" smooth="yes"/>
    </contour>
    <contour>
      <point x="353" y="282" type="line"/>
      <point x="173" y="282" type="line"/>
      <point x="173" y="275" type="line"/>
      <point x="96" y="273"/>
      <point x="41" y="220"/>
      <point x="41" y="145" type="curve" smooth="yes"/>
      <point x="41" y="68"/>
      <point x="101" y="17"/>
      <point x="173" y="0" type="curve"/>
      <point x="353" y="0" type="line"/>
    </contour>
    <contour>
      <point x="173" y="92" type="line"/>
      <point x="146" y="108"/>
      <point x="139" y="125"/>
      <point x="139" y="140" type="curve" smooth="yes"/>
      <point x="139" y="162"/>
      <point x="155" y="175"/>
      <point x="173" y="176" type="curve"/>
    </contour>
    <contour>
      <point x="283" y="484" type="line"/>
      <point x="250" y="513"/>
      <point x="232" y="528"/>
      <point x="232" y="538" type="curve" smooth="yes"/>
      <point x="232" y="543"/>
      <point x="236" y="548"/>
      <point x="240" y="552" type="curve" smooth="yes"/>
      <point x="244" y="556"/>
      <point x="248" y="558"/>
      <point x="253" y="558" type="curve" smooth="yes"/>
      <point x="257" y="558"/>
      <point x="262" y="554"/>
      <point x="275" y="543" type="curve" smooth="yes"/>
      <point x="311" y="510"/>
      <point x="345" y="493"/>
      <point x="387" y="493" type="curve" smooth="yes"/>
      <point x="421" y="493"/>
      <point x="453" y="505"/>
      <point x="486" y="524" type="curve" smooth="yes"/>
      <point x="507" y="536"/>
      <point x="519" y="547"/>
      <point x="528" y="547" type="curve" smooth="yes"/>
      <point x="550" y="547"/>
      <point x="579" y="491"/>
      <point x="637" y="491" type="curve" smooth="yes"/>
      <point x="676" y="491"/>
      <point x="729" y="517"/>
      <point x="746" y="586" type="curve"/>
      <point x="712" y="582"/>
      <point x="688" y="585"/>
      <point x="654" y="616" type="curve" smooth="yes"/>
      <point x="622" y="646" type="line" smooth="yes"/>
      <point x="589" y="677"/>
      <point x="573" y="685"/>
      <point x="561" y="685" type="curve" smooth="yes"/>
      <point x="546" y="685"/>
      <point x="519" y="663"/>
      <point x="481" y="632" type="curve" smooth="yes"/>
      <point x="445" y="602"/>
      <point x="433" y="592"/>
      <point x="421" y="592" type="curve" smooth="yes"/>
      <point x="411" y="592"/>
      <point x="401" y="601"/>
      <point x="357" y="640" type="curve" smooth="yes"/>
      <point x="319" y="674"/>
      <point x="300" y="686"/>
      <point x="284" y="686" type="curve" smooth="yes"/>
      <point x="267" y="686"/>
      <point x="235" y="672"/>
      <point x="183" y="631" type="curve" smooth="yes"/>
      <point x="115" y="577"/>
      <point x="110" y="542"/>
      <point x="110" y="521" type="curve" smooth="yes"/>
      <point x="110" y="478"/>
      <point x="136" y="449"/>
      <point x="176" y="419" type="curve"/>
    </contour>
  </outline>
</glyph>
<glyph name="uni1799" format="2">
  <advance width="1080"/>
  <unicode hex="1799"/>
  <note>
uni1799
</note>
  <anchor x="717" y="760" name="abvm"/>
  <anchor x="719" y="0" name="blwm"/>
  <outline>
    <contour>
      <point x="980" y="330" type="line"/>
      <point x="980" y="449" type="line"/>
      <point x="854" y="514" type="line"/>
      <point x="868" y="535" type="line"/>
      <point x="923" y="510"/>
      <point x="942" y="505"/>
      <point x="957" y="505" type="curve" smooth="yes"/>
      <point x="1012" y="505"/>
      <point x="1040" y="568"/>
      <point x="1040" y="612" type="curve"/>
      <point x="987" y="612"/>
      <point x="935" y="643"/>
      <point x="854" y="680" type="curve"/>
      <point x="762" y="572"/>
      <point x="726" y="525"/>
      <point x="726" y="492" type="curve" smooth="yes"/>
      <point x="726" y="473"/>
      <point x="738" y="449"/>
      <point x="800" y="412" type="curve"/>
      <point x="800" y="330" type="line"/>
    </contour>
    <contour>
      <point x="980" y="386" type="line"/>
      <point x="800" y="386" type="line"/>
      <point x="800" y="176" type="line" smooth="yes"/>
      <point x="800" y="139"/>
      <point x="786" y="102"/>
      <point x="722" y="102" type="curve" smooth="yes"/>
      <point x="658" y="102"/>
      <point x="644" y="139"/>
      <point x="644" y="176" type="curve" smooth="yes"/>
      <point x="644" y="386" type="line"/>
      <point x="464" y="386" type="line"/>
      <point x="464" y="176" type="line" smooth="yes"/>
      <point x="464" y="139"/>
      <point x="443" y="102"/>
      <point x="346" y="102" type="curve" smooth="yes"/>
      <point x="254" y="102"/>
      <point x="240" y="143"/>
      <point x="240" y="176" type="curve" smooth="yes"/>
      <point x="240" y="431" type="line"/>
      <point x="307" y="431"/>
      <point x="354" y="486"/>
      <point x="354" y="552" type="curve" smooth="yes"/>
      <point x="354" y="606"/>
      <point x="323" y="682"/>
      <point x="200" y="682" type="curve" smooth="yes"/>
      <point x="115" y="682"/>
      <point x="60" y="644"/>
      <point x="60" y="577" type="curve" smooth="yes"/>
      <point x="60" y="146" type="line" smooth="yes"/>
      <point x="60" y="82"/>
      <point x="147" y="0"/>
      <point x="326" y="0" type="curve" smooth="yes"/>
      <point x="410" y="0"/>
      <point x="507" y="16"/>
      <point x="553" y="62" type="curve"/>
      <point x="596" y="19"/>
      <point x="659" y="0"/>
      <point x="733" y="0" type="curve" smooth="yes"/>
      <point x="902" y="0"/>
      <point x="980" y="82"/>
      <point x="980" y="146" type="curve" smooth="yes"/>
    </contour>
    <contour>
      <point x="240" y="585" type="line"/>
      <point x="256" y="581"/>
      <point x="271" y="572"/>
      <point x="271" y="548" type="curve" smooth="yes"/>
      <point x="271" y="527"/>
      <point x="260" y="510"/>
      <point x="240" y="506" type="curve"/>
    </contour>
    <contour>
      <point x="644" y="330" type="line"/>
      <point x="644" y="449" type="line"/>
      <point x="518" y="514" type="line"/>
      <point x="532" y="535" type="line"/>
      <point x="587" y="510"/>
      <point x="606" y="505"/>
      <point x="621" y="505" type="curve" smooth="yes"/>
      <point x="676" y="505"/>
      <point x="704" y="568"/>
      <point x="704" y="612" type="curve"/>
      <point x="651" y="612"/>
      <point x="599" y="643"/>
      <point x="518" y="680" type="curve"/>
      <point x="426" y="572"/>
      <point x="390" y="525"/>
      <point x="390" y="492" type="curve" smooth="yes"/>
      <point x="390" y="473"/>
      <point x="402" y="449"/>
      <point x="464" y="412" type="curve"/>
      <point x="464" y="330" type="line"/>
    </contour>
  </outline>
</glyph>
<glyph name="uni179A" format="2">
  <advance width="446"/>
  <unicode hex="179A"/>
  <note>
uni179A
</note>
  <anchor x="236" y="760" name="abvm"/>
  <anchor x="247" y="0" name="blwm"/>
  <outline>
    <contour>
      <point x="358" y="426" type="line"/>
      <point x="178" y="426" type="line"/>
      <point x="178" y="275" type="line"/>
      <point x="101" y="273"/>
      <point x="46" y="220"/>
      <point x="46" y="145" type="curve" smooth="yes"/>
      <point x="46" y="68"/>
      <point x="106" y="17"/>
      <point x="178" y="0" type="curve"/>
      <point x="358" y="0" type="line"/>
    </contour>
    <contour>
      <point x="178" y="92" type="line"/>
      <point x="151" y="108"/>
      <point x="144" y="126"/>
      <point x="144" y="141" type="curve" smooth="yes"/>
      <point x="144" y="163"/>
      <point x="160" y="175"/>
      <point x="178" y="176" type="curve"/>
    </contour>
    <contour>
      <point x="358" y="330" type="line"/>
      <point x="358" y="449" type="line"/>
      <point x="232" y="514" type="line"/>
      <point x="246" y="535" type="line"/>
      <point x="301" y="510"/>
      <point x="320" y="505"/>
      <point x="335" y="505" type="curve" smooth="yes"/>
      <point x="390" y="505"/>
      <point x="418" y="568"/>
      <point x="418" y="612" type="curve"/>
      <point x="365" y="612"/>
      <point x="313" y="643"/>
      <point x="232" y="680" type="curve"/>
      <point x="140" y="572"/>
      <point x="104" y="525"/>
      <point x="104" y="492" type="curve" smooth="yes"/>
      <point x="104" y="473"/>
      <point x="116" y="449"/>
      <point x="178" y="412" type="curve"/>
      <point x="178" y="330" type="line"/>
    </contour>
  </outline>
</glyph>
<glyph name="uni179B" format="2">
  <advance width="1096"/>
  <unicode hex="179B"/>
  <note>
uni179B
</note>
  <anchor x="731" y="760" name="abvm"/>
  <anchor x="731" y="0" name="blwm"/>
  <outline>
    <contour>
      <point x="94" y="307" type="line"/>
      <point x="274" y="307" type="line"/>
      <point x="274" y="462" type="line"/>
      <point x="194" y="504" type="line"/>
      <point x="217" y="542"/>
      <point x="274" y="580"/>
      <point x="339" y="580" type="curve" smooth="yes"/>
      <point x="414" y="580"/>
      <point x="467" y="528"/>
      <point x="467" y="473" type="curve" smooth="yes"/>
      <point x="467" y="146" type="line" smooth="yes"/>
      <point x="467" y="82"/>
      <point x="544" y="0"/>
      <point x="731" y="0" type="curve" smooth="yes"/>
      <point x="920" y="0"/>
      <point x="996" y="82"/>
      <point x="996" y="146" type="curve" smooth="yes"/>
      <point x="996" y="389" type="line"/>
      <point x="816" y="389" type="line"/>
      <point x="816" y="176" type="line" smooth="yes"/>
      <point x="816" y="139"/>
      <point x="801" y="102"/>
      <point x="732" y="102" type="curve" smooth="yes"/>
      <point x="663" y="102"/>
      <point x="647" y="139"/>
      <point x="647" y="176" type="curve" smooth="yes"/>
      <point x="647" y="464" type="line" smooth="yes"/>
      <point x="647" y="531"/>
      <point x="592" y="583"/>
      <point x="552" y="613" type="curve" smooth="yes"/>
      <point x="476" y="671"/>
      <point x="404" y="682"/>
      <point x="348" y="682" type="curve" smooth="yes"/>
      <point x="282" y="682"/>
      <point x="226" y="668"/>
      <point x="154" y="623" type="curve" smooth="yes"/>
      <point x="78" y="576"/>
      <point x="40" y="527"/>
      <point x="40" y="493" type="curve" smooth="yes"/>
      <point x="40" y="470"/>
      <point x="58" y="449"/>
      <point x="94" y="422" type="curve"/>
    </contour>
    <contour>
      <point x="94" y="317" type="line"/>
      <point x="94" y="0" type="line"/>
      <point x="274" y="0" type="line"/>
      <point x="356" y="46"/>
      <point x="408" y="95"/>
      <point x="408" y="167" type="curve" smooth="yes"/>
      <point x="408" y="235"/>
      <point x="363" y="281"/>
      <point x="274" y="275" type="curve"/>
      <point x="274" y="317" type="line"/>
    </contour>
    <contour>
      <point x="274" y="186" type="line"/>
      <point x="292" y="185"/>
      <point x="308" y="179"/>
      <point x="308" y="154" type="curve" smooth="yes"/>
      <point x="308" y="138"/>
      <point x="301" y="118"/>
      <point x="274" y="102" type="curve"/>
    </contour>
    <contour>
      <point x="996" y="330" type="line"/>
      <point x="996" y="449" type="line"/>
      <point x="870" y="514" type="line"/>
      <point x="884" y="535" type="line"/>
      <point x="939" y="510"/>
      <point x="958" y="505"/>
      <point x="973" y="505" type="curve" smooth="yes"/>
      <point x="1028" y="505"/>
      <point x="1056" y="568"/>
      <point x="1056" y="612" type="curve"/>
      <point x="1003" y="612"/>
      <point x="951" y="643"/>
      <point x="870" y="680" type="curve"/>
      <point x="778" y="572"/>
      <point x="742" y="525"/>
      <point x="742" y="492" type="curve" smooth="yes"/>
      <point x="742" y="473"/>
      <point x="754" y="449"/>
      <point x="816" y="412" type="curve"/>
      <point x="816" y="330" type="line"/>
    </contour>
  </outline>
</glyph>
<glyph name="uni179C" format="2">
  <advance width="457"/>
  <unicode hex="179C"/>
  <note>
uni179C
</note>
  <anchor x="250" y="840" name="abvm"/>
  <anchor x="250" y="0" name="blwm"/>
  <outline>
    <contour>
      <point x="358" y="426" type="line"/>
      <point x="178" y="426" type="line"/>
      <point x="178" y="275" type="line"/>
      <point x="101" y="273"/>
      <point x="46" y="220"/>
      <point x="46" y="145" type="curve" smooth="yes"/>
      <point x="46" y="68"/>
      <point x="106" y="17"/>
      <point x="178" y="0" type="curve"/>
      <point x="358" y="0" type="line"/>
    </contour>
    <contour>
      <point x="178" y="92" type="line"/>
      <point x="151" y="108"/>
      <point x="144" y="126"/>
      <point x="144" y="141" type="curve" smooth="yes"/>
      <point x="144" y="163"/>
      <point x="160" y="175"/>
      <point x="178" y="176" type="curve"/>
    </contour>
    <contour>
      <point x="178" y="321" type="line"/>
      <point x="358" y="321" type="line"/>
      <point x="358" y="445" type="line"/>
      <point x="231" y="510" type="line"/>
      <point x="247" y="532" type="line"/>
      <point x="277" y="519"/>
      <point x="300" y="516"/>
      <point x="316" y="516" type="curve" smooth="yes"/>
      <point x="389" y="516"/>
      <point x="457" y="579"/>
      <point x="457" y="677" type="curve" smooth="yes"/>
      <point x="457" y="755"/>
      <point x="411" y="812"/>
      <point x="355" y="812" type="curve" smooth="yes"/>
      <point x="326" y="812"/>
      <point x="288" y="797"/>
      <point x="269" y="734" type="curve"/>
      <point x="306" y="734"/>
      <point x="339" y="707"/>
      <point x="339" y="680" type="curve" smooth="yes"/>
      <point x="339" y="662"/>
      <point x="324" y="647"/>
      <point x="300" y="647" type="curve" smooth="yes"/>
      <point x="278" y="647"/>
      <point x="255" y="659"/>
      <point x="232" y="680" type="curve"/>
      <point x="126" y="550"/>
      <point x="104" y="509"/>
      <point x="104" y="484" type="curve" smooth="yes"/>
      <point x="104" y="456"/>
      <point x="130" y="436"/>
      <point x="178" y="408" type="curve"/>
    </contour>
  </outline>
</glyph>
<glyph name="uni179F" format="2">
  <advance width="1088"/>
  <unicode hex="179F"/>
  <note>
uni179F
</note>
  <anchor x="731" y="760" name="abvm"/>
  <anchor x="727" y="0" name="blwm"/>
  <anchor x="534" y="0" name="blwm_nno"/>
  <outline>
    <contour>
      <point x="364" y="457" type="curve" smooth="yes"/>
      <point x="234" y="457"/>
      <point x="90" y="426"/>
      <point x="90" y="316" type="curve" smooth="yes"/>
      <point x="90" y="279" type="line"/>
      <point x="270" y="279" type="line"/>
      <point x="270" y="283" type="line" smooth="yes"/>
      <point x="270" y="326"/>
      <point x="300" y="355"/>
      <point x="364" y="355" type="curve" smooth="yes"/>
      <point x="426" y="355"/>
      <point x="462" y="331"/>
      <point x="462" y="283" type="curve" smooth="yes"/>
      <point x="462" y="146" type="line" smooth="yes"/>
      <point x="462" y="82"/>
      <point x="537" y="0"/>
      <point x="725" y="0" type="curve" smooth="yes"/>
      <point x="912" y="0"/>
      <point x="988" y="82"/>
      <point x="988" y="146" type="curve" smooth="yes"/>
      <point x="988" y="423" type="line"/>
      <point x="808" y="423" type="line"/>
      <point x="808" y="176" type="line" smooth="yes"/>
      <point x="808" y="139"/>
      <point x="794" y="102"/>
      <point x="725" y="102" type="curve" smooth="yes"/>
      <point x="656" y="102"/>
      <point x="642" y="139"/>
      <point x="642" y="176" type="curve" smooth="yes"/>
      <point x="642" y="316" type="line" smooth="yes"/>
      <point x="642" y="426"/>
      <point x="494" y="457"/>
    </contour>
    <contour>
      <point x="437" y="437" type="line"/>
      <point x="279" y="520" type="line"/>
      <point x="293" y="540" type="line"/>
      <point x="348" y="515"/>
      <point x="365" y="509"/>
      <point x="382" y="509" type="curve" smooth="yes"/>
      <point x="435" y="509"/>
      <point x="465" y="568"/>
      <point x="465" y="612" type="curve"/>
      <point x="412" y="612"/>
      <point x="360" y="643"/>
      <point x="279" y="680" type="curve"/>
      <point x="187" y="572"/>
      <point x="151" y="523"/>
      <point x="151" y="493" type="curve" smooth="yes"/>
      <point x="151" y="482"/>
      <point x="156" y="446"/>
      <point x="226" y="413" type="curve"/>
    </contour>
    <contour>
      <point x="90" y="317" type="line"/>
      <point x="90" y="0" type="line"/>
      <point x="270" y="0" type="line"/>
      <point x="352" y="46"/>
      <point x="404" y="95"/>
      <point x="404" y="167" type="curve" smooth="yes"/>
      <point x="404" y="235"/>
      <point x="359" y="281"/>
      <point x="270" y="275" type="curve"/>
      <point x="270" y="317" type="line"/>
    </contour>
    <contour>
      <point x="270" y="186" type="line"/>
      <point x="288" y="185"/>
      <point x="304" y="179"/>
      <point x="304" y="154" type="curve" smooth="yes"/>
      <point x="304" y="138"/>
      <point x="297" y="118"/>
      <point x="270" y="102" type="curve"/>
    </contour>
    <contour>
      <point x="988" y="330" type="line"/>
      <point x="988" y="449" type="line"/>
      <point x="862" y="514" type="line"/>
      <point x="876" y="535" type="line"/>
      <point x="931" y="510"/>
      <point x="950" y="505"/>
      <point x="965" y="505" type="curve" smooth="yes"/>
      <point x="1020" y="505"/>
      <point x="1048" y="568"/>
      <point x="1048" y="612" type="curve"/>
      <point x="995" y="612"/>
      <point x="943" y="643"/>
      <point x="862" y="680" type="curve"/>
      <point x="770" y="572"/>
      <point x="734" y="525"/>
      <point x="734" y="492" type="curve" smooth="yes"/>
      <point x="734" y="473"/>
      <point x="746" y="449"/>
      <point x="808" y="412" type="curve"/>
      <point x="808" y="330" type="line"/>
    </contour>
  </outline>
</glyph>
<glyph name="uni17A1" format="2">
  <advance width="1062"/>
  <unicode hex="17A1"/>
  <note>
uni17A1
</note>
  <anchor x="615" y="760" name="abvm"/>
  <anchor x="689" y="-320" name="blwm"/>
  <outline>
    <contour>
      <point x="952" y="330" type="line"/>
      <point x="952" y="449" type="line"/>
      <point x="826" y="514" type="line"/>
      <point x="840" y="535" type="line"/>
      <point x="895" y="510"/>
      <point x="914" y="505"/>
      <point x="929" y="505" type="curve" smooth="yes"/>
      <point x="984" y="505"/>
      <point x="1012" y="568"/>
      <point x="1012" y="612" type="curve"/>
      <point x="959" y="612"/>
      <point x="907" y="643"/>
      <point x="826" y="680" type="curve"/>
      <point x="734" y="572"/>
      <point x="698" y="525"/>
      <point x="698" y="492" type="curve" smooth="yes"/>
      <point x="698" y="473"/>
      <point x="710" y="449"/>
      <point x="772" y="412" type="curve"/>
      <point x="772" y="330" type="line"/>
    </contour>
    <contour>
      <point x="114" y="144" type="line"/>
      <point x="114" y="119" type="line" smooth="yes"/>
      <point x="114" y="57"/>
      <point x="168" y="0"/>
      <point x="316" y="0" type="curve" smooth="yes"/>
      <point x="464" y="0"/>
      <point x="518" y="57"/>
      <point x="518" y="119" type="curve" smooth="yes"/>
      <point x="518" y="177" type="line"/>
      <point x="601" y="186"/>
      <point x="632" y="243"/>
      <point x="632" y="283" type="curve" smooth="yes"/>
      <point x="632" y="315"/>
      <point x="613" y="366"/>
      <point x="522" y="366" type="curve" smooth="yes"/>
      <point x="421" y="366"/>
      <point x="363" y="311"/>
      <point x="338" y="269" type="curve"/>
      <point x="325" y="269" type="line" smooth="yes"/>
      <point x="284" y="269"/>
      <point x="240" y="311"/>
      <point x="240" y="395" type="curve" smooth="yes"/>
      <point x="240" y="498" type="line" smooth="yes"/>
      <point x="240" y="547"/>
      <point x="259" y="580"/>
      <point x="357" y="580" type="curve" smooth="yes"/>
      <point x="405" y="580"/>
      <point x="458" y="572"/>
      <point x="461" y="549" type="curve"/>
      <point x="387" y="549"/>
      <point x="360" y="517"/>
      <point x="360" y="470" type="curve" smooth="yes"/>
      <point x="360" y="424"/>
      <point x="386" y="384"/>
      <point x="484" y="384" type="curve" smooth="yes"/>
      <point x="610" y="384"/>
      <point x="638" y="459"/>
      <point x="638" y="505" type="curve" smooth="yes"/>
      <point x="638" y="529" type="line" smooth="yes"/>
      <point x="638" y="614"/>
      <point x="527" y="682"/>
      <point x="349" y="682" type="curve" smooth="yes"/>
      <point x="161" y="682"/>
      <point x="60" y="623"/>
      <point x="60" y="516" type="curve" smooth="yes"/>
      <point x="60" y="405" type="line" smooth="yes"/>
      <point x="60" y="280"/>
      <point x="193" y="177"/>
      <point x="331" y="177" type="curve" smooth="yes"/>
      <point x="338" y="177" type="line"/>
      <point x="338" y="137" type="line" smooth="yes"/>
      <point x="338" y="119"/>
      <point x="334" y="102"/>
      <point x="316" y="102" type="curve" smooth="yes"/>
      <point x="299" y="102"/>
      <point x="294" y="119"/>
      <point x="294" y="138" type="curve" smooth="yes"/>
      <point x="294" y="144" type="line"/>
    </contour>
    <contour>
      <point x="547" y="297" type="curve" smooth="yes"/>
      <point x="555" y="297"/>
      <point x="559" y="293"/>
      <point x="559" y="288" type="curve" smooth="yes"/>
      <point x="559" y="278"/>
      <point x="543" y="271"/>
      <point x="517" y="269" type="curve"/>
      <point x="521" y="280"/>
      <point x="531" y="297"/>
    </contour>
    <contour>
      <point x="461" y="448" type="line"/>
      <point x="444" y="448"/>
      <point x="436" y="457"/>
      <point x="436" y="473" type="curve" smooth="yes"/>
      <point x="436" y="494"/>
      <point x="450" y="497"/>
      <point x="461" y="497" type="curve"/>
    </contour>
    <contour>
      <point x="604" y="-174" type="line"/>
      <point x="424" y="-174" type="line"/>
      <point x="424" y="-317" type="line"/>
      <point x="606" y="-317" type="line"/>
      <point x="689" y="-248" type="line"/>
      <point x="771" y="-317" type="line"/>
      <point x="952" y="-317" type="line"/>
      <point x="952" y="388" type="line"/>
      <point x="772" y="388" type="line"/>
      <point x="772" y="-191" type="line"/>
      <point x="689" y="-121" type="line"/>
      <point x="604" y="-191" type="line"/>
    </contour>
    <contour>
      <point x="424" y="-215" type="line"/>
      <point x="604" y="-215" type="line"/>
      <point x="604" y="-130" type="line" smooth="yes"/>
      <point x="604" y="-87"/>
      <point x="577" y="-49"/>
      <point x="492" y="-49" type="curve" smooth="yes"/>
      <point x="426" y="-49"/>
      <point x="373" y="-81"/>
      <point x="373" y="-136" type="curve" smooth="yes"/>
      <point x="373" y="-176"/>
      <point x="400" y="-200"/>
      <point x="424" y="-206" type="curve"/>
    </contour>
  </outline>
</glyph>
<glyph name="uni17A2" format="2">
  <advance width="790"/>
  <unicode hex="17A2"/>
  <note>
uni17A2
</note>
  <anchor x="425" y="760" name="abvm"/>
  <anchor x="406" y="0" name="blwm"/>
  <outline>
    <contour>
      <point x="704" y="330" type="line"/>
      <point x="704" y="449" type="line"/>
      <point x="578" y="514" type="line"/>
      <point x="592" y="535" type="line"/>
      <point x="647" y="510"/>
      <point x="666" y="505"/>
      <point x="681" y="505" type="curve" smooth="yes"/>
      <point x="736" y="505"/>
      <point x="764" y="568"/>
      <point x="764" y="612" type="curve"/>
      <point x="711" y="612"/>
      <point x="659" y="643"/>
      <point x="578" y="680" type="curve"/>
      <point x="486" y="572"/>
      <point x="450" y="525"/>
      <point x="450" y="492" type="curve" smooth="yes"/>
      <point x="450" y="473"/>
      <point x="462" y="449"/>
      <point x="524" y="412" type="curve"/>
      <point x="524" y="330" type="line"/>
    </contour>
    <contour>
      <point x="524" y="259" type="line"/>
      <point x="704" y="259" type="line"/>
      <point x="704" y="420" type="line"/>
      <point x="524" y="420" type="line"/>
      <point x="524" y="399" type="line"/>
      <point x="332" y="399" type="line"/>
      <point x="332" y="420" type="line"/>
      <point x="152" y="420" type="line"/>
      <point x="152" y="259" type="line"/>
      <point x="332" y="259" type="line"/>
      <point x="332" y="297" type="line"/>
      <point x="524" y="297" type="line"/>
    </contour>
    <contour>
      <point x="332" y="330" type="line"/>
      <point x="332" y="449" type="line"/>
      <point x="206" y="514" type="line"/>
      <point x="220" y="535" type="line"/>
      <point x="275" y="510"/>
      <point x="294" y="505"/>
      <point x="309" y="505" type="curve" smooth="yes"/>
      <point x="364" y="505"/>
      <point x="392" y="568"/>
      <point x="392" y="612" type="curve"/>
      <point x="339" y="612"/>
      <point x="287" y="643"/>
      <point x="206" y="680" type="curve"/>
      <point x="114" y="572"/>
      <point x="78" y="525"/>
      <point x="78" y="492" type="curve" smooth="yes"/>
      <point x="78" y="473"/>
      <point x="90" y="449"/>
      <point x="152" y="412" type="curve"/>
      <point x="152" y="330" type="line"/>
    </contour>
    <contour>
      <point x="704" y="426" type="line"/>
      <point x="524" y="426" type="line"/>
      <point x="524" y="275" type="line"/>
      <point x="447" y="273"/>
      <point x="392" y="220"/>
      <point x="392" y="145" type="curve" smooth="yes"/>
      <point x="392" y="68"/>
      <point x="452" y="17"/>
      <point x="524" y="0" type="curve"/>
      <point x="704" y="0" type="line"/>
    </contour>
    <contour>
      <point x="524" y="92" type="line"/>
      <point x="497" y="108"/>
      <point x="490" y="126"/>
      <point x="490" y="141" type="curve" smooth="yes"/>
      <point x="490" y="163"/>
      <point x="506" y="175"/>
      <point x="524" y="176" type="curve"/>
    </contour>
    <contour>
      <point x="332" y="426" type="line"/>
      <point x="152" y="426" type="line"/>
      <point x="152" y="275" type="line"/>
      <point x="75" y="273"/>
      <point x="20" y="220"/>
      <point x="20" y="145" type="curve" smooth="yes"/>
      <point x="20" y="68"/>
      <point x="80" y="17"/>
      <point x="152" y="0" type="curve"/>
      <point x="332" y="0" type="line"/>
    </contour>
    <contour>
      <point x="152" y="92" type="line"/>
      <point x="125" y="108"/>
      <point x="118" y="126"/>
      <point x="118" y="141" type="curve" smooth="yes"/>
      <point x="118" y="163"/>
      <point x="134" y="175"/>
      <point x="152" y="176" type="curve"/>
    </contour>
  </outline>
</glyph>
<glyph name="uni17A5" format="2">
  <advance width="708"/>
  <unicode hex="17A5"/>
  <note>
uni17A5
</note>
  <outline>
    <contour>
      <point x="77" y="280" type="line"/>
      <point x="257" y="280" type="line"/>
      <point x="257" y="337" type="line" smooth="yes"/>
      <point x="257" y="391"/>
      <point x="286" y="411"/>
      <point x="354" y="411" type="curve" smooth="yes"/>
      <point x="419" y="411"/>
      <point x="451" y="393"/>
      <point x="451" y="337" type="curve" smooth="yes"/>
      <point x="451" y="0" type="line"/>
      <point x="631" y="0" type="line"/>
      <point x="631" y="386" type="line" smooth="yes"/>
      <point x="631" y="451"/>
      <point x="502" y="513"/>
      <point x="354" y="513" type="curve" smooth="yes"/>
      <point x="208" y="513"/>
      <point x="77" y="452"/>
      <point x="77" y="386" type="curve" smooth="yes"/>
    </contour>
    <contour>
      <point x="77" y="317" type="line"/>
      <point x="77" y="0" type="line"/>
      <point x="257" y="0" type="line"/>
      <point x="339" y="46"/>
      <point x="391" y="95"/>
      <point x="391" y="167" type="curve" smooth="yes"/>
      <point x="391" y="235"/>
      <point x="346" y="281"/>
      <point x="257" y="275" type="curve"/>
      <point x="257" y="317" type="line"/>
    </contour>
    <contour>
      <point x="257" y="186" type="line"/>
      <point x="275" y="185"/>
      <point x="291" y="179"/>
      <point x="291" y="154" type="curve" smooth="yes"/>
      <point x="291" y="138"/>
      <point x="284" y="118"/>
      <point x="257" y="102" type="curve"/>
    </contour>
    <contour>
      <point x="99" y="461" type="curve"/>
      <point x="214" y="523" type="line"/>
      <point x="203" y="531"/>
      <point x="199" y="539"/>
      <point x="199" y="548" type="curve" smooth="yes"/>
      <point x="199" y="562"/>
      <point x="209" y="575"/>
      <point x="222" y="585" type="curve" smooth="yes"/>
      <point x="235" y="595"/>
      <point x="249" y="600"/>
      <point x="263" y="600" type="curve" smooth="yes"/>
      <point x="281" y="600"/>
      <point x="300" y="591"/>
      <point x="329" y="571" type="curve" smooth="yes"/>
      <point x="365" y="547"/>
      <point x="397" y="520"/>
      <point x="467" y="520" type="curve" smooth="yes"/>
      <point x="612" y="520"/>
      <point x="655" y="628"/>
      <point x="655" y="697" type="curve" smooth="yes"/>
      <point x="655" y="781"/>
      <point x="596" y="850"/>
      <point x="521" y="850" type="curve" smooth="yes"/>
      <point x="460" y="850"/>
      <point x="436" y="810"/>
      <point x="436" y="739" type="curve"/>
      <point x="478" y="739"/>
      <point x="541" y="731"/>
      <point x="541" y="682" type="curve" smooth="yes"/>
      <point x="541" y="655"/>
      <point x="521" y="632"/>
      <point x="484" y="632" type="curve" smooth="yes"/>
      <point x="449" y="632"/>
      <point x="430" y="652"/>
      <point x="392" y="678" type="curve" smooth="yes"/>
      <point x="340" y="714"/>
      <point x="311" y="732"/>
      <point x="279" y="732" type="curve" smooth="yes"/>
      <point x="236" y="732"/>
      <point x="188" y="699"/>
      <point x="141" y="659" type="curve" smooth="yes"/>
      <point x="96" y="620"/>
      <point x="59" y="583"/>
      <point x="59" y="538" type="curve" smooth="yes"/>
      <point x="59" y="509"/>
      <point x="74" y="484"/>
    </contour>
  </outline>
</glyph>
<glyph name="uni17A6" format="2">
  <advance width="1086"/>
  <unicode hex="17A6"/>
  <note>
uni17A6
</note>
  <outline>
    <contour>
      <point x="797" y="343" type="line"/>
      <point x="797" y="-140" type="line" smooth="yes"/>
      <point x="797" y="-175"/>
      <point x="771" y="-215"/>
      <point x="701" y="-215" type="curve" smooth="yes"/>
      <point x="631" y="-215"/>
      <point x="605" y="-175"/>
      <point x="605" y="-140" type="curve" smooth="yes"/>
      <point x="605" y="-85"/>
      <point x="525" y="-24"/>
      <point x="354" y="-24" type="curve" smooth="yes"/>
      <point x="183" y="-24"/>
      <point x="103" y="-106"/>
      <point x="103" y="-171" type="curve" smooth="yes"/>
      <point x="103" y="-269" type="line" smooth="yes"/>
      <point x="103" y="-301"/>
      <point x="153" y="-317"/>
      <point x="211" y="-317" type="curve" smooth="yes"/>
      <point x="292" y="-317"/>
      <point x="317" y="-284"/>
      <point x="317" y="-244" type="curve" smooth="yes"/>
      <point x="317" y="-210"/>
      <point x="299" y="-197"/>
      <point x="283" y="-195" type="curve"/>
      <point x="283" y="-177" type="line" smooth="yes"/>
      <point x="283" y="-155"/>
      <point x="301" y="-126"/>
      <point x="354" y="-126" type="curve" smooth="yes"/>
      <point x="407" y="-126"/>
      <point x="425" y="-155"/>
      <point x="425" y="-177" type="curve" smooth="yes"/>
      <point x="425" y="-270"/>
      <point x="525" y="-317"/>
      <point x="696" y="-317" type="curve" smooth="yes"/>
      <point x="929" y="-317"/>
      <point x="977" y="-219"/>
      <point x="977" y="-140" type="curve" smooth="yes"/>
      <point x="977" y="343" type="line"/>
    </contour>
    <contour>
      <point x="77" y="290" type="line"/>
      <point x="257" y="290" type="line"/>
      <point x="257" y="506" type="line" smooth="yes"/>
      <point x="257" y="560"/>
      <point x="286" y="580"/>
      <point x="354" y="580" type="curve" smooth="yes"/>
      <point x="419" y="580"/>
      <point x="451" y="562"/>
      <point x="451" y="506" type="curve" smooth="yes"/>
      <point x="451" y="0" type="line"/>
      <point x="631" y="0" type="line"/>
      <point x="631" y="555" type="line" smooth="yes"/>
      <point x="631" y="620"/>
      <point x="502" y="682"/>
      <point x="354" y="682" type="curve" smooth="yes"/>
      <point x="208" y="682"/>
      <point x="77" y="621"/>
      <point x="77" y="555" type="curve" smooth="yes"/>
    </contour>
    <contour>
      <point x="797" y="321" type="line"/>
      <point x="977" y="321" type="line"/>
      <point x="977" y="445" type="line"/>
      <point x="850" y="510" type="line"/>
      <point x="866" y="532" type="line"/>
      <point x="896" y="519"/>
      <point x="919" y="516"/>
      <point x="935" y="516" type="curve" smooth="yes"/>
      <point x="1008" y="516"/>
      <point x="1076" y="579"/>
      <point x="1076" y="677" type="curve" smooth="yes"/>
      <point x="1076" y="755"/>
      <point x="1030" y="812"/>
      <point x="974" y="812" type="curve" smooth="yes"/>
      <point x="945" y="812"/>
      <point x="907" y="797"/>
      <point x="888" y="734" type="curve"/>
      <point x="925" y="734"/>
      <point x="958" y="707"/>
      <point x="958" y="680" type="curve" smooth="yes"/>
      <point x="958" y="662"/>
      <point x="943" y="647"/>
      <point x="919" y="647" type="curve" smooth="yes"/>
      <point x="897" y="647"/>
      <point x="874" y="659"/>
      <point x="851" y="680" type="curve"/>
      <point x="745" y="550"/>
      <point x="723" y="509"/>
      <point x="723" y="484" type="curve" smooth="yes"/>
      <point x="723" y="456"/>
      <point x="749" y="436"/>
      <point x="797" y="408" type="curve"/>
    </contour>
    <contour>
      <point x="77" y="317" type="line"/>
      <point x="77" y="0" type="line"/>
      <point x="257" y="0" type="line"/>
      <point x="339" y="46"/>
      <point x="391" y="95"/>
      <point x="391" y="167" type="curve" smooth="yes"/>
      <point x="391" y="235"/>
      <point x="346" y="281"/>
      <point x="257" y="275" type="curve"/>
      <point x="257" y="317" type="line"/>
    </contour>
    <contour>
      <point x="257" y="186" type="line"/>
      <point x="275" y="185"/>
      <point x="291" y="179"/>
      <point x="291" y="154" type="curve" smooth="yes"/>
      <point x="291" y="138"/>
      <point x="284" y="118"/>
      <point x="257" y="102" type="curve"/>
    </contour>
  </outline>
</glyph>
<glyph name="uni17A8" format="2">
  <advance width="708"/>
  <unicode hex="17A8"/>
  <note>
uni17A8
</note>
  <anchor x="348" y="942" name="abvm"/>
  <anchor x="357" y="-49" name="blwm"/>
  <outline>
    <contour>
      <point x="79" y="529" type="line"/>
      <point x="259" y="530" type="line"/>
      <point x="259" y="532" type="line" smooth="yes"/>
      <point x="259" y="568"/>
      <point x="289" y="580"/>
      <point x="354" y="580" type="curve" smooth="yes"/>
      <point x="422" y="580"/>
      <point x="451" y="566"/>
      <point x="451" y="505" type="curve" smooth="yes"/>
      <point x="451" y="463" type="line" smooth="yes"/>
      <point x="451" y="415"/>
      <point x="419" y="372"/>
      <point x="354" y="338" type="curve" smooth="yes"/>
      <point x="79" y="197" type="line"/>
      <point x="79" y="122" type="line" smooth="yes"/>
      <point x="79" y="36"/>
      <point x="149" y="0"/>
      <point x="222" y="0" type="curve" smooth="yes"/>
      <point x="278" y="0"/>
      <point x="321" y="22"/>
      <point x="367" y="53" type="curve" smooth="yes"/>
      <point x="422" y="89"/>
      <point x="436" y="98"/>
      <point x="451" y="98" type="curve"/>
      <point x="451" y="71" type="line" smooth="yes"/>
      <point x="451" y="35"/>
      <point x="438" y="21"/>
      <point x="417" y="10" type="curve"/>
      <point x="417" y="-13"/>
      <point x="448" y="-49"/>
      <point x="513" y="-49" type="curve" smooth="yes"/>
      <point x="592" y="-49"/>
      <point x="629" y="6"/>
      <point x="629" y="54" type="curve" smooth="yes"/>
      <point x="629" y="279" type="line"/>
      <point x="451" y="235" type="line"/>
      <point x="451" y="209" type="line"/>
      <point x="412" y="203"/>
      <point x="389" y="188"/>
      <point x="355" y="161" type="curve" smooth="yes"/>
      <point x="314" y="129"/>
      <point x="297" y="111"/>
      <point x="280" y="111" type="curve" smooth="yes"/>
      <point x="271" y="111"/>
      <point x="257" y="116"/>
      <point x="257" y="151" type="curve" smooth="yes"/>
      <point x="257" y="165" type="line"/>
      <point x="400" y="239" type="line" smooth="yes"/>
      <point x="555" y="318"/>
      <point x="629" y="420"/>
      <point x="629" y="463" type="curve" smooth="yes"/>
      <point x="629" y="536" type="line" smooth="yes"/>
      <point x="629" y="621"/>
      <point x="524" y="682"/>
      <point x="355" y="682" type="curve" smooth="yes"/>
      <point x="188" y="682"/>
      <point x="79" y="623"/>
      <point x="79" y="536" type="curve" smooth="yes"/>
    </contour>
    <contour>
      <point x="259" y="533" type="line"/>
      <point x="79" y="533" type="line"/>
      <point x="79" y="427" type="line" smooth="yes"/>
      <point x="79" y="384"/>
      <point x="123" y="355"/>
      <point x="220" y="355" type="curve" smooth="yes"/>
      <point x="309" y="355"/>
      <point x="364" y="381"/>
      <point x="364" y="451" type="curve" smooth="yes"/>
      <point x="364" y="489"/>
      <point x="347" y="529"/>
      <point x="259" y="529" type="curve"/>
    </contour>
    <contour>
      <point x="259" y="471" type="line"/>
      <point x="275" y="471"/>
      <point x="285" y="466"/>
      <point x="285" y="446" type="curve" smooth="yes"/>
      <point x="285" y="429"/>
      <point x="277" y="421"/>
      <point x="259" y="421" type="curve"/>
    </contour>
    <contour>
      <point x="215" y="701" type="line"/>
      <point x="182" y="730"/>
      <point x="164" y="745"/>
      <point x="164" y="755" type="curve" smooth="yes"/>
      <point x="164" y="760"/>
      <point x="168" y="765"/>
      <point x="172" y="769" type="curve" smooth="yes"/>
      <point x="176" y="773"/>
      <point x="180" y="775"/>
      <point x="185" y="775" type="curve" smooth="yes"/>
      <point x="189" y="775"/>
      <point x="194" y="771"/>
      <point x="207" y="760" type="curve" smooth="yes"/>
      <point x="243" y="727"/>
      <point x="277" y="710"/>
      <point x="319" y="710" type="curve" smooth="yes"/>
      <point x="353" y="710"/>
      <point x="385" y="722"/>
      <point x="418" y="741" type="curve" smooth="yes"/>
      <point x="439" y="753"/>
      <point x="451" y="764"/>
      <point x="460" y="764" type="curve" smooth="yes"/>
      <point x="482" y="764"/>
      <point x="511" y="708"/>
      <point x="569" y="708" type="curve" smooth="yes"/>
      <point x="608" y="708"/>
      <point x="661" y="734"/>
      <point x="678" y="803" type="curve"/>
      <point x="644" y="799"/>
      <point x="620" y="802"/>
      <point x="586" y="833" type="curve" smooth="yes"/>
      <point x="554" y="863" type="line" smooth="yes"/>
      <point x="521" y="894"/>
      <point x="505" y="902"/>
      <point x="493" y="902" type="curve" smooth="yes"/>
      <point x="478" y="902"/>
      <point x="451" y="880"/>
      <point x="413" y="849" type="curve" smooth="yes"/>
      <point x="377" y="819"/>
      <point x="365" y="809"/>
      <point x="353" y="809" type="curve" smooth="yes"/>
      <point x="343" y="809"/>
      <point x="333" y="818"/>
      <point x="289" y="857" type="curve" smooth="yes"/>
      <point x="251" y="891"/>
      <point x="232" y="903"/>
      <point x="216" y="903" type="curve" smooth="yes"/>
      <point x="199" y="903"/>
      <point x="167" y="889"/>
      <point x="115" y="848" type="curve" smooth="yes"/>
      <point x="47" y="794"/>
      <point x="42" y="759"/>
      <point x="42" y="738" type="curve" smooth="yes"/>
      <point x="42" y="695"/>
      <point x="68" y="666"/>
      <point x="108" y="636" type="curve"/>
    </contour>
  </outline>
</glyph>
<glyph name="uni17AB" format="2">
  <advance width="720"/>
  <unicode hex="17AB"/>
  <note>
uni17AB
</note>
  <anchor x="338" y="760" name="abvm"/>
  <anchor x="370" y="0" name="blwm"/>
  <outline>
    <contour>
      <point x="636" y="399" type="line"/>
      <point x="456" y="399" type="line"/>
      <point x="456" y="176" type="line" smooth="yes"/>
      <point x="456" y="122"/>
      <point x="429" y="102"/>
      <point x="369" y="102" type="curve" smooth="yes"/>
      <point x="312" y="102"/>
      <point x="284" y="120"/>
      <point x="284" y="176" type="curve" smooth="yes"/>
      <point x="284" y="399" type="line"/>
      <point x="104" y="399" type="line"/>
      <point x="104" y="146" type="line" smooth="yes"/>
      <point x="104" y="61"/>
      <point x="208" y="0"/>
      <point x="369" y="0" type="curve" smooth="yes"/>
      <point x="527" y="0"/>
      <point x="636" y="60"/>
      <point x="636" y="146" type="curve" smooth="yes"/>
    </contour>
    <contour>
      <point x="284" y="330" type="line"/>
      <point x="284" y="449" type="line"/>
      <point x="158" y="514" type="line"/>
      <point x="172" y="535" type="line"/>
      <point x="227" y="510"/>
      <point x="246" y="505"/>
      <point x="261" y="505" type="curve" smooth="yes"/>
      <point x="316" y="505"/>
      <point x="344" y="568"/>
      <point x="344" y="612" type="curve"/>
      <point x="291" y="612"/>
      <point x="239" y="643"/>
      <point x="158" y="680" type="curve"/>
      <point x="66" y="572"/>
      <point x="30" y="525"/>
      <point x="30" y="492" type="curve" smooth="yes"/>
      <point x="30" y="473"/>
      <point x="42" y="449"/>
      <point x="104" y="412" type="curve"/>
      <point x="104" y="330" type="line"/>
    </contour>
    <contour>
      <point x="636" y="330" type="line"/>
      <point x="636" y="449" type="line"/>
      <point x="510" y="514" type="line"/>
      <point x="524" y="535" type="line"/>
      <point x="579" y="510"/>
      <point x="598" y="505"/>
      <point x="613" y="505" type="curve" smooth="yes"/>
      <point x="668" y="505"/>
      <point x="696" y="568"/>
      <point x="696" y="612" type="curve"/>
      <point x="643" y="612"/>
      <point x="591" y="643"/>
      <point x="510" y="680" type="curve"/>
      <point x="418" y="572"/>
      <point x="382" y="525"/>
      <point x="382" y="492" type="curve" smooth="yes"/>
      <point x="382" y="473"/>
      <point x="394" y="449"/>
      <point x="456" y="412" type="curve"/>
      <point x="456" y="330" type="line"/>
    </contour>
    <contour>
      <point x="619" y="-124" type="curve" smooth="yes"/>
      <point x="619" y="-77"/>
      <point x="591" y="-35"/>
      <point x="521" y="-35" type="curve" smooth="yes"/>
      <point x="461" y="-35"/>
      <point x="416" y="-68"/>
      <point x="416" y="-114" type="curve"/>
      <point x="449" y="-114"/>
      <point x="456" y="-131"/>
      <point x="456" y="-143" type="curve" smooth="yes"/>
      <point x="456" y="-168"/>
      <point x="428" y="-189"/>
      <point x="349" y="-189" type="curve" smooth="yes"/>
      <point x="254" y="-189"/>
      <point x="210" y="-142"/>
      <point x="195" y="-126" type="curve"/>
      <point x="118" y="-126" type="line"/>
      <point x="142" y="-170"/>
      <point x="212" y="-269"/>
      <point x="377" y="-269" type="curve" smooth="yes"/>
      <point x="513" y="-269"/>
      <point x="619" y="-216"/>
    </contour>
  </outline>
</glyph>
<glyph name="uni17AC" format="2">
  <advance width="720"/>
  <unicode hex="17AC"/>
  <note>
uni17AC
</note>
  <anchor x="338" y="760" name="abvm"/>
  <anchor x="370" y="0" name="blwm"/>
  <outline>
    <contour>
      <point x="636" y="399" type="line"/>
      <point x="456" y="399" type="line"/>
      <point x="456" y="176" type="line" smooth="yes"/>
      <point x="456" y="122"/>
      <point x="429" y="102"/>
      <point x="369" y="102" type="curve" smooth="yes"/>
      <point x="312" y="102"/>
      <point x="284" y="120"/>
      <point x="284" y="176" type="curve" smooth="yes"/>
      <point x="284" y="399" type="line"/>
      <point x="104" y="399" type="line"/>
      <point x="104" y="146" type="line" smooth="yes"/>
      <point x="104" y="61"/>
      <point x="208" y="0"/>
      <point x="369" y="0" type="curve" smooth="yes"/>
      <point x="527" y="0"/>
      <point x="636" y="60"/>
      <point x="636" y="146" type="curve" smooth="yes"/>
    </contour>
    <contour>
      <point x="284" y="330" type="line"/>
      <point x="284" y="449" type="line"/>
      <point x="158" y="514" type="line"/>
      <point x="172" y="535" type="line"/>
      <point x="227" y="510"/>
      <point x="246" y="505"/>
      <point x="261" y="505" type="curve" smooth="yes"/>
      <point x="316" y="505"/>
      <point x="344" y="568"/>
      <point x="344" y="612" type="curve"/>
      <point x="291" y="612"/>
      <point x="239" y="643"/>
      <point x="158" y="680" type="curve"/>
      <point x="66" y="572"/>
      <point x="30" y="525"/>
      <point x="30" y="492" type="curve" smooth="yes"/>
      <point x="30" y="473"/>
      <point x="42" y="449"/>
      <point x="104" y="412" type="curve"/>
      <point x="104" y="330" type="line"/>
    </contour>
    <contour>
      <point x="636" y="330" type="line"/>
      <point x="636" y="449" type="line"/>
      <point x="510" y="514" type="line"/>
      <point x="524" y="535" type="line"/>
      <point x="579" y="510"/>
      <point x="598" y="505"/>
      <point x="613" y="505" type="curve" smooth="yes"/>
      <point x="668" y="505"/>
      <point x="696" y="568"/>
      <point x="696" y="612" type="curve"/>
      <point x="643" y="612"/>
      <point x="591" y="643"/>
      <point x="510" y="680" type="curve"/>
      <point x="418" y="572"/>
      <point x="382" y="525"/>
      <point x="382" y="492" type="curve" smooth="yes"/>
      <point x="382" y="473"/>
      <point x="394" y="449"/>
      <point x="456" y="412" type="curve"/>
      <point x="456" y="330" type="line"/>
    </contour>
    <contour>
      <point x="511" y="-226" type="line"/>
      <point x="528" y="-246"/>
      <point x="565" y="-269"/>
      <point x="606" y="-269" type="curve" smooth="yes"/>
      <point x="665" y="-269"/>
      <point x="694" y="-222"/>
      <point x="694" y="-190" type="curve"/>
      <point x="641" y="-190"/>
      <point x="605" y="-178"/>
      <point x="597" y="-153" type="curve"/>
    </contour>
    <contour>
      <point x="607" y="-124" type="curve" smooth="yes"/>
      <point x="607" y="-77"/>
      <point x="579" y="-35"/>
      <point x="509" y="-35" type="curve" smooth="yes"/>
      <point x="449" y="-35"/>
      <point x="404" y="-68"/>
      <point x="404" y="-114" type="curve"/>
      <point x="437" y="-114"/>
      <point x="444" y="-131"/>
      <point x="444" y="-143" type="curve" smooth="yes"/>
      <point x="444" y="-168"/>
      <point x="416" y="-189"/>
      <point x="337" y="-189" type="curve" smooth="yes"/>
      <point x="242" y="-189"/>
      <point x="198" y="-142"/>
      <point x="183" y="-126" type="curve"/>
      <point x="106" y="-126" type="line"/>
      <point x="130" y="-170"/>
      <point x="200" y="-269"/>
      <point x="365" y="-269" type="curve" smooth="yes"/>
      <point x="501" y="-269"/>
      <point x="607" y="-216"/>
    </contour>
  </outline>
</glyph>
<glyph name="uni17AE" format="2">
  <advance width="778"/>
  <unicode hex="17AE"/>
  <note>
uni17AE
</note>
  <anchor x="353" y="760" name="abvm"/>
  <anchor x="368" y="0" name="blwm"/>
  <outline>
    <contour>
      <point x="95" y="309" type="line"/>
      <point x="275" y="309" type="line"/>
      <point x="275" y="444" type="line"/>
      <point x="193" y="507"/>
      <point x="179" y="521"/>
      <point x="179" y="533" type="curve" smooth="yes"/>
      <point x="179" y="538"/>
      <point x="181" y="541"/>
      <point x="184" y="544" type="curve" smooth="yes"/>
      <point x="187" y="547"/>
      <point x="191" y="549"/>
      <point x="195" y="549" type="curve" smooth="yes"/>
      <point x="218" y="549"/>
      <point x="267" y="479"/>
      <point x="321" y="479" type="curve" smooth="yes"/>
      <point x="368" y="479"/>
      <point x="418" y="533"/>
      <point x="450" y="533" type="curve" smooth="yes"/>
      <point x="465" y="533"/>
      <point x="487" y="521"/>
      <point x="487" y="464" type="curve" smooth="yes"/>
      <point x="487" y="0" type="line"/>
      <point x="667" y="0" type="line"/>
      <point x="667" y="521" type="line" smooth="yes"/>
      <point x="667" y="602"/>
      <point x="607" y="682"/>
      <point x="534" y="682" type="curve" smooth="yes"/>
      <point x="501" y="682"/>
      <point x="457" y="664"/>
      <point x="424" y="643" type="curve" smooth="yes"/>
      <point x="398" y="627"/>
      <point x="370" y="604"/>
      <point x="356" y="604" type="curve" smooth="yes"/>
      <point x="343" y="604"/>
      <point x="317" y="626"/>
      <point x="292" y="647" type="curve" smooth="yes"/>
      <point x="275" y="661"/>
      <point x="250" y="682"/>
      <point x="221" y="682" type="curve" smooth="yes"/>
      <point x="194" y="682"/>
      <point x="163" y="665"/>
      <point x="122" y="630" type="curve" smooth="yes"/>
      <point x="81" y="595"/>
      <point x="46" y="554"/>
      <point x="46" y="528" type="curve" smooth="yes"/>
      <point x="46" y="510"/>
      <point x="62" y="484"/>
      <point x="95" y="450" type="curve"/>
    </contour>
    <contour>
      <point x="95" y="317" type="line"/>
      <point x="95" y="0" type="line"/>
      <point x="275" y="0" type="line"/>
      <point x="357" y="46"/>
      <point x="409" y="95"/>
      <point x="409" y="167" type="curve" smooth="yes"/>
      <point x="409" y="235"/>
      <point x="364" y="281"/>
      <point x="275" y="275" type="curve"/>
      <point x="275" y="317" type="line"/>
    </contour>
    <contour>
      <point x="275" y="186" type="line"/>
      <point x="293" y="185"/>
      <point x="309" y="179"/>
      <point x="309" y="154" type="curve" smooth="yes"/>
      <point x="309" y="138"/>
      <point x="302" y="118"/>
      <point x="275" y="102" type="curve"/>
    </contour>
    <contour>
      <point x="491" y="-226" type="line"/>
      <point x="508" y="-246"/>
      <point x="545" y="-269"/>
      <point x="586" y="-269" type="curve" smooth="yes"/>
      <point x="645" y="-269"/>
      <point x="674" y="-222"/>
      <point x="674" y="-190" type="curve"/>
      <point x="621" y="-190"/>
      <point x="585" y="-178"/>
      <point x="577" y="-153" type="curve"/>
    </contour>
    <contour>
      <point x="587" y="-124" type="curve" smooth="yes"/>
      <point x="587" y="-77"/>
      <point x="559" y="-35"/>
      <point x="489" y="-35" type="curve" smooth="yes"/>
      <point x="429" y="-35"/>
      <point x="384" y="-68"/>
      <point x="384" y="-114" type="curve"/>
      <point x="417" y="-114"/>
      <point x="424" y="-131"/>
      <point x="424" y="-143" type="curve" smooth="yes"/>
      <point x="424" y="-168"/>
      <point x="396" y="-189"/>
      <point x="317" y="-189" type="curve" smooth="yes"/>
      <point x="222" y="-189"/>
      <point x="178" y="-142"/>
      <point x="163" y="-126" type="curve"/>
      <point x="86" y="-126" type="line"/>
      <point x="110" y="-170"/>
      <point x="180" y="-269"/>
      <point x="345" y="-269" type="curve" smooth="yes"/>
      <point x="481" y="-269"/>
      <point x="587" y="-216"/>
    </contour>
  </outline>
</glyph>
<glyph name="uni17AF" format="2">
  <advance width="805"/>
  <unicode hex="17AF"/>
  <note>
uni17AF
</note>
  <outline>
    <contour>
      <point x="354" y="178" type="line"/>
      <point x="174" y="178" type="line"/>
      <point x="174" y="0" type="line"/>
      <point x="347" y="0" type="line"/>
      <point x="451" y="56" type="line"/>
      <point x="555" y="0" type="line"/>
      <point x="728" y="0" type="line"/>
      <point x="728" y="514" type="line" smooth="yes"/>
      <point x="728" y="550"/>
      <point x="710" y="577"/>
      <point x="680" y="598" type="curve" smooth="yes"/>
      <point x="593" y="661" type="line" smooth="yes"/>
      <point x="542" y="696"/>
      <point x="503" y="702"/>
      <point x="472" y="702" type="curve" smooth="yes"/>
      <point x="417" y="702"/>
      <point x="379" y="683"/>
      <point x="354" y="656" type="curve"/>
      <point x="354" y="697"/>
      <point x="362" y="711"/>
      <point x="362" y="752" type="curve" smooth="yes"/>
      <point x="362" y="815"/>
      <point x="323" y="864"/>
      <point x="257" y="864" type="curve" smooth="yes"/>
      <point x="187" y="864"/>
      <point x="150" y="810"/>
      <point x="150" y="777" type="curve"/>
      <point x="184" y="765"/>
      <point x="193" y="745"/>
      <point x="193" y="716" type="curve" smooth="yes"/>
      <point x="193" y="678"/>
      <point x="176" y="680"/>
      <point x="176" y="628" type="curve" smooth="yes"/>
      <point x="176" y="554"/>
      <point x="212" y="527"/>
      <point x="269" y="527" type="curve" smooth="yes"/>
      <point x="347" y="527"/>
      <point x="361" y="596"/>
      <point x="435" y="596" type="curve" smooth="yes"/>
      <point x="480" y="596"/>
      <point x="508" y="566"/>
      <point x="548" y="519" type="curve"/>
      <point x="548" y="116" type="line"/>
      <point x="451" y="169" type="line"/>
      <point x="354" y="116" type="line"/>
    </contour>
    <contour>
      <point x="354" y="142" type="line"/>
      <point x="354" y="345" type="line" smooth="yes"/>
      <point x="354" y="409"/>
      <point x="322" y="438"/>
      <point x="239" y="438" type="curve" smooth="yes"/>
      <point x="116" y="438"/>
      <point x="50" y="371"/>
      <point x="50" y="291" type="curve" smooth="yes"/>
      <point x="50" y="181"/>
      <point x="166" y="173"/>
      <point x="174" y="173" type="curve"/>
      <point x="174" y="142" type="line"/>
    </contour>
    <contour>
      <point x="174" y="263" type="line"/>
      <point x="155" y="264"/>
      <point x="141" y="278"/>
      <point x="141" y="301" type="curve" smooth="yes"/>
      <point x="141" y="323"/>
      <point x="154" y="341"/>
      <point x="174" y="351" type="curve"/>
    </contour>
  </outline>
</glyph>
<glyph name="uni17B0" format="2">
  <advance width="749"/>
  <unicode hex="17B0"/>
  <note>
uni17B0
</note>
  <anchor x="353" y="760" name="abvm"/>
  <anchor x="435" y="-284" name="blwm"/>
  <outline>
    <contour>
      <point x="487" y="27" type="line"/>
      <point x="487" y="-32" type="line"/>
      <point x="667" y="-72" type="line"/>
      <point x="667" y="27" type="line"/>
    </contour>
    <contour>
      <point x="95" y="309" type="line"/>
      <point x="275" y="309" type="line"/>
      <point x="275" y="444" type="line"/>
      <point x="193" y="507"/>
      <point x="179" y="521"/>
      <point x="179" y="533" type="curve" smooth="yes"/>
      <point x="179" y="538"/>
      <point x="181" y="541"/>
      <point x="184" y="544" type="curve" smooth="yes"/>
      <point x="187" y="547"/>
      <point x="191" y="549"/>
      <point x="195" y="549" type="curve" smooth="yes"/>
      <point x="218" y="549"/>
      <point x="267" y="479"/>
      <point x="321" y="479" type="curve" smooth="yes"/>
      <point x="368" y="479"/>
      <point x="418" y="533"/>
      <point x="450" y="533" type="curve" smooth="yes"/>
      <point x="465" y="533"/>
      <point x="487" y="521"/>
      <point x="487" y="464" type="curve" smooth="yes"/>
      <point x="487" y="0" type="line"/>
      <point x="667" y="0" type="line"/>
      <point x="667" y="521" type="line" smooth="yes"/>
      <point x="667" y="602"/>
      <point x="607" y="682"/>
      <point x="534" y="682" type="curve" smooth="yes"/>
      <point x="501" y="682"/>
      <point x="457" y="664"/>
      <point x="424" y="643" type="curve" smooth="yes"/>
      <point x="398" y="627"/>
      <point x="370" y="604"/>
      <point x="356" y="604" type="curve" smooth="yes"/>
      <point x="343" y="604"/>
      <point x="317" y="626"/>
      <point x="292" y="647" type="curve" smooth="yes"/>
      <point x="275" y="661"/>
      <point x="250" y="682"/>
      <point x="221" y="682" type="curve" smooth="yes"/>
      <point x="194" y="682"/>
      <point x="163" y="665"/>
      <point x="122" y="630" type="curve" smooth="yes"/>
      <point x="81" y="595"/>
      <point x="46" y="554"/>
      <point x="46" y="528" type="curve" smooth="yes"/>
      <point x="46" y="510"/>
      <point x="62" y="484"/>
      <point x="95" y="450" type="curve"/>
    </contour>
    <contour>
      <point x="95" y="317" type="line"/>
      <point x="95" y="0" type="line"/>
      <point x="275" y="0" type="line"/>
      <point x="357" y="46"/>
      <point x="409" y="95"/>
      <point x="409" y="167" type="curve" smooth="yes"/>
      <point x="409" y="235"/>
      <point x="364" y="281"/>
      <point x="275" y="275" type="curve"/>
      <point x="275" y="317" type="line"/>
    </contour>
    <contour>
      <point x="275" y="186" type="line"/>
      <point x="293" y="185"/>
      <point x="309" y="179"/>
      <point x="309" y="154" type="curve" smooth="yes"/>
      <point x="309" y="138"/>
      <point x="302" y="118"/>
      <point x="275" y="102" type="curve"/>
    </contour>
    <contour>
      <point x="193" y="-181" type="curve" smooth="yes"/>
      <point x="193" y="-223"/>
      <point x="227" y="-285"/>
      <point x="316" y="-285" type="curve" smooth="yes"/>
      <point x="425" y="-285"/>
      <point x="466" y="-193"/>
      <point x="466" y="-102" type="curve"/>
      <point x="391" y="-126" type="line"/>
      <point x="391" y="-185"/>
      <point x="368" y="-215"/>
      <point x="344" y="-215" type="curve" smooth="yes"/>
      <point x="328" y="-215"/>
      <point x="315" y="-202"/>
      <point x="315" y="-185" type="curve"/>
      <point x="348" y="-174"/>
      <point x="366" y="-162"/>
      <point x="418" y="-136" type="curve" smooth="yes"/>
      <point x="465" y="-112"/>
      <point x="528" y="-76"/>
      <point x="528" y="-40" type="curve" smooth="yes"/>
      <point x="528" y="-18"/>
      <point x="503" y="-5"/>
      <point x="473" y="-5" type="curve" smooth="yes"/>
      <point x="446" y="-5"/>
      <point x="421" y="-16"/>
      <point x="412" y="-31" type="curve"/>
      <point x="418" y="-35"/>
      <point x="420" y="-38"/>
      <point x="420" y="-43" type="curve" smooth="yes"/>
      <point x="420" y="-77"/>
      <point x="323" y="-119"/>
      <point x="236" y="-131" type="curve" smooth="yes"/>
      <point x="202" y="-136"/>
      <point x="193" y="-160"/>
    </contour>
    <contour>
      <point x="391" y="-116" type="line"/>
      <point x="396" y="-142"/>
      <point x="423" y="-209"/>
      <point x="507" y="-209" type="curve" smooth="yes"/>
      <point x="588" y="-209"/>
      <point x="667" y="-145"/>
      <point x="667" y="-69" type="curve" smooth="yes"/>
      <point x="667" y="-39"/>
      <point x="655" y="-5"/>
      <point x="599" y="-5" type="curve" smooth="yes"/>
      <point x="551" y="-5"/>
      <point x="527" y="-31"/>
      <point x="517" y="-49" type="curve"/>
      <point x="528" y="-58"/>
      <point x="535" y="-70"/>
      <point x="535" y="-88" type="curve" smooth="yes"/>
      <point x="535" y="-113"/>
      <point x="522" y="-132"/>
      <point x="501" y="-132" type="curve" smooth="yes"/>
      <point x="486" y="-132"/>
      <point x="470" y="-122"/>
      <point x="465" y="-95" type="curve"/>
    </contour>
  </outline>
</glyph>
<glyph name="uni17B1" format="2">
  <advance width="720"/>
  <unicode hex="17B1"/>
  <note>
uni17B1
</note>
  <anchor x="349" y="1044" name="abvm"/>
  <anchor x="358" y="-49" name="blwm"/>
  <outline>
    <contour>
      <point x="80" y="529" type="line"/>
      <point x="260" y="530" type="line"/>
      <point x="260" y="532" type="line" smooth="yes"/>
      <point x="260" y="568"/>
      <point x="290" y="580"/>
      <point x="355" y="580" type="curve" smooth="yes"/>
      <point x="423" y="580"/>
      <point x="452" y="566"/>
      <point x="452" y="505" type="curve" smooth="yes"/>
      <point x="452" y="463" type="line" smooth="yes"/>
      <point x="452" y="415"/>
      <point x="420" y="372"/>
      <point x="355" y="338" type="curve" smooth="yes"/>
      <point x="80" y="197" type="line"/>
      <point x="80" y="122" type="line" smooth="yes"/>
      <point x="80" y="36"/>
      <point x="150" y="0"/>
      <point x="223" y="0" type="curve" smooth="yes"/>
      <point x="279" y="0"/>
      <point x="322" y="22"/>
      <point x="368" y="53" type="curve" smooth="yes"/>
      <point x="423" y="89"/>
      <point x="437" y="98"/>
      <point x="452" y="98" type="curve"/>
      <point x="452" y="71" type="line" smooth="yes"/>
      <point x="452" y="35"/>
      <point x="439" y="21"/>
      <point x="418" y="10" type="curve"/>
      <point x="418" y="-13"/>
      <point x="449" y="-49"/>
      <point x="514" y="-49" type="curve" smooth="yes"/>
      <point x="593" y="-49"/>
      <point x="630" y="6"/>
      <point x="630" y="54" type="curve" smooth="yes"/>
      <point x="630" y="279" type="line"/>
      <point x="452" y="235" type="line"/>
      <point x="452" y="209" type="line"/>
      <point x="413" y="203"/>
      <point x="390" y="188"/>
      <point x="356" y="161" type="curve" smooth="yes"/>
      <point x="315" y="129"/>
      <point x="298" y="111"/>
      <point x="281" y="111" type="curve" smooth="yes"/>
      <point x="272" y="111"/>
      <point x="258" y="116"/>
      <point x="258" y="151" type="curve" smooth="yes"/>
      <point x="258" y="165" type="line"/>
      <point x="401" y="239" type="line" smooth="yes"/>
      <point x="556" y="318"/>
      <point x="630" y="420"/>
      <point x="630" y="463" type="curve" smooth="yes"/>
      <point x="630" y="536" type="line" smooth="yes"/>
      <point x="630" y="621"/>
      <point x="525" y="682"/>
      <point x="356" y="682" type="curve" smooth="yes"/>
      <point x="189" y="682"/>
      <point x="80" y="623"/>
      <point x="80" y="536" type="curve" smooth="yes"/>
    </contour>
    <contour>
      <point x="260" y="533" type="line"/>
      <point x="80" y="533" type="line"/>
      <point x="80" y="427" type="line" smooth="yes"/>
      <point x="80" y="384"/>
      <point x="124" y="355"/>
      <point x="221" y="355" type="curve" smooth="yes"/>
      <point x="310" y="355"/>
      <point x="365" y="381"/>
      <point x="365" y="451" type="curve" smooth="yes"/>
      <point x="365" y="489"/>
      <point x="348" y="529"/>
      <point x="260" y="529" type="curve"/>
    </contour>
    <contour>
      <point x="260" y="471" type="line"/>
      <point x="276" y="471"/>
      <point x="286" y="466"/>
      <point x="286" y="446" type="curve" smooth="yes"/>
      <point x="286" y="429"/>
      <point x="278" y="421"/>
      <point x="260" y="421" type="curve"/>
    </contour>
    <contour>
      <point x="252" y="729" type="line"/>
      <point x="219" y="754"/>
      <point x="205" y="774"/>
      <point x="205" y="797" type="curve" smooth="yes"/>
      <point x="205" y="839"/>
      <point x="251" y="868"/>
      <point x="336" y="868" type="curve" smooth="yes"/>
      <point x="483" y="868"/>
      <point x="543" y="785"/>
      <point x="553" y="694" type="curve"/>
      <point x="594" y="717"/>
      <point x="614" y="757"/>
      <point x="614" y="803" type="curve" smooth="yes"/>
      <point x="614" y="928"/>
      <point x="468" y="990"/>
      <point x="342" y="990" type="curve" smooth="yes"/>
      <point x="187" y="990"/>
      <point x="92" y="897"/>
      <point x="92" y="804" type="curve" smooth="yes"/>
      <point x="92" y="744"/>
      <point x="131" y="701"/>
      <point x="169" y="685" type="curve"/>
    </contour>
  </outline>
</glyph>
<glyph name="uni17B2" format="2">
  <advance width="708"/>
  <unicode hex="17B2"/>
  <note>
uni17B2
</note>
  <outline>
    <contour>
      <point x="389" y="169" type="line"/>
      <point x="534" y="256"/>
      <point x="629" y="328"/>
      <point x="629" y="429" type="curve" smooth="yes"/>
      <point x="629" y="512"/>
      <point x="563" y="568"/>
      <point x="459" y="568" type="curve" smooth="yes"/>
      <point x="348" y="568"/>
      <point x="288" y="519"/>
      <point x="288" y="441" type="curve" smooth="yes"/>
      <point x="288" y="394"/>
      <point x="310" y="348"/>
      <point x="367" y="348" type="curve" smooth="yes"/>
      <point x="391" y="348"/>
      <point x="420" y="356"/>
      <point x="429" y="410" type="curve"/>
      <point x="394" y="410"/>
      <point x="388" y="432"/>
      <point x="388" y="446" type="curve" smooth="yes"/>
      <point x="388" y="472"/>
      <point x="408" y="484"/>
      <point x="430" y="484" type="curve" smooth="yes"/>
      <point x="456" y="484"/>
      <point x="474" y="468"/>
      <point x="474" y="433" type="curve" smooth="yes"/>
      <point x="474" y="377"/>
      <point x="431" y="331"/>
      <point x="321" y="257" type="curve"/>
    </contour>
    <contour>
      <point x="544" y="277" type="curve"/>
      <point x="425" y="199" type="line"/>
      <point x="450" y="192"/>
      <point x="451" y="182"/>
      <point x="451" y="163" type="curve" smooth="yes"/>
      <point x="451" y="152" type="line" smooth="yes"/>
      <point x="451" y="133"/>
      <point x="432" y="102"/>
      <point x="361" y="102" type="curve" smooth="yes"/>
      <point x="291" y="102"/>
      <point x="257" y="132"/>
      <point x="257" y="186" type="curve" smooth="yes"/>
      <point x="257" y="560" type="line" smooth="yes"/>
      <point x="257" y="612"/>
      <point x="285" y="632"/>
      <point x="362" y="632" type="curve" smooth="yes"/>
      <point x="409" y="632"/>
      <point x="445" y="624"/>
      <point x="461" y="596" type="curve"/>
      <point x="629" y="635" type="line"/>
      <point x="563" y="708"/>
      <point x="494" y="734"/>
      <point x="362" y="734" type="curve" smooth="yes"/>
      <point x="149" y="734"/>
      <point x="77" y="652"/>
      <point x="77" y="536" type="curve" smooth="yes"/>
      <point x="77" y="156" type="line" smooth="yes"/>
      <point x="77" y="58"/>
      <point x="187" y="0"/>
      <point x="356" y="0" type="curve" smooth="yes"/>
      <point x="554" y="0"/>
      <point x="631" y="82"/>
      <point x="631" y="146" type="curve" smooth="yes"/>
      <point x="631" y="190" type="line" smooth="yes"/>
      <point x="631" y="230"/>
      <point x="600" y="271"/>
    </contour>
  </outline>
</glyph>
<glyph name="uni17B3" format="2">
  <advance width="708"/>
  <unicode hex="17B3"/>
  <note>
uni17B3
</note>
  <anchor x="348" y="1065" name="abvm"/>
  <anchor x="357" y="-49" name="blwm"/>
  <outline>
    <contour>
      <point x="79" y="529" type="line"/>
      <point x="259" y="530" type="line"/>
      <point x="259" y="532" type="line" smooth="yes"/>
      <point x="259" y="568"/>
      <point x="289" y="580"/>
      <point x="354" y="580" type="curve" smooth="yes"/>
      <point x="422" y="580"/>
      <point x="451" y="566"/>
      <point x="451" y="505" type="curve" smooth="yes"/>
      <point x="451" y="463" type="line" smooth="yes"/>
      <point x="451" y="415"/>
      <point x="419" y="372"/>
      <point x="354" y="338" type="curve" smooth="yes"/>
      <point x="79" y="197" type="line"/>
      <point x="79" y="122" type="line" smooth="yes"/>
      <point x="79" y="36"/>
      <point x="149" y="0"/>
      <point x="222" y="0" type="curve" smooth="yes"/>
      <point x="278" y="0"/>
      <point x="321" y="22"/>
      <point x="367" y="53" type="curve" smooth="yes"/>
      <point x="422" y="89"/>
      <point x="436" y="98"/>
      <point x="451" y="98" type="curve"/>
      <point x="451" y="71" type="line" smooth="yes"/>
      <point x="451" y="35"/>
      <point x="438" y="21"/>
      <point x="417" y="10" type="curve"/>
      <point x="417" y="-13"/>
      <point x="448" y="-49"/>
      <point x="513" y="-49" type="curve" smooth="yes"/>
      <point x="592" y="-49"/>
      <point x="629" y="6"/>
      <point x="629" y="54" type="curve" smooth="yes"/>
      <point x="629" y="279" type="line"/>
      <point x="451" y="235" type="line"/>
      <point x="451" y="209" type="line"/>
      <point x="412" y="203"/>
      <point x="389" y="188"/>
      <point x="355" y="161" type="curve" smooth="yes"/>
      <point x="314" y="129"/>
      <point x="297" y="111"/>
      <point x="280" y="111" type="curve" smooth="yes"/>
      <point x="271" y="111"/>
      <point x="257" y="116"/>
      <point x="257" y="151" type="curve" smooth="yes"/>
      <point x="257" y="165" type="line"/>
      <point x="400" y="239" type="line" smooth="yes"/>
      <point x="555" y="318"/>
      <point x="629" y="420"/>
      <point x="629" y="463" type="curve" smooth="yes"/>
      <point x="629" y="536" type="line" smooth="yes"/>
      <point x="629" y="621"/>
      <point x="524" y="682"/>
      <point x="355" y="682" type="curve" smooth="yes"/>
      <point x="188" y="682"/>
      <point x="79" y="623"/>
      <point x="79" y="536" type="curve" smooth="yes"/>
    </contour>
    <contour>
      <point x="259" y="533" type="line"/>
      <point x="79" y="533" type="line"/>
      <point x="79" y="427" type="line" smooth="yes"/>
      <point x="79" y="384"/>
      <point x="123" y="355"/>
      <point x="220" y="355" type="curve" smooth="yes"/>
      <point x="309" y="355"/>
      <point x="364" y="381"/>
      <point x="364" y="451" type="curve" smooth="yes"/>
      <point x="364" y="489"/>
      <point x="347" y="529"/>
      <point x="259" y="529" type="curve"/>
    </contour>
    <contour>
      <point x="259" y="471" type="line"/>
      <point x="275" y="471"/>
      <point x="285" y="466"/>
      <point x="285" y="446" type="curve" smooth="yes"/>
      <point x="285" y="429"/>
      <point x="277" y="421"/>
      <point x="259" y="421" type="curve"/>
    </contour>
    <contour>
      <point x="616" y="855" type="curve" smooth="yes"/>
      <point x="616" y="986"/>
      <point x="577" y="1098"/>
      <point x="492" y="1098" type="curve" smooth="yes"/>
      <point x="439" y="1098"/>
      <point x="417" y="1057"/>
      <point x="417" y="1018" type="curve"/>
      <point x="450" y="1014"/>
      <point x="478" y="995"/>
      <point x="493" y="959" type="curve"/>
      <point x="446" y="980"/>
      <point x="392" y="990"/>
      <point x="341" y="990" type="curve" smooth="yes"/>
      <point x="186" y="990"/>
      <point x="91" y="897"/>
      <point x="91" y="804" type="curve" smooth="yes"/>
      <point x="91" y="744"/>
      <point x="130" y="701"/>
      <point x="168" y="685" type="curve"/>
      <point x="251" y="729" type="line"/>
      <point x="218" y="754"/>
      <point x="204" y="774"/>
      <point x="204" y="797" type="curve" smooth="yes"/>
      <point x="204" y="839"/>
      <point x="250" y="868"/>
      <point x="335" y="868" type="curve" smooth="yes"/>
      <point x="482" y="868"/>
      <point x="542" y="785"/>
      <point x="552" y="694" type="curve"/>
      <point x="609" y="727"/>
      <point x="616" y="784"/>
    </contour>
  </outline>
</glyph>
<glyph name="uni17B4" format="2">
  <advance width="374"/>
  <unicode hex="17B4"/>
  <anchor x="70" y="740" name="abvm_a"/>
  <anchor x="70" y="740" name="abvm_high"/>
  <anchor x="-8" y="0" name="blwm_a"/>
  <outline>
    <contour>
      <point x="-98" y="526" type="curve"/>
      <point x="-85" y="548"/>
      <point x="-63" y="566"/>
      <point x="-36" y="566" type="curve" smooth="yes"/>
      <point x="-15" y="566"/>
      <point x="3" y="554"/>
      <point x="27" y="537" type="curve" smooth="yes"/>
      <point x="79" y="501" type="line"/>
      <point x="79" y="0" type="line"/>
      <point x="259" y="0" type="line"/>
      <point x="259" y="480" type="line" smooth="yes"/>
      <point x="259" y="524"/>
      <point x="226" y="558"/>
      <point x="180" y="590" type="curve" smooth="yes"/>
      <point x="120" y="632" type="line" smooth="yes"/>
      <point x="89" y="653"/>
      <point x="46" y="682"/>
      <point x="-6" y="682" type="curve" smooth="yes"/>
      <point x="-47" y="682"/>
      <point x="-73" y="670"/>
      <point x="-91" y="656" type="curve" smooth="yes"/>
      <point x="-117" y="637"/>
      <point x="-130" y="613"/>
      <point x="-130" y="588" type="curve" smooth="yes"/>
      <point x="-130" y="566"/>
      <point x="-120" y="547"/>
    </contour>
    <contour>
      <point x="237" y="512" type="line"/>
      <point x="262" y="553"/>
      <point x="279" y="610"/>
      <point x="279" y="672" type="curve" smooth="yes"/>
      <point x="279" y="741" type="line" smooth="yes"/>
      <point x="279" y="806"/>
      <point x="255" y="878"/>
      <point x="171" y="878" type="curve" smooth="yes"/>
      <point x="103" y="878"/>
      <point x="72" y="833"/>
      <point x="72" y="800" type="curve"/>
      <point x="103" y="781"/>
      <point x="111" y="738"/>
      <point x="111" y="705" type="curve" smooth="yes"/>
      <point x="111" y="595" type="line"/>
    </contour>
  </outline>
</glyph>
<glyph name="uni17B5" format="2">
  <advance width="336"/>
  <unicode hex="17B5"/>
  <anchor x="70" y="740" name="abvm_a"/>
  <anchor x="70" y="740" name="abvm_high"/>
  <anchor x="-8" y="0" name="blwm_a"/>
  <outline>
    <contour>
      <point x="-98" y="526" type="curve"/>
      <point x="-85" y="548"/>
      <point x="-63" y="566"/>
      <point x="-36" y="566" type="curve" smooth="yes"/>
      <point x="-15" y="566"/>
      <point x="3" y="554"/>
      <point x="27" y="537" type="curve" smooth="yes"/>
      <point x="79" y="501" type="line"/>
      <point x="79" y="0" type="line"/>
      <point x="259" y="0" type="line"/>
      <point x="259" y="480" type="line" smooth="yes"/>
      <point x="259" y="524"/>
      <point x="226" y="558"/>
      <point x="180" y="590" type="curve" smooth="yes"/>
      <point x="120" y="632" type="line" smooth="yes"/>
      <point x="89" y="653"/>
      <point x="46" y="682"/>
      <point x="-6" y="682" type="curve" smooth="yes"/>
      <point x="-47" y="682"/>
      <point x="-73" y="670"/>
      <point x="-91" y="656" type="curve" smooth="yes"/>
      <point x="-117" y="637"/>
      <point x="-130" y="613"/>
      <point x="-130" y="588" type="curve" smooth="yes"/>
      <point x="-130" y="566"/>
      <point x="-120" y="547"/>
    </contour>
  </outline>
</glyph>
<glyph name="uni17B8" format="2">
  <unicode hex="17B8"/>
  <note>
uni17B8
</note>
  <anchor x="-353" y="854" name="_abvm"/>
  <anchor x="-353" y="1190" name="abvm"/>
  <outline>
    <contour>
      <point x="-132" y="911" type="line"/>
      <point x="-132" y="1142" type="line"/>
      <point x="-247" y="1142" type="line"/>
      <point x="-247" y="911" type="line"/>
    </contour>
    <contour>
      <point x="-574" y="943" type="curve" smooth="yes"/>
      <point x="-574" y="880"/>
      <point x="-534" y="854"/>
      <point x="-455" y="854" type="curve" smooth="yes"/>
      <point x="-181" y="854" type="line" smooth="yes"/>
      <point x="-148" y="854"/>
      <point x="-132" y="879"/>
      <point x="-132" y="911" type="curve" smooth="yes"/>
      <point x="-132" y="940"/>
      <point x="-144" y="960"/>
      <point x="-182" y="990" type="curve" smooth="yes"/>
      <point x="-255" y="1048"/>
      <point x="-330" y="1064"/>
      <point x="-399" y="1064" type="curve" smooth="yes"/>
      <point x="-513" y="1064"/>
      <point x="-574" y="1022"/>
    </contour>
    <contour>
      <point x="-450" y="933" type="line"/>
      <point x="-450" y="954"/>
      <point x="-428" y="968"/>
      <point x="-389" y="968" type="curve" smooth="yes"/>
      <point x="-340" y="968"/>
      <point x="-304" y="947"/>
      <point x="-286" y="933" type="curve"/>
    </contour>
  </outline>
</glyph>
<glyph name="uni17B9" format="2">
  <unicode hex="17B9"/>
  <note>
uni17B9
</note>
  <anchor x="-353" y="854" name="_abvm"/>
  <anchor x="-353" y="1167" name="abvm"/>
  <outline>
    <contour>
      <point x="-317" y="1052" type="curve"/>
      <point x="-142" y="943" type="line"/>
      <point x="-133" y="953"/>
      <point x="-110" y="981"/>
      <point x="-110" y="1018" type="curve" smooth="yes"/>
      <point x="-110" y="1069"/>
      <point x="-153" y="1116"/>
      <point x="-213" y="1116" type="curve" smooth="yes"/>
      <point x="-256" y="1116"/>
      <point x="-292" y="1089"/>
    </contour>
    <contour>
      <point x="-239" y="1028" type="line"/>
      <point x="-235" y="1033"/>
      <point x="-226" y="1040"/>
      <point x="-214" y="1040" type="curve" smooth="yes"/>
      <point x="-201" y="1040"/>
      <point x="-191" y="1031"/>
      <point x="-191" y="1020" type="curve" smooth="yes"/>
      <point x="-191" y="1012"/>
      <point x="-196" y="1006"/>
      <point x="-200" y="1003" type="curve"/>
    </contour>
    <contour>
      <point x="-574" y="943" type="curve" smooth="yes"/>
      <point x="-574" y="880"/>
      <point x="-534" y="854"/>
      <point x="-455" y="854" type="curve" smooth="yes"/>
      <point x="-181" y="854" type="line" smooth="yes"/>
      <point x="-148" y="854"/>
      <point x="-132" y="879"/>
      <point x="-132" y="911" type="curve" smooth="yes"/>
      <point x="-132" y="940"/>
      <point x="-144" y="960"/>
      <point x="-182" y="990" type="curve" smooth="yes"/>
      <point x="-255" y="1048"/>
      <point x="-330" y="1064"/>
      <point x="-399" y="1064" type="curve" smooth="yes"/>
      <point x="-513" y="1064"/>
      <point x="-574" y="1022"/>
    </contour>
    <contour>
      <point x="-450" y="933" type="line"/>
      <point x="-450" y="954"/>
      <point x="-428" y="968"/>
      <point x="-389" y="968" type="curve" smooth="yes"/>
      <point x="-340" y="968"/>
      <point x="-304" y="947"/>
      <point x="-286" y="933" type="curve"/>
    </contour>
  </outline>
</glyph>
<glyph name="uni17BA" format="2">
  <unicode hex="17BA"/>
  <note>
uni17BA
</note>
  <anchor x="-353" y="854" name="_abvm"/>
  <anchor x="-353" y="1170" name="abvm"/>
  <outline>
    <contour>
      <point x="-271" y="1030" type="line"/>
      <point x="-271" y="1123" type="line"/>
      <point x="-379" y="1123" type="line"/>
      <point x="-379" y="1030" type="line"/>
    </contour>
    <contour>
      <point x="-132" y="911" type="line"/>
      <point x="-132" y="1092" type="line"/>
      <point x="-240" y="1092" type="line"/>
      <point x="-240" y="911" type="line"/>
    </contour>
    <contour>
      <point x="-574" y="943" type="curve" smooth="yes"/>
      <point x="-574" y="880"/>
      <point x="-534" y="854"/>
      <point x="-455" y="854" type="curve" smooth="yes"/>
      <point x="-181" y="854" type="line" smooth="yes"/>
      <point x="-148" y="854"/>
      <point x="-132" y="879"/>
      <point x="-132" y="911" type="curve" smooth="yes"/>
      <point x="-132" y="940"/>
      <point x="-144" y="960"/>
      <point x="-182" y="990" type="curve" smooth="yes"/>
      <point x="-255" y="1048"/>
      <point x="-330" y="1064"/>
      <point x="-399" y="1064" type="curve" smooth="yes"/>
      <point x="-513" y="1064"/>
      <point x="-574" y="1022"/>
    </contour>
    <contour>
      <point x="-450" y="933" type="line"/>
      <point x="-450" y="954"/>
      <point x="-428" y="968"/>
      <point x="-389" y="968" type="curve" smooth="yes"/>
      <point x="-340" y="968"/>
      <point x="-304" y="947"/>
      <point x="-286" y="933" type="curve"/>
    </contour>
  </outline>
</glyph>
<glyph name="uni17BB" format="2">
  <unicode hex="17BB"/>
  <note>
uni17BB
</note>
  <anchor x="-197" y="16" name="_blwm"/>
  <outline>
    <contour>
      <point x="-191" y="-49" type="curve" smooth="yes"/>
      <point x="-247" y="-49"/>
      <point x="-285" y="-74"/>
      <point x="-285" y="-121" type="curve" smooth="yes"/>
      <point x="-285" y="-155"/>
      <point x="-265" y="-172"/>
      <point x="-246" y="-180" type="curve"/>
      <point x="-246" y="-267" type="line"/>
      <point x="-104" y="-267" type="line"/>
      <point x="-104" y="-120" type="line" smooth="yes"/>
      <point x="-104" y="-74"/>
      <point x="-137" y="-49"/>
    </contour>
  </outline>
</glyph>
<glyph name="uni17BC" format="2">
  <unicode hex="17BC"/>
  <note>
uni17BC
</note>
  <anchor x="-197" y="16" name="_blwm"/>
  <outline>
    <contour>
      <point x="-236" y="-291" type="curve" smooth="yes"/>
      <point x="-55" y="-291"/>
      <point x="-9" y="-152"/>
      <point x="-9" y="-98" type="curve" smooth="yes"/>
      <point x="-9" y="-76"/>
      <point x="-17" y="-48"/>
      <point x="-67" y="-48" type="curve" smooth="yes"/>
      <point x="-108" y="-48"/>
      <point x="-134" y="-66"/>
      <point x="-161" y="-144" type="curve" smooth="yes"/>
      <point x="-174" y="-181"/>
      <point x="-185" y="-203"/>
      <point x="-213" y="-203" type="curve" smooth="yes"/>
      <point x="-237" y="-203"/>
      <point x="-245" y="-186"/>
      <point x="-236" y="-155" type="curve" smooth="yes"/>
      <point x="-230" y="-135"/>
      <point x="-225" y="-118"/>
      <point x="-225" y="-102" type="curve" smooth="yes"/>
      <point x="-225" y="-63"/>
      <point x="-246" y="-48"/>
      <point x="-292" y="-48" type="curve" smooth="yes"/>
      <point x="-356" y="-48"/>
      <point x="-389" y="-81"/>
      <point x="-389" y="-119" type="curve" smooth="yes"/>
      <point x="-389" y="-147"/>
      <point x="-371" y="-167"/>
      <point x="-358" y="-167" type="curve"/>
      <point x="-362" y="-176" type="line" smooth="yes"/>
      <point x="-366" y="-185"/>
      <point x="-370" y="-201"/>
      <point x="-370" y="-214" type="curve" smooth="yes"/>
      <point x="-370" y="-265"/>
      <point x="-310" y="-291"/>
    </contour>
  </outline>
</glyph>
<glyph name="uni17BE" format="2">
  <unicode hex="17BE"/>
  <note>
uni17BE
</note>
  <anchor x="664" y="736" name="_abvm"/>
  <anchor x="700" y="645" name="abvm"/>
  <anchor x="700" y="45" name="blwm"/>
  <outline>
    <contour>
      <point x="885" y="793" type="line"/>
      <point x="885" y="1024" type="line"/>
      <point x="770" y="1024" type="line"/>
      <point x="770" y="793" type="line"/>
    </contour>
    <contour>
      <point x="443" y="825" type="curve" smooth="yes"/>
      <point x="443" y="762"/>
      <point x="483" y="736"/>
      <point x="562" y="736" type="curve" smooth="yes"/>
      <point x="836" y="736" type="line" smooth="yes"/>
      <point x="869" y="736"/>
      <point x="885" y="761"/>
      <point x="885" y="793" type="curve" smooth="yes"/>
      <point x="885" y="822"/>
      <point x="873" y="842"/>
      <point x="835" y="872" type="curve" smooth="yes"/>
      <point x="762" y="930"/>
      <point x="687" y="946"/>
      <point x="618" y="946" type="curve" smooth="yes"/>
      <point x="504" y="946"/>
      <point x="443" y="904"/>
    </contour>
    <contour>
      <point x="567" y="815" type="line"/>
      <point x="567" y="836"/>
      <point x="589" y="850"/>
      <point x="628" y="850" type="curve" smooth="yes"/>
      <point x="677" y="850"/>
      <point x="713" y="829"/>
      <point x="731" y="815" type="curve"/>
    </contour>
    <contour>
      <point x="91" y="298" type="line"/>
      <point x="271" y="298" type="line"/>
      <point x="271" y="427" type="line"/>
      <point x="91" y="427" type="line"/>
    </contour>
    <contour>
      <point x="271" y="330" type="line"/>
      <point x="271" y="449" type="line"/>
      <point x="145" y="514" type="line"/>
      <point x="159" y="535" type="line"/>
      <point x="214" y="510"/>
      <point x="233" y="505"/>
      <point x="248" y="505" type="curve" smooth="yes"/>
      <point x="303" y="505"/>
      <point x="331" y="568"/>
      <point x="331" y="612" type="curve"/>
      <point x="278" y="612"/>
      <point x="226" y="643"/>
      <point x="145" y="680" type="curve"/>
      <point x="53" y="572"/>
      <point x="17" y="525"/>
      <point x="17" y="492" type="curve" smooth="yes"/>
      <point x="17" y="473"/>
      <point x="29" y="449"/>
      <point x="91" y="412" type="curve"/>
      <point x="91" y="330" type="line"/>
    </contour>
    <contour>
      <point x="91" y="317" type="line"/>
      <point x="91" y="0" type="line"/>
      <point x="271" y="0" type="line"/>
      <point x="353" y="46"/>
      <point x="405" y="95"/>
      <point x="405" y="167" type="curve" smooth="yes"/>
      <point x="405" y="235"/>
      <point x="360" y="281"/>
      <point x="271" y="275" type="curve"/>
      <point x="271" y="317" type="line"/>
    </contour>
    <contour>
      <point x="271" y="186" type="line"/>
      <point x="289" y="185"/>
      <point x="305" y="179"/>
      <point x="305" y="154" type="curve" smooth="yes"/>
      <point x="305" y="138"/>
      <point x="298" y="118"/>
      <point x="271" y="102" type="curve"/>
    </contour>
    <contour>
      <point x="505" y="301" type="curve" smooth="yes"/>
      <point x="523" y="301"/>
      <point x="540" y="318"/>
      <point x="540" y="336" type="curve" smooth="yes"/>
      <point x="540" y="354"/>
      <point x="523" y="371"/>
      <point x="505" y="371" type="curve" smooth="yes"/>
      <point x="486" y="371"/>
      <point x="470" y="354"/>
      <point x="470" y="336" type="curve" smooth="yes"/>
      <point x="470" y="318"/>
      <point x="486" y="301"/>
    </contour>
    <contour>
      <point x="531" y="402" type="curve" smooth="yes"/>
      <point x="549" y="402"/>
      <point x="566" y="419"/>
      <point x="566" y="437" type="curve" smooth="yes"/>
      <point x="566" y="455"/>
      <point x="549" y="472"/>
      <point x="531" y="472" type="curve" smooth="yes"/>
      <point x="512" y="472"/>
      <point x="496" y="455"/>
      <point x="496" y="437" type="curve" smooth="yes"/>
      <point x="496" y="419"/>
      <point x="512" y="402"/>
    </contour>
    <contour>
      <point x="602" y="472" type="curve" smooth="yes"/>
      <point x="620" y="472"/>
      <point x="637" y="489"/>
      <point x="637" y="507" type="curve" smooth="yes"/>
      <point x="637" y="525"/>
      <point x="620" y="542"/>
      <point x="602" y="542" type="curve" smooth="yes"/>
      <point x="583" y="542"/>
      <point x="567" y="525"/>
      <point x="567" y="507" type="curve" smooth="yes"/>
      <point x="567" y="489"/>
      <point x="583" y="472"/>
    </contour>
    <contour>
      <point x="699" y="496" type="curve" smooth="yes"/>
      <point x="717" y="496"/>
      <point x="734" y="513"/>
      <point x="734" y="531" type="curve" smooth="yes"/>
      <point x="734" y="549"/>
      <point x="717" y="566"/>
      <point x="699" y="566" type="curve" smooth="yes"/>
      <point x="680" y="566"/>
      <point x="664" y="549"/>
      <point x="664" y="531" type="curve" smooth="yes"/>
      <point x="664" y="513"/>
      <point x="680" y="496"/>
    </contour>
    <contour>
      <point x="796" y="472" type="curve" smooth="yes"/>
      <point x="814" y="472"/>
      <point x="831" y="489"/>
      <point x="831" y="507" type="curve" smooth="yes"/>
      <point x="831" y="525"/>
      <point x="814" y="542"/>
      <point x="796" y="542" type="curve" smooth="yes"/>
      <point x="777" y="542"/>
      <point x="761" y="525"/>
      <point x="761" y="507" type="curve" smooth="yes"/>
      <point x="761" y="489"/>
      <point x="777" y="472"/>
    </contour>
    <contour>
      <point x="866" y="400" type="curve" smooth="yes"/>
      <point x="884" y="400"/>
      <point x="901" y="417"/>
      <point x="901" y="435" type="curve" smooth="yes"/>
      <point x="901" y="453"/>
      <point x="884" y="470"/>
      <point x="866" y="470" type="curve" smooth="yes"/>
      <point x="847" y="470"/>
      <point x="831" y="453"/>
      <point x="831" y="435" type="curve" smooth="yes"/>
      <point x="831" y="417"/>
      <point x="847" y="400"/>
    </contour>
    <contour>
      <point x="896" y="301" type="curve" smooth="yes"/>
      <point x="914" y="301"/>
      <point x="931" y="318"/>
      <point x="931" y="336" type="curve" smooth="yes"/>
      <point x="931" y="354"/>
      <point x="914" y="371"/>
      <point x="896" y="371" type="curve" smooth="yes"/>
      <point x="877" y="371"/>
      <point x="861" y="354"/>
      <point x="861" y="336" type="curve" smooth="yes"/>
      <point x="861" y="318"/>
      <point x="877" y="301"/>
    </contour>
    <contour>
      <point x="868" y="207" type="curve" smooth="yes"/>
      <point x="886" y="207"/>
      <point x="903" y="224"/>
      <point x="903" y="242" type="curve" smooth="yes"/>
      <point x="903" y="260"/>
      <point x="886" y="277"/>
      <point x="868" y="277" type="curve" smooth="yes"/>
      <point x="849" y="277"/>
      <point x="833" y="260"/>
      <point x="833" y="242" type="curve" smooth="yes"/>
      <point x="833" y="224"/>
      <point x="849" y="207"/>
    </contour>
    <contour>
      <point x="797" y="135" type="curve" smooth="yes"/>
      <point x="815" y="135"/>
      <point x="832" y="152"/>
      <point x="832" y="170" type="curve" smooth="yes"/>
      <point x="832" y="188"/>
      <point x="815" y="205"/>
      <point x="797" y="205" type="curve" smooth="yes"/>
      <point x="778" y="205"/>
      <point x="762" y="188"/>
      <point x="762" y="170" type="curve" smooth="yes"/>
      <point x="762" y="152"/>
      <point x="778" y="135"/>
    </contour>
    <contour>
      <point x="699" y="107" type="curve" smooth="yes"/>
      <point x="717" y="107"/>
      <point x="734" y="124"/>
      <point x="734" y="142" type="curve" smooth="yes"/>
      <point x="734" y="160"/>
      <point x="717" y="177"/>
      <point x="699" y="177" type="curve" smooth="yes"/>
      <point x="680" y="177"/>
      <point x="664" y="160"/>
      <point x="664" y="142" type="curve" smooth="yes"/>
      <point x="664" y="124"/>
      <point x="680" y="107"/>
    </contour>
    <contour>
      <point x="602" y="134" type="curve" smooth="yes"/>
      <point x="620" y="134"/>
      <point x="637" y="151"/>
      <point x="637" y="169" type="curve" smooth="yes"/>
      <point x="637" y="187"/>
      <point x="620" y="204"/>
      <point x="602" y="204" type="curve" smooth="yes"/>
      <point x="583" y="204"/>
      <point x="567" y="187"/>
      <point x="567" y="169" type="curve" smooth="yes"/>
      <point x="567" y="151"/>
      <point x="583" y="134"/>
    </contour>
    <contour>
      <point x="529" y="206" type="curve" smooth="yes"/>
      <point x="547" y="206"/>
      <point x="564" y="223"/>
      <point x="564" y="241" type="curve" smooth="yes"/>
      <point x="564" y="259"/>
      <point x="547" y="276"/>
      <point x="529" y="276" type="curve" smooth="yes"/>
      <point x="510" y="276"/>
      <point x="494" y="259"/>
      <point x="494" y="241" type="curve" smooth="yes"/>
      <point x="494" y="223"/>
      <point x="510" y="206"/>
    </contour>
  </outline>
</glyph>
<glyph name="uni17BF" format="2">
  <advance width="1299"/>
  <unicode hex="17BF"/>
  <note>
uni17BF
</note>
  <anchor x="981" y="1220" name="abvm"/>
  <anchor x="665" y="45" name="blwm"/>
  <outline>
    <contour>
      <point x="91" y="298" type="line"/>
      <point x="271" y="298" type="line"/>
      <point x="271" y="427" type="line"/>
      <point x="91" y="427" type="line"/>
    </contour>
    <contour>
      <point x="271" y="330" type="line"/>
      <point x="271" y="449" type="line"/>
      <point x="145" y="514" type="line"/>
      <point x="159" y="535" type="line"/>
      <point x="214" y="510"/>
      <point x="233" y="505"/>
      <point x="248" y="505" type="curve" smooth="yes"/>
      <point x="303" y="505"/>
      <point x="331" y="568"/>
      <point x="331" y="612" type="curve"/>
      <point x="278" y="612"/>
      <point x="226" y="643"/>
      <point x="145" y="680" type="curve"/>
      <point x="53" y="572"/>
      <point x="17" y="525"/>
      <point x="17" y="492" type="curve" smooth="yes"/>
      <point x="17" y="473"/>
      <point x="29" y="449"/>
      <point x="91" y="412" type="curve"/>
      <point x="91" y="330" type="line"/>
    </contour>
    <contour>
      <point x="91" y="317" type="line"/>
      <point x="91" y="0" type="line"/>
      <point x="271" y="0" type="line"/>
      <point x="353" y="46"/>
      <point x="405" y="95"/>
      <point x="405" y="167" type="curve" smooth="yes"/>
      <point x="405" y="235"/>
      <point x="360" y="281"/>
      <point x="271" y="275" type="curve"/>
      <point x="271" y="317" type="line"/>
    </contour>
    <contour>
      <point x="271" y="186" type="line"/>
      <point x="289" y="185"/>
      <point x="305" y="179"/>
      <point x="305" y="154" type="curve" smooth="yes"/>
      <point x="305" y="138"/>
      <point x="298" y="118"/>
      <point x="271" y="102" type="curve"/>
    </contour>
    <contour>
      <point x="470" y="301" type="curve" smooth="yes"/>
      <point x="488" y="301"/>
      <point x="505" y="318"/>
      <point x="505" y="336" type="curve" smooth="yes"/>
      <point x="505" y="354"/>
      <point x="488" y="371"/>
      <point x="470" y="371" type="curve" smooth="yes"/>
      <point x="451" y="371"/>
      <point x="435" y="354"/>
      <point x="435" y="336" type="curve" smooth="yes"/>
      <point x="435" y="318"/>
      <point x="451" y="301"/>
    </contour>
    <contour>
      <point x="496" y="402" type="curve" smooth="yes"/>
      <point x="514" y="402"/>
      <point x="531" y="419"/>
      <point x="531" y="437" type="curve" smooth="yes"/>
      <point x="531" y="455"/>
      <point x="514" y="472"/>
      <point x="496" y="472" type="curve" smooth="yes"/>
      <point x="477" y="472"/>
      <point x="461" y="455"/>
      <point x="461" y="437" type="curve" smooth="yes"/>
      <point x="461" y="419"/>
      <point x="477" y="402"/>
    </contour>
    <contour>
      <point x="567" y="472" type="curve" smooth="yes"/>
      <point x="585" y="472"/>
      <point x="602" y="489"/>
      <point x="602" y="507" type="curve" smooth="yes"/>
      <point x="602" y="525"/>
      <point x="585" y="542"/>
      <point x="567" y="542" type="curve" smooth="yes"/>
      <point x="548" y="542"/>
      <point x="532" y="525"/>
      <point x="532" y="507" type="curve" smooth="yes"/>
      <point x="532" y="489"/>
      <point x="548" y="472"/>
    </contour>
    <contour>
      <point x="664" y="496" type="curve" smooth="yes"/>
      <point x="682" y="496"/>
      <point x="699" y="513"/>
      <point x="699" y="531" type="curve" smooth="yes"/>
      <point x="699" y="549"/>
      <point x="682" y="566"/>
      <point x="664" y="566" type="curve" smooth="yes"/>
      <point x="645" y="566"/>
      <point x="629" y="549"/>
      <point x="629" y="531" type="curve" smooth="yes"/>
      <point x="629" y="513"/>
      <point x="645" y="496"/>
    </contour>
    <contour>
      <point x="761" y="472" type="curve" smooth="yes"/>
      <point x="779" y="472"/>
      <point x="796" y="489"/>
      <point x="796" y="507" type="curve" smooth="yes"/>
      <point x="796" y="525"/>
      <point x="779" y="542"/>
      <point x="761" y="542" type="curve" smooth="yes"/>
      <point x="742" y="542"/>
      <point x="726" y="525"/>
      <point x="726" y="507" type="curve" smooth="yes"/>
      <point x="726" y="489"/>
      <point x="742" y="472"/>
    </contour>
    <contour>
      <point x="831" y="400" type="curve" smooth="yes"/>
      <point x="849" y="400"/>
      <point x="866" y="417"/>
      <point x="866" y="435" type="curve" smooth="yes"/>
      <point x="866" y="453"/>
      <point x="849" y="470"/>
      <point x="831" y="470" type="curve" smooth="yes"/>
      <point x="812" y="470"/>
      <point x="796" y="453"/>
      <point x="796" y="435" type="curve" smooth="yes"/>
      <point x="796" y="417"/>
      <point x="812" y="400"/>
    </contour>
    <contour>
      <point x="861" y="301" type="curve" smooth="yes"/>
      <point x="879" y="301"/>
      <point x="896" y="318"/>
      <point x="896" y="336" type="curve" smooth="yes"/>
      <point x="896" y="354"/>
      <point x="879" y="371"/>
      <point x="861" y="371" type="curve" smooth="yes"/>
      <point x="842" y="371"/>
      <point x="826" y="354"/>
      <point x="826" y="336" type="curve" smooth="yes"/>
      <point x="826" y="318"/>
      <point x="842" y="301"/>
    </contour>
    <contour>
      <point x="833" y="207" type="curve" smooth="yes"/>
      <point x="851" y="207"/>
      <point x="868" y="224"/>
      <point x="868" y="242" type="curve" smooth="yes"/>
      <point x="868" y="260"/>
      <point x="851" y="277"/>
      <point x="833" y="277" type="curve" smooth="yes"/>
      <point x="814" y="277"/>
      <point x="798" y="260"/>
      <point x="798" y="242" type="curve" smooth="yes"/>
      <point x="798" y="224"/>
      <point x="814" y="207"/>
    </contour>
    <contour>
      <point x="762" y="135" type="curve" smooth="yes"/>
      <point x="780" y="135"/>
      <point x="797" y="152"/>
      <point x="797" y="170" type="curve" smooth="yes"/>
      <point x="797" y="188"/>
      <point x="780" y="205"/>
      <point x="762" y="205" type="curve" smooth="yes"/>
      <point x="743" y="205"/>
      <point x="727" y="188"/>
      <point x="727" y="170" type="curve" smooth="yes"/>
      <point x="727" y="152"/>
      <point x="743" y="135"/>
    </contour>
    <contour>
      <point x="664" y="107" type="curve" smooth="yes"/>
      <point x="682" y="107"/>
      <point x="699" y="124"/>
      <point x="699" y="142" type="curve" smooth="yes"/>
      <point x="699" y="160"/>
      <point x="682" y="177"/>
      <point x="664" y="177" type="curve" smooth="yes"/>
      <point x="645" y="177"/>
      <point x="629" y="160"/>
      <point x="629" y="142" type="curve" smooth="yes"/>
      <point x="629" y="124"/>
      <point x="645" y="107"/>
    </contour>
    <contour>
      <point x="567" y="134" type="curve" smooth="yes"/>
      <point x="585" y="134"/>
      <point x="602" y="151"/>
      <point x="602" y="169" type="curve" smooth="yes"/>
      <point x="602" y="187"/>
      <point x="585" y="204"/>
      <point x="567" y="204" type="curve" smooth="yes"/>
      <point x="548" y="204"/>
      <point x="532" y="187"/>
      <point x="532" y="169" type="curve" smooth="yes"/>
      <point x="532" y="151"/>
      <point x="548" y="134"/>
    </contour>
    <contour>
      <point x="494" y="206" type="curve" smooth="yes"/>
      <point x="512" y="206"/>
      <point x="529" y="223"/>
      <point x="529" y="241" type="curve" smooth="yes"/>
      <point x="529" y="259"/>
      <point x="512" y="276"/>
      <point x="494" y="276" type="curve" smooth="yes"/>
      <point x="475" y="276"/>
      <point x="459" y="259"/>
      <point x="459" y="241" type="curve" smooth="yes"/>
      <point x="459" y="223"/>
      <point x="475" y="206"/>
    </contour>
    <contour>
      <point x="1059" y="748" type="line"/>
      <point x="1239" y="748" type="line"/>
      <point x="1239" y="793" type="line" smooth="yes"/>
      <point x="1239" y="889"/>
      <point x="1215" y="956"/>
      <point x="1115" y="1025" type="curve" smooth="yes"/>
      <point x="1034" y="1081"/>
      <point x="977" y="1109"/>
      <point x="912" y="1109" type="curve" smooth="yes"/>
      <point x="831" y="1109"/>
      <point x="752" y="1065"/>
      <point x="752" y="973" type="curve" smooth="yes"/>
      <point x="752" y="918"/>
      <point x="780" y="873"/>
      <point x="875" y="873" type="curve" smooth="yes"/>
      <point x="1006" y="873" type="line" smooth="yes"/>
      <point x="1041" y="873"/>
      <point x="1059" y="857"/>
      <point x="1059" y="825" type="curve" smooth="yes"/>
    </contour>
    <contour>
      <point x="888" y="962" type="line"/>
      <point x="888" y="981"/>
      <point x="904" y="995"/>
      <point x="932" y="995" type="curve" smooth="yes"/>
      <point x="957" y="995"/>
      <point x="987" y="984"/>
      <point x="1015" y="962" type="curve"/>
    </contour>
    <contour>
      <point x="1034" y="1050" type="line"/>
      <point x="1034" y="1162" type="line"/>
      <point x="939" y="1162" type="line"/>
      <point x="939" y="1091" type="line"/>
    </contour>
    <contour>
      <point x="1144" y="993" type="line"/>
      <point x="1144" y="1137" type="line"/>
      <point x="1049" y="1137" type="line"/>
      <point x="1049" y="1041" type="line"/>
    </contour>
    <contour>
      <point x="1239" y="802" type="line"/>
      <point x="1059" y="802" type="line"/>
      <point x="1059" y="-168" type="line" smooth="yes"/>
      <point x="1059" y="-204"/>
      <point x="1029" y="-230"/>
      <point x="974" y="-230" type="curve" smooth="yes"/>
      <point x="918" y="-230"/>
      <point x="891" y="-204"/>
      <point x="891" y="-168" type="curve" smooth="yes"/>
      <point x="891" y="-49" type="line"/>
      <point x="711" y="-49" type="line"/>
      <point x="711" y="-195" type="line" smooth="yes"/>
      <point x="711" y="-277"/>
      <point x="799" y="-317"/>
      <point x="974" y="-317" type="curve" smooth="yes"/>
      <point x="1150" y="-317"/>
      <point x="1239" y="-277"/>
      <point x="1239" y="-195" type="curve" smooth="yes"/>
    </contour>
  </outline>
</glyph>
<glyph name="uni17C0" format="2">
  <advance width="1270"/>
  <unicode hex="17C0"/>
  <note>
uni17C0
</note>
  <anchor x="931" y="1230" name="abvm"/>
  <anchor x="649" y="45" name="blwm"/>
  <outline>
    <contour>
      <point x="91" y="298" type="line"/>
      <point x="271" y="298" type="line"/>
      <point x="271" y="427" type="line"/>
      <point x="91" y="427" type="line"/>
    </contour>
    <contour>
      <point x="271" y="330" type="line"/>
      <point x="271" y="449" type="line"/>
      <point x="145" y="514" type="line"/>
      <point x="159" y="535" type="line"/>
      <point x="214" y="510"/>
      <point x="233" y="505"/>
      <point x="248" y="505" type="curve" smooth="yes"/>
      <point x="303" y="505"/>
      <point x="331" y="568"/>
      <point x="331" y="612" type="curve"/>
      <point x="278" y="612"/>
      <point x="226" y="643"/>
      <point x="145" y="680" type="curve"/>
      <point x="53" y="572"/>
      <point x="17" y="525"/>
      <point x="17" y="492" type="curve" smooth="yes"/>
      <point x="17" y="473"/>
      <point x="29" y="449"/>
      <point x="91" y="412" type="curve"/>
      <point x="91" y="330" type="line"/>
    </contour>
    <contour>
      <point x="91" y="317" type="line"/>
      <point x="91" y="0" type="line"/>
      <point x="271" y="0" type="line"/>
      <point x="353" y="46"/>
      <point x="405" y="95"/>
      <point x="405" y="167" type="curve" smooth="yes"/>
      <point x="405" y="235"/>
      <point x="360" y="281"/>
      <point x="271" y="275" type="curve"/>
      <point x="271" y="317" type="line"/>
    </contour>
    <contour>
      <point x="271" y="186" type="line"/>
      <point x="289" y="185"/>
      <point x="305" y="179"/>
      <point x="305" y="154" type="curve" smooth="yes"/>
      <point x="305" y="138"/>
      <point x="298" y="118"/>
      <point x="271" y="102" type="curve"/>
    </contour>
    <contour>
      <point x="454" y="301" type="curve" smooth="yes"/>
      <point x="472" y="301"/>
      <point x="489" y="318"/>
      <point x="489" y="336" type="curve" smooth="yes"/>
      <point x="489" y="354"/>
      <point x="472" y="371"/>
      <point x="454" y="371" type="curve" smooth="yes"/>
      <point x="435" y="371"/>
      <point x="419" y="354"/>
      <point x="419" y="336" type="curve" smooth="yes"/>
      <point x="419" y="318"/>
      <point x="435" y="301"/>
    </contour>
    <contour>
      <point x="480" y="402" type="curve" smooth="yes"/>
      <point x="498" y="402"/>
      <point x="515" y="419"/>
      <point x="515" y="437" type="curve" smooth="yes"/>
      <point x="515" y="455"/>
      <point x="498" y="472"/>
      <point x="480" y="472" type="curve" smooth="yes"/>
      <point x="461" y="472"/>
      <point x="445" y="455"/>
      <point x="445" y="437" type="curve" smooth="yes"/>
      <point x="445" y="419"/>
      <point x="461" y="402"/>
    </contour>
    <contour>
      <point x="551" y="472" type="curve" smooth="yes"/>
      <point x="569" y="472"/>
      <point x="586" y="489"/>
      <point x="586" y="507" type="curve" smooth="yes"/>
      <point x="586" y="525"/>
      <point x="569" y="542"/>
      <point x="551" y="542" type="curve" smooth="yes"/>
      <point x="532" y="542"/>
      <point x="516" y="525"/>
      <point x="516" y="507" type="curve" smooth="yes"/>
      <point x="516" y="489"/>
      <point x="532" y="472"/>
    </contour>
    <contour>
      <point x="648" y="496" type="curve" smooth="yes"/>
      <point x="666" y="496"/>
      <point x="683" y="513"/>
      <point x="683" y="531" type="curve" smooth="yes"/>
      <point x="683" y="549"/>
      <point x="666" y="566"/>
      <point x="648" y="566" type="curve" smooth="yes"/>
      <point x="629" y="566"/>
      <point x="613" y="549"/>
      <point x="613" y="531" type="curve" smooth="yes"/>
      <point x="613" y="513"/>
      <point x="629" y="496"/>
    </contour>
    <contour>
      <point x="745" y="472" type="curve" smooth="yes"/>
      <point x="763" y="472"/>
      <point x="780" y="489"/>
      <point x="780" y="507" type="curve" smooth="yes"/>
      <point x="780" y="525"/>
      <point x="763" y="542"/>
      <point x="745" y="542" type="curve" smooth="yes"/>
      <point x="726" y="542"/>
      <point x="710" y="525"/>
      <point x="710" y="507" type="curve" smooth="yes"/>
      <point x="710" y="489"/>
      <point x="726" y="472"/>
    </contour>
    <contour>
      <point x="815" y="400" type="curve" smooth="yes"/>
      <point x="833" y="400"/>
      <point x="850" y="417"/>
      <point x="850" y="435" type="curve" smooth="yes"/>
      <point x="850" y="453"/>
      <point x="833" y="470"/>
      <point x="815" y="470" type="curve" smooth="yes"/>
      <point x="796" y="470"/>
      <point x="780" y="453"/>
      <point x="780" y="435" type="curve" smooth="yes"/>
      <point x="780" y="417"/>
      <point x="796" y="400"/>
    </contour>
    <contour>
      <point x="845" y="301" type="curve" smooth="yes"/>
      <point x="863" y="301"/>
      <point x="880" y="318"/>
      <point x="880" y="336" type="curve" smooth="yes"/>
      <point x="880" y="354"/>
      <point x="863" y="371"/>
      <point x="845" y="371" type="curve" smooth="yes"/>
      <point x="826" y="371"/>
      <point x="810" y="354"/>
      <point x="810" y="336" type="curve" smooth="yes"/>
      <point x="810" y="318"/>
      <point x="826" y="301"/>
    </contour>
    <contour>
      <point x="817" y="207" type="curve" smooth="yes"/>
      <point x="835" y="207"/>
      <point x="852" y="224"/>
      <point x="852" y="242" type="curve" smooth="yes"/>
      <point x="852" y="260"/>
      <point x="835" y="277"/>
      <point x="817" y="277" type="curve" smooth="yes"/>
      <point x="798" y="277"/>
      <point x="782" y="260"/>
      <point x="782" y="242" type="curve" smooth="yes"/>
      <point x="782" y="224"/>
      <point x="798" y="207"/>
    </contour>
    <contour>
      <point x="746" y="135" type="curve" smooth="yes"/>
      <point x="764" y="135"/>
      <point x="781" y="152"/>
      <point x="781" y="170" type="curve" smooth="yes"/>
      <point x="781" y="188"/>
      <point x="764" y="205"/>
      <point x="746" y="205" type="curve" smooth="yes"/>
      <point x="727" y="205"/>
      <point x="711" y="188"/>
      <point x="711" y="170" type="curve" smooth="yes"/>
      <point x="711" y="152"/>
      <point x="727" y="135"/>
    </contour>
    <contour>
      <point x="648" y="107" type="curve" smooth="yes"/>
      <point x="666" y="107"/>
      <point x="683" y="124"/>
      <point x="683" y="142" type="curve" smooth="yes"/>
      <point x="683" y="160"/>
      <point x="666" y="177"/>
      <point x="648" y="177" type="curve" smooth="yes"/>
      <point x="629" y="177"/>
      <point x="613" y="160"/>
      <point x="613" y="142" type="curve" smooth="yes"/>
      <point x="613" y="124"/>
      <point x="629" y="107"/>
    </contour>
    <contour>
      <point x="551" y="134" type="curve" smooth="yes"/>
      <point x="569" y="134"/>
      <point x="586" y="151"/>
      <point x="586" y="169" type="curve" smooth="yes"/>
      <point x="586" y="187"/>
      <point x="569" y="204"/>
      <point x="551" y="204" type="curve" smooth="yes"/>
      <point x="532" y="204"/>
      <point x="516" y="187"/>
      <point x="516" y="169" type="curve" smooth="yes"/>
      <point x="516" y="151"/>
      <point x="532" y="134"/>
    </contour>
    <contour>
      <point x="478" y="206" type="curve" smooth="yes"/>
      <point x="496" y="206"/>
      <point x="513" y="223"/>
      <point x="513" y="241" type="curve" smooth="yes"/>
      <point x="513" y="259"/>
      <point x="496" y="276"/>
      <point x="478" y="276" type="curve" smooth="yes"/>
      <point x="459" y="276"/>
      <point x="443" y="259"/>
      <point x="443" y="241" type="curve" smooth="yes"/>
      <point x="443" y="223"/>
      <point x="459" y="206"/>
    </contour>
    <contour>
      <point x="1010" y="719" type="line"/>
      <point x="1190" y="719" type="line"/>
      <point x="1190" y="801" type="line" smooth="yes"/>
      <point x="1190" y="932"/>
      <point x="1099" y="998"/>
      <point x="939" y="998" type="curve" smooth="yes"/>
      <point x="877" y="998"/>
      <point x="819" y="984"/>
      <point x="772" y="940" type="curve"/>
      <point x="791" y="984"/>
      <point x="807" y="1027"/>
      <point x="807" y="1092" type="curve" smooth="yes"/>
      <point x="807" y="1165"/>
      <point x="786" y="1224"/>
      <point x="710" y="1224" type="curve" smooth="yes"/>
      <point x="649" y="1224"/>
      <point x="606" y="1186"/>
      <point x="606" y="1140" type="curve"/>
      <point x="640" y="1140"/>
      <point x="665" y="1117"/>
      <point x="665" y="1062" type="curve" smooth="yes"/>
      <point x="665" y="1019"/>
      <point x="650" y="991"/>
      <point x="650" y="944" type="curve" smooth="yes"/>
      <point x="650" y="866"/>
      <point x="688" y="839"/>
      <point x="750" y="839" type="curve" smooth="yes"/>
      <point x="846" y="839"/>
      <point x="848" y="911"/>
      <point x="928" y="911" type="curve" smooth="yes"/>
      <point x="988" y="911"/>
      <point x="1010" y="868"/>
      <point x="1010" y="784" type="curve" smooth="yes"/>
    </contour>
    <contour>
      <point x="1190" y="802" type="line"/>
      <point x="1010" y="802" type="line"/>
      <point x="1010" y="-168" type="line" smooth="yes"/>
      <point x="1010" y="-204"/>
      <point x="980" y="-230"/>
      <point x="925" y="-230" type="curve" smooth="yes"/>
      <point x="869" y="-230"/>
      <point x="842" y="-204"/>
      <point x="842" y="-168" type="curve" smooth="yes"/>
      <point x="842" y="-49" type="line"/>
      <point x="662" y="-49" type="line"/>
      <point x="662" y="-195" type="line" smooth="yes"/>
      <point x="662" y="-277"/>
      <point x="750" y="-317"/>
      <point x="925" y="-317" type="curve" smooth="yes"/>
      <point x="1101" y="-317"/>
      <point x="1190" y="-277"/>
      <point x="1190" y="-195" type="curve" smooth="yes"/>
    </contour>
  </outline>
</glyph>
<glyph name="uni17C1" format="2">
  <advance width="435"/>
  <unicode hex="17C1"/>
  <note>
uni17C1
</note>
  <anchor x="115" y="760" name="abvm"/>
  <outline>
    <contour>
      <point x="91" y="298" type="line"/>
      <point x="271" y="298" type="line"/>
      <point x="271" y="427" type="line"/>
      <point x="91" y="427" type="line"/>
    </contour>
    <contour>
      <point x="271" y="330" type="line"/>
      <point x="271" y="449" type="line"/>
      <point x="145" y="514" type="line"/>
      <point x="159" y="535" type="line"/>
      <point x="214" y="510"/>
      <point x="233" y="505"/>
      <point x="248" y="505" type="curve" smooth="yes"/>
      <point x="303" y="505"/>
      <point x="331" y="568"/>
      <point x="331" y="612" type="curve"/>
      <point x="278" y="612"/>
      <point x="226" y="643"/>
      <point x="145" y="680" type="curve"/>
      <point x="53" y="572"/>
      <point x="17" y="525"/>
      <point x="17" y="492" type="curve" smooth="yes"/>
      <point x="17" y="473"/>
      <point x="29" y="449"/>
      <point x="91" y="412" type="curve"/>
      <point x="91" y="330" type="line"/>
    </contour>
    <contour>
      <point x="91" y="317" type="line"/>
      <point x="91" y="0" type="line"/>
      <point x="271" y="0" type="line"/>
      <point x="353" y="46"/>
      <point x="405" y="95"/>
      <point x="405" y="167" type="curve" smooth="yes"/>
      <point x="405" y="235"/>
      <point x="360" y="281"/>
      <point x="271" y="275" type="curve"/>
      <point x="271" y="317" type="line"/>
    </contour>
    <contour>
      <point x="271" y="186" type="line"/>
      <point x="289" y="185"/>
      <point x="305" y="179"/>
      <point x="305" y="154" type="curve" smooth="yes"/>
      <point x="305" y="138"/>
      <point x="298" y="118"/>
      <point x="271" y="102" type="curve"/>
    </contour>
  </outline>
</glyph>
<glyph name="uni17C2" format="2">
  <advance width="441"/>
  <unicode hex="17C2"/>
  <note>
uni17C2
</note>
  <anchor x="115" y="760" name="abvm"/>
  <outline>
    <contour>
      <point x="145" y="892" type="curve"/>
      <point x="149" y="935"/>
      <point x="129" y="959"/>
      <point x="89" y="959" type="curve" smooth="yes"/>
      <point x="32" y="959"/>
      <point x="3" y="911"/>
      <point x="3" y="865" type="curve" smooth="yes"/>
      <point x="3" y="808"/>
      <point x="49" y="757"/>
      <point x="147" y="757" type="curve" smooth="yes"/>
      <point x="296" y="757"/>
      <point x="361" y="864"/>
      <point x="361" y="940" type="curve" smooth="yes"/>
      <point x="361" y="985"/>
      <point x="340" y="1063"/>
      <point x="245" y="1063" type="curve" smooth="yes"/>
      <point x="182" y="1063"/>
      <point x="148" y="1028"/>
      <point x="170" y="949" type="curve"/>
      <point x="186" y="945"/>
      <point x="205" y="932"/>
      <point x="205" y="903" type="curve" smooth="yes"/>
      <point x="205" y="866"/>
      <point x="174" y="848"/>
      <point x="150" y="848" type="curve" smooth="yes"/>
      <point x="135" y="848"/>
      <point x="119" y="856"/>
      <point x="119" y="873" type="curve" smooth="yes"/>
      <point x="119" y="885"/>
      <point x="127" y="892"/>
    </contour>
    <contour>
      <point x="91" y="298" type="line"/>
      <point x="271" y="298" type="line"/>
      <point x="271" y="427" type="line"/>
      <point x="91" y="427" type="line"/>
    </contour>
    <contour>
      <point x="271" y="330" type="line"/>
      <point x="271" y="449" type="line"/>
      <point x="145" y="514" type="line"/>
      <point x="159" y="535" type="line"/>
      <point x="214" y="510"/>
      <point x="233" y="505"/>
      <point x="248" y="505" type="curve" smooth="yes"/>
      <point x="303" y="505"/>
      <point x="331" y="568"/>
      <point x="331" y="612" type="curve"/>
      <point x="278" y="612"/>
      <point x="226" y="643"/>
      <point x="145" y="680" type="curve"/>
      <point x="53" y="572"/>
      <point x="17" y="525"/>
      <point x="17" y="492" type="curve" smooth="yes"/>
      <point x="17" y="473"/>
      <point x="29" y="449"/>
      <point x="91" y="412" type="curve"/>
      <point x="91" y="330" type="line"/>
    </contour>
    <contour>
      <point x="91" y="317" type="line"/>
      <point x="91" y="0" type="line"/>
      <point x="271" y="0" type="line"/>
      <point x="353" y="46"/>
      <point x="405" y="95"/>
      <point x="405" y="167" type="curve" smooth="yes"/>
      <point x="405" y="235"/>
      <point x="360" y="281"/>
      <point x="271" y="275" type="curve"/>
      <point x="271" y="317" type="line"/>
    </contour>
    <contour>
      <point x="271" y="186" type="line"/>
      <point x="289" y="185"/>
      <point x="305" y="179"/>
      <point x="305" y="154" type="curve" smooth="yes"/>
      <point x="305" y="138"/>
      <point x="298" y="118"/>
      <point x="271" y="102" type="curve"/>
    </contour>
  </outline>
</glyph>
<glyph name="uni17C3" format="2">
  <advance width="435"/>
  <unicode hex="17C3"/>
  <note>
uni17C3
</note>
  <anchor x="115" y="760" name="abvm"/>
  <outline>
    <contour>
      <point x="162" y="886" type="curve"/>
      <point x="98" y="929"/>
      <point x="12" y="901"/>
      <point x="12" y="850" type="curve" smooth="yes"/>
      <point x="12" y="806"/>
      <point x="75" y="750"/>
      <point x="180" y="750" type="curve" smooth="yes"/>
      <point x="300" y="750"/>
      <point x="369" y="819"/>
      <point x="369" y="895" type="curve" smooth="yes"/>
      <point x="369" y="977"/>
      <point x="290" y="1041"/>
      <point x="177" y="1041" type="curve" smooth="yes"/>
      <point x="160" y="1041" type="line"/>
      <point x="153" y="1092"/>
      <point x="131" y="1123"/>
      <point x="69" y="1123" type="curve" smooth="yes"/>
      <point x="-13" y="1123"/>
      <point x="-37" y="1070"/>
      <point x="-37" y="1037" type="curve"/>
      <point x="-6" y="1032"/>
      <point x="0" y="1008"/>
      <point x="13" y="990" type="curve" smooth="yes"/>
      <point x="28" y="969"/>
      <point x="56" y="949"/>
      <point x="124" y="949" type="curve" smooth="yes"/>
      <point x="159" y="949" type="line" smooth="yes"/>
      <point x="192" y="949"/>
      <point x="221" y="936"/>
      <point x="221" y="890" type="curve" smooth="yes"/>
      <point x="221" y="856"/>
      <point x="205" y="839"/>
      <point x="191" y="839" type="curve" smooth="yes"/>
      <point x="175" y="839"/>
      <point x="162" y="861"/>
    </contour>
    <contour>
      <point x="91" y="298" type="line"/>
      <point x="271" y="298" type="line"/>
      <point x="271" y="427" type="line"/>
      <point x="91" y="427" type="line"/>
    </contour>
    <contour>
      <point x="271" y="330" type="line"/>
      <point x="271" y="449" type="line"/>
      <point x="145" y="514" type="line"/>
      <point x="159" y="535" type="line"/>
      <point x="214" y="510"/>
      <point x="233" y="505"/>
      <point x="248" y="505" type="curve" smooth="yes"/>
      <point x="303" y="505"/>
      <point x="331" y="568"/>
      <point x="331" y="612" type="curve"/>
      <point x="278" y="612"/>
      <point x="226" y="643"/>
      <point x="145" y="680" type="curve"/>
      <point x="53" y="572"/>
      <point x="17" y="525"/>
      <point x="17" y="492" type="curve" smooth="yes"/>
      <point x="17" y="473"/>
      <point x="29" y="449"/>
      <point x="91" y="412" type="curve"/>
      <point x="91" y="330" type="line"/>
    </contour>
    <contour>
      <point x="91" y="317" type="line"/>
      <point x="91" y="0" type="line"/>
      <point x="271" y="0" type="line"/>
      <point x="353" y="46"/>
      <point x="405" y="95"/>
      <point x="405" y="167" type="curve" smooth="yes"/>
      <point x="405" y="235"/>
      <point x="360" y="281"/>
      <point x="271" y="275" type="curve"/>
      <point x="271" y="317" type="line"/>
    </contour>
    <contour>
      <point x="271" y="186" type="line"/>
      <point x="289" y="185"/>
      <point x="305" y="179"/>
      <point x="305" y="154" type="curve" smooth="yes"/>
      <point x="305" y="138"/>
      <point x="298" y="118"/>
      <point x="271" y="102" type="curve"/>
    </contour>
  </outline>
</glyph>
